G04*
G04 #@! TF.GenerationSoftware,Altium Limited,Altium Designer,24.1.2 (44)*
G04*
G04 Layer_Physical_Order=4*
G04 Layer_Color=16711680*
%FSLAX44Y44*%
%MOMM*%
G71*
G04*
G04 #@! TF.SameCoordinates,B8ECF972-9BC3-4E3D-8DB6-831ADBB15DBB*
G04*
G04*
G04 #@! TF.FilePolarity,Positive*
G04*
G01*
G75*
%ADD10C,0.2000*%
%ADD11C,0.2500*%
%ADD15C,0.2540*%
%ADD16C,0.1500*%
%ADD108R,1.3000X1.3000*%
%ADD114C,1.1500*%
%ADD115R,1.1500X1.1500*%
%ADD116C,2.1000*%
%ADD117C,5.3000*%
%ADD118R,1.9500X1.9500*%
%ADD119C,1.9500*%
%ADD120C,1.8750*%
%ADD121C,1.7250*%
%ADD122R,1.7250X1.7250*%
%ADD123R,1.3000X1.3000*%
%ADD124C,1.3000*%
%ADD125C,1.2180*%
%ADD126C,2.0800*%
%ADD127C,1.4680*%
%ADD128R,1.4680X1.4680*%
%ADD129R,1.2180X1.2180*%
%ADD130C,2.8500*%
%ADD131C,0.7500*%
%ADD132C,1.0000*%
G36*
X98000Y219000D02*
X3000D01*
Y275000D01*
X15264D01*
X15633Y273785D01*
X15222Y273511D01*
X12889Y271178D01*
X11056Y268434D01*
X9794Y265386D01*
X9150Y262150D01*
Y262000D01*
X25900D01*
X42650D01*
Y262150D01*
X42006Y265386D01*
X40743Y268434D01*
X38910Y271178D01*
X36577Y273511D01*
X36167Y273785D01*
X36536Y275000D01*
X55264D01*
X55633Y273785D01*
X55222Y273511D01*
X52889Y271178D01*
X51056Y268434D01*
X49794Y265386D01*
X49150Y262150D01*
Y262000D01*
X65900D01*
X82650D01*
Y262150D01*
X82006Y265386D01*
X80744Y268434D01*
X78910Y271178D01*
X76577Y273511D01*
X73834Y275344D01*
X70786Y276606D01*
X67550Y277250D01*
X65900D01*
Y342750D01*
X67550D01*
X70786Y343394D01*
X73834Y344656D01*
X76577Y346489D01*
X78910Y348823D01*
X80744Y351566D01*
X82006Y354614D01*
X82650Y357850D01*
Y358000D01*
X65900D01*
X49150D01*
Y357850D01*
X49794Y354614D01*
X51056Y351566D01*
X52889Y348823D01*
X55222Y346489D01*
X55633Y346215D01*
X55264Y345000D01*
X36536D01*
X36167Y346215D01*
X36577Y346489D01*
X38910Y348823D01*
X40743Y351566D01*
X42006Y354614D01*
X42650Y357850D01*
Y358000D01*
X25900D01*
X9150D01*
Y357850D01*
X9794Y354614D01*
X11056Y351566D01*
X12889Y348823D01*
X15222Y346489D01*
X15633Y346215D01*
X15264Y345000D01*
X3000D01*
Y380000D01*
X98000D01*
Y219000D01*
D02*
G37*
G36*
X1860000Y220000D02*
X1790000D01*
X1790000Y510000D01*
X460000D01*
Y540000D01*
X823750D01*
X825260Y539375D01*
X828400Y538750D01*
X831600D01*
X834740Y539375D01*
X836250Y540000D01*
X1860000D01*
X1860000Y220000D01*
D02*
G37*
%LPC*%
G36*
X27550Y376250D02*
X27400D01*
Y361000D01*
X42650D01*
Y361150D01*
X42006Y364386D01*
X40743Y367434D01*
X38910Y370177D01*
X36577Y372511D01*
X33834Y374344D01*
X30786Y375606D01*
X27550Y376250D01*
D02*
G37*
G36*
X24400D02*
X24250D01*
X21014Y375606D01*
X17966Y374344D01*
X15222Y372511D01*
X12889Y370177D01*
X11056Y367434D01*
X9794Y364386D01*
X9150Y361150D01*
Y361000D01*
X24400D01*
Y376250D01*
D02*
G37*
G36*
X67550D02*
X67400D01*
Y361000D01*
X82650D01*
Y361150D01*
X82006Y364386D01*
X80744Y367434D01*
X78910Y370177D01*
X76577Y372511D01*
X73834Y374344D01*
X70786Y375606D01*
X67550Y376250D01*
D02*
G37*
G36*
X64400D02*
X64250D01*
X61014Y375606D01*
X57966Y374344D01*
X55222Y372511D01*
X52889Y370177D01*
X51056Y367434D01*
X49794Y364386D01*
X49150Y361150D01*
Y361000D01*
X64400D01*
Y376250D01*
D02*
G37*
G36*
X82650Y259000D02*
X67400D01*
Y243750D01*
X67550D01*
X70786Y244394D01*
X73834Y245656D01*
X76577Y247489D01*
X78910Y249823D01*
X80744Y252566D01*
X82006Y255614D01*
X82650Y258850D01*
Y259000D01*
D02*
G37*
G36*
X64400D02*
X49150D01*
Y258850D01*
X49794Y255614D01*
X51056Y252566D01*
X52889Y249823D01*
X55222Y247489D01*
X57966Y245656D01*
X61014Y244394D01*
X64250Y243750D01*
X64400D01*
Y259000D01*
D02*
G37*
G36*
X42650Y259000D02*
X27400D01*
Y243750D01*
X27550D01*
X30786Y244394D01*
X33834Y245656D01*
X36577Y247489D01*
X38910Y249823D01*
X40743Y252566D01*
X42006Y255614D01*
X42650Y258850D01*
Y259000D01*
D02*
G37*
G36*
X24400D02*
X9150D01*
Y258850D01*
X9794Y255614D01*
X11056Y252566D01*
X12889Y249823D01*
X15222Y247489D01*
X17966Y245656D01*
X21014Y244394D01*
X24250Y243750D01*
X24400D01*
Y259000D01*
D02*
G37*
G36*
X1824125Y363625D02*
X1814500D01*
Y354000D01*
X1824125D01*
Y363625D01*
D02*
G37*
G36*
X1811500D02*
X1801875D01*
Y354000D01*
X1811500D01*
Y363625D01*
D02*
G37*
G36*
X1839799Y363125D02*
X1837001D01*
X1834299Y362401D01*
X1831876Y361002D01*
X1829898Y359024D01*
X1828499Y356601D01*
X1827775Y353899D01*
Y351101D01*
X1828499Y348399D01*
X1829898Y345976D01*
X1831876Y343998D01*
X1834299Y342599D01*
X1837001Y341875D01*
X1839799D01*
X1842501Y342599D01*
X1844924Y343998D01*
X1846902Y345976D01*
X1848301Y348399D01*
X1849025Y351101D01*
Y353899D01*
X1848301Y356601D01*
X1846902Y359024D01*
X1844924Y361002D01*
X1842501Y362401D01*
X1839799Y363125D01*
D02*
G37*
G36*
X1824125Y351000D02*
X1814500D01*
Y341375D01*
X1824125D01*
Y351000D01*
D02*
G37*
G36*
X1811500D02*
X1801875D01*
Y341375D01*
X1811500D01*
Y351000D01*
D02*
G37*
G36*
X1821625Y246125D02*
X1812000D01*
Y236500D01*
X1821625D01*
Y246125D01*
D02*
G37*
G36*
X1809000D02*
X1799375D01*
Y236500D01*
X1809000D01*
Y246125D01*
D02*
G37*
G36*
X1837299Y245625D02*
X1834501D01*
X1831799Y244901D01*
X1829376Y243502D01*
X1827398Y241524D01*
X1825999Y239101D01*
X1825275Y236399D01*
Y233601D01*
X1825999Y230899D01*
X1827398Y228476D01*
X1829376Y226498D01*
X1831799Y225099D01*
X1834501Y224375D01*
X1837299D01*
X1840001Y225099D01*
X1842424Y226498D01*
X1844402Y228476D01*
X1845801Y230899D01*
X1846525Y233601D01*
Y236399D01*
X1845801Y239101D01*
X1844402Y241524D01*
X1842424Y243502D01*
X1840001Y244901D01*
X1837299Y245625D01*
D02*
G37*
G36*
X1821625Y233500D02*
X1812000D01*
Y223875D01*
X1821625D01*
Y233500D01*
D02*
G37*
G36*
X1809000D02*
X1799375D01*
Y223875D01*
X1809000D01*
Y233500D01*
D02*
G37*
%LPD*%
D10*
X167000Y595000D02*
X216000Y546000D01*
X167000Y595000D02*
Y647000D01*
X272000Y410000D02*
X300106Y438106D01*
X246000Y410000D02*
X272000D01*
X202000Y454000D02*
X246000Y410000D01*
X216000Y525536D02*
Y546000D01*
X204000Y513535D02*
X216000Y525536D01*
X327000Y560000D02*
X460000Y427000D01*
Y255000D02*
Y427000D01*
X430000Y225000D02*
X460000Y255000D01*
D11*
X922500Y550000D02*
X1806971D01*
X920000Y545000D02*
X1811971D01*
X1814971Y548000D02*
X1817000D01*
X1811971Y545000D02*
X1814971Y548000D01*
X1806971Y550000D02*
X1816971Y560000D01*
X875000Y597500D02*
X922500Y550000D01*
X872500Y592500D02*
X920000Y545000D01*
X349250Y794000D02*
X680750D01*
X814000Y660750D01*
X688000Y808750D02*
X835750Y661000D01*
X368750Y808750D02*
X688000D01*
X384000Y802000D02*
X684000D01*
X825000Y661000D01*
X368500Y808500D02*
X368750Y808750D01*
X383750Y801750D02*
X384000Y802000D01*
X349000Y794250D02*
X349250Y794000D01*
X260000Y158500D02*
X270000Y168500D01*
Y180500D01*
X244897Y205353D02*
X262250Y188000D01*
X242897Y205353D02*
X244897D01*
X226500Y221750D02*
X242897Y205353D01*
X209500Y158500D02*
X260000D01*
X239147Y197603D02*
X255500Y181250D01*
X238647Y197603D02*
X239147D01*
X219000Y217250D02*
X238647Y197603D01*
X219000Y217250D02*
Y402500D01*
X226500Y221750D02*
Y384925D01*
X283000Y187500D02*
X283250Y187250D01*
X342750D02*
X343000Y187000D01*
X283250Y187250D02*
X342750D01*
X234008Y465242D02*
Y468492D01*
X202250Y500250D02*
X234008Y468492D01*
Y465242D02*
X268250Y431000D01*
X278900Y635000D02*
X280000D01*
X208250Y588250D02*
X250983Y630983D01*
X274883D01*
X278900Y635000D01*
X297500Y699000D02*
X335000D01*
X226500Y628000D02*
X297500Y699000D01*
X159250Y593750D02*
Y676250D01*
Y593750D02*
X207000Y546000D01*
X159250Y676250D02*
X188000Y705000D01*
X360250Y698397D02*
Y699750D01*
X355768Y693915D02*
X360250Y698397D01*
X355768Y693768D02*
Y693915D01*
X354000Y692000D02*
X355768Y693768D01*
X292500Y706000D02*
X342393D01*
X347144Y701250D01*
X348250D01*
X216500Y624000D02*
Y630000D01*
X292500Y706000D01*
X370000Y598509D02*
Y629000D01*
X323956Y647000D02*
X352000D01*
X370000Y629000D01*
X297500Y673456D02*
X323956Y647000D01*
X232750Y478250D02*
Y537750D01*
Y478250D02*
X265500Y445500D01*
X268250Y431000D02*
X281000D01*
X301000Y692000D02*
X354000D01*
X226000Y617000D02*
X301000Y692000D01*
X209000Y617000D02*
X226000D01*
X234000Y712000D02*
X366000D01*
X378000Y585000D02*
Y700000D01*
X366000Y712000D02*
X378000Y700000D01*
X227000Y705000D02*
X234000Y712000D01*
X188000Y705000D02*
X227000D01*
X182000Y712000D02*
X215000D01*
X140000Y670000D02*
X182000Y712000D01*
X140000Y603000D02*
Y670000D01*
Y603000D02*
X199000Y544000D01*
Y532536D02*
Y544000D01*
X192000Y525536D02*
X199000Y532536D01*
X171536Y525536D02*
X192000D01*
X155000Y509000D02*
X171536Y525536D01*
X155000Y465000D02*
Y509000D01*
Y465000D02*
X164000Y456000D01*
X185655Y541000D02*
X192000D01*
X96655Y630000D02*
X185655Y541000D01*
X40000Y580000D02*
X136000D01*
X183000Y533000D01*
X174000Y518000D02*
X194500D01*
X164000Y508000D02*
X174000Y518000D01*
X194500D02*
X207000Y530500D01*
X40000Y630000D02*
X96655D01*
X358000Y595000D02*
Y630000D01*
Y595000D02*
X403000Y550000D01*
X353000Y635000D02*
X358000Y630000D01*
X403000Y550000D02*
X752500D01*
X280000Y635000D02*
X353000D01*
X349000Y593000D02*
Y626483D01*
X397000Y545000D02*
X754000D01*
X349000Y593000D02*
X397000Y545000D01*
X207000Y530500D02*
Y546000D01*
X164000Y470000D02*
Y508000D01*
X178000Y389000D02*
Y390000D01*
X149000Y419000D02*
X178000Y390000D01*
X149000Y419000D02*
Y515000D01*
X202500Y570000D02*
X365000D01*
X435000Y500000D01*
X195000Y577500D02*
X202500Y570000D01*
X435000Y500000D02*
X1142300D01*
X1272300Y370000D01*
X278900Y636100D02*
Y645000D01*
Y636100D02*
X280000Y635000D01*
X259983Y626483D02*
X349000D01*
X1816971Y560000D02*
X1858000D01*
X800000Y597500D02*
X875000D01*
X801500Y592500D02*
X872500D01*
X754000Y545000D02*
X801500Y592500D01*
X752500Y550000D02*
X800000Y597500D01*
X211000Y577500D02*
X259983Y626483D01*
X219000Y402500D02*
X226500Y410000D01*
D15*
X200000Y385999D02*
Y390250D01*
X191540Y398710D02*
Y501198D01*
Y398710D02*
X200000Y390250D01*
X185500Y391918D02*
Y497158D01*
X184000Y498658D02*
X185500Y497158D01*
Y391918D02*
X190418Y387000D01*
X184000Y498658D02*
Y500000D01*
X191540Y501198D02*
X194000Y503658D01*
Y505000D01*
D16*
X21500Y763502D02*
X31497D01*
X26498Y768500D01*
Y761835D01*
D108*
X70000Y412500D02*
D03*
D114*
X1997300Y669900D02*
D03*
X1946500D02*
D03*
Y746100D02*
D03*
D115*
X2022700D02*
D03*
D116*
X1623000Y715000D02*
D03*
Y190000D02*
D03*
X1420000D02*
D03*
Y715000D02*
D03*
D117*
X100000Y700000D02*
D03*
X1250000D02*
D03*
X1750000Y200000D02*
D03*
Y700000D02*
D03*
D118*
X100000Y110800D02*
D03*
D119*
Y60000D02*
D03*
D120*
X2023000Y100000D02*
D03*
X1190000D02*
D03*
D121*
X1990800Y352500D02*
D03*
X1940000D02*
D03*
X1838400D02*
D03*
X1988300Y235000D02*
D03*
X1937500D02*
D03*
X1835900D02*
D03*
D122*
X1813000Y352500D02*
D03*
X1810500Y235000D02*
D03*
D123*
X2070000Y390000D02*
D03*
X40000Y680000D02*
D03*
Y600000D02*
D03*
Y650000D02*
D03*
D124*
X2070000Y410000D02*
D03*
X40000Y700000D02*
D03*
X50000Y412500D02*
D03*
X40000Y580000D02*
D03*
Y630000D02*
D03*
D125*
X547700Y600350D02*
D03*
X598500D02*
D03*
X496900D02*
D03*
D126*
X974800Y387900D02*
D03*
X670000Y159300D02*
D03*
Y362500D02*
D03*
X974800Y133900D02*
D03*
D127*
X358900Y386000D02*
D03*
X333500D02*
D03*
D128*
X308100D02*
D03*
D129*
X471500Y600350D02*
D03*
D130*
X65900Y359500D02*
D03*
X25900D02*
D03*
Y260500D02*
D03*
X65900D02*
D03*
D131*
X1930000Y610250D02*
D03*
Y600250D02*
D03*
X835750Y661000D02*
D03*
X814000Y660750D02*
D03*
X341000Y617250D02*
D03*
X368500Y808500D02*
D03*
X383750Y801750D02*
D03*
X349000Y794250D02*
D03*
X270000Y180500D02*
D03*
X262250Y188000D02*
D03*
X255500Y181250D02*
D03*
X283000Y187500D02*
D03*
X202250Y500250D02*
D03*
X208250Y588250D02*
D03*
X226500Y628000D02*
D03*
X167000Y647000D02*
D03*
X360250Y699750D02*
D03*
X348250Y701250D02*
D03*
X200000Y383749D02*
D03*
X297500Y673456D02*
D03*
X370000Y598509D02*
D03*
X232750Y537750D02*
D03*
X265500Y445500D02*
D03*
X300106Y438106D02*
D03*
X202000Y454000D02*
D03*
X281000Y431000D02*
D03*
X216500Y624000D02*
D03*
X209000Y617000D02*
D03*
X335000Y699000D02*
D03*
X227000Y705000D02*
D03*
X215000Y712000D02*
D03*
X183000Y533000D02*
D03*
X192000Y541000D02*
D03*
X164000Y456000D02*
D03*
X204000Y513535D02*
D03*
X399000Y580000D02*
D03*
Y600000D02*
D03*
X378000Y585000D02*
D03*
X164000Y470000D02*
D03*
X178000Y389000D02*
D03*
X149000Y515000D02*
D03*
X327000Y560000D02*
D03*
X195000Y577500D02*
D03*
X379500Y129750D02*
D03*
X373250Y206125D02*
D03*
X825000Y661000D02*
D03*
X2054500Y642000D02*
D03*
Y602500D02*
D03*
X2022000Y569000D02*
D03*
X2012000Y579000D02*
D03*
X565000Y641000D02*
D03*
X2031000Y530000D02*
D03*
X2012000Y599000D02*
D03*
X2013000Y512000D02*
D03*
X2012000Y589000D02*
D03*
X2022000Y579000D02*
D03*
X822000Y572000D02*
D03*
X2022000Y530000D02*
D03*
X2012000Y559000D02*
D03*
X2022000D02*
D03*
X2012000Y569000D02*
D03*
X868000Y572000D02*
D03*
X2022000Y512000D02*
D03*
Y589000D02*
D03*
X2013000Y530000D02*
D03*
X2040000D02*
D03*
X2031000Y512000D02*
D03*
X2040000Y521000D02*
D03*
Y634000D02*
D03*
X2022000Y599000D02*
D03*
X2031000Y521000D02*
D03*
X2013000D02*
D03*
X2011350Y642500D02*
D03*
X1180000Y249500D02*
D03*
X2022000Y521000D02*
D03*
X2040000Y512000D02*
D03*
X1930000Y560250D02*
D03*
Y550250D02*
D03*
X1973850Y599000D02*
D03*
X1983850D02*
D03*
X1973850Y589000D02*
D03*
Y579000D02*
D03*
X1983850Y569000D02*
D03*
X1973850D02*
D03*
X1983850Y559000D02*
D03*
X1973850D02*
D03*
X211000Y577500D02*
D03*
X343000Y187000D02*
D03*
X1983850Y589000D02*
D03*
Y579000D02*
D03*
X1180000Y332500D02*
D03*
X226500Y410000D02*
D03*
X350000Y40000D02*
D03*
Y30000D02*
D03*
X360000D02*
D03*
Y40000D02*
D03*
X1920000Y560250D02*
D03*
Y550250D02*
D03*
Y570250D02*
D03*
Y590250D02*
D03*
X1930000Y570250D02*
D03*
Y590250D02*
D03*
X1920000Y580250D02*
D03*
X1930000D02*
D03*
X1920000Y600250D02*
D03*
Y610250D02*
D03*
X806000Y572000D02*
D03*
X830000Y555000D02*
D03*
X312000Y96000D02*
D03*
Y80000D02*
D03*
Y128000D02*
D03*
Y120000D02*
D03*
Y112000D02*
D03*
Y104000D02*
D03*
Y72000D02*
D03*
Y88000D02*
D03*
X360000Y125000D02*
D03*
X368000D02*
D03*
X406500Y176000D02*
D03*
X420000Y165000D02*
D03*
Y176000D02*
D03*
Y186625D02*
D03*
X104000Y166250D02*
D03*
X156000Y166250D02*
D03*
X209500Y158500D02*
D03*
X503000Y641000D02*
D03*
X184000Y500000D02*
D03*
X226500Y385000D02*
D03*
X194000Y505000D02*
D03*
X189076Y387000D02*
D03*
X108760Y288250D02*
D03*
X80000Y206500D02*
D03*
D132*
X1400000Y610000D02*
D03*
Y590000D02*
D03*
Y570000D02*
D03*
Y490000D02*
D03*
Y470000D02*
D03*
Y450000D02*
D03*
Y430000D02*
D03*
Y410000D02*
D03*
Y390000D02*
D03*
Y370000D02*
D03*
Y350000D02*
D03*
Y330000D02*
D03*
Y310000D02*
D03*
Y290000D02*
D03*
Y270000D02*
D03*
Y650000D02*
D03*
Y630000D02*
D03*
X1630000Y610000D02*
D03*
Y590000D02*
D03*
Y570000D02*
D03*
Y490000D02*
D03*
Y470000D02*
D03*
Y450000D02*
D03*
Y430000D02*
D03*
Y410000D02*
D03*
Y390000D02*
D03*
Y370000D02*
D03*
Y350000D02*
D03*
Y330000D02*
D03*
Y310000D02*
D03*
Y290000D02*
D03*
Y270000D02*
D03*
Y650000D02*
D03*
Y630000D02*
D03*
X1530000D02*
D03*
X1500000D02*
D03*
X1530000Y650000D02*
D03*
X1500000D02*
D03*
X1530000Y270000D02*
D03*
X1500000D02*
D03*
X1530000Y290000D02*
D03*
X1500000D02*
D03*
X1530000Y310000D02*
D03*
X1500000D02*
D03*
X1530000Y330000D02*
D03*
X1500000D02*
D03*
X1530000Y350000D02*
D03*
X1500000D02*
D03*
X1530000Y370000D02*
D03*
X1500000D02*
D03*
X1530000Y390000D02*
D03*
X1500000D02*
D03*
X1530000Y410000D02*
D03*
X1500000D02*
D03*
X1530000Y430000D02*
D03*
X1500000D02*
D03*
X1530000Y450000D02*
D03*
X1500000D02*
D03*
X1530000Y470000D02*
D03*
X1500000D02*
D03*
X1530000Y490000D02*
D03*
X1500000D02*
D03*
Y570000D02*
D03*
X1530000D02*
D03*
Y590000D02*
D03*
X1500000D02*
D03*
X1530000Y610000D02*
D03*
X1500000D02*
D03*
X313000Y213000D02*
D03*
X328500Y809750D02*
D03*
X297500Y797500D02*
D03*
X413000Y774500D02*
D03*
X278900Y755000D02*
D03*
X297500Y617017D02*
D03*
X310000Y527000D02*
D03*
X313000Y540750D02*
D03*
X257750Y227500D02*
D03*
X254000Y474438D02*
D03*
X402500Y638949D02*
D03*
X151000Y604000D02*
D03*
X390000Y639000D02*
D03*
X297500Y657500D02*
D03*
X222500D02*
D03*
X278900D02*
D03*
X219750Y804750D02*
D03*
X487524Y682033D02*
D03*
X1272300Y370000D02*
D03*
X398900Y657500D02*
D03*
X1890000Y140000D02*
D03*
Y100000D02*
D03*
X1930000Y160000D02*
D03*
Y100000D02*
D03*
X1990000Y120000D02*
D03*
X1930000Y140000D02*
D03*
X695000Y627000D02*
D03*
X705000Y637000D02*
D03*
X715000Y627000D02*
D03*
X1990000Y80000D02*
D03*
X2030000Y60000D02*
D03*
X1970000Y80000D02*
D03*
X1890000Y60000D02*
D03*
X2010000Y160000D02*
D03*
X1970000D02*
D03*
X1950000Y120000D02*
D03*
X705000Y647000D02*
D03*
X1930000Y40000D02*
D03*
X1990000D02*
D03*
X1890000Y80000D02*
D03*
X655000Y599000D02*
D03*
X667000Y611000D02*
D03*
X1990000Y160000D02*
D03*
X1910000Y120000D02*
D03*
X1890000Y160000D02*
D03*
X1990000Y100000D02*
D03*
X2010000Y40000D02*
D03*
X1950000Y80000D02*
D03*
X655000Y611000D02*
D03*
X2010000Y140000D02*
D03*
X1970000Y100000D02*
D03*
X1990000Y140000D02*
D03*
X695000Y637000D02*
D03*
X2010000Y60000D02*
D03*
X1910000Y80000D02*
D03*
X1930000Y60000D02*
D03*
X2030000Y160000D02*
D03*
X1950000D02*
D03*
X1910000Y100000D02*
D03*
X1970000Y120000D02*
D03*
X715000Y637000D02*
D03*
X1910000Y60000D02*
D03*
X1950000D02*
D03*
X1970000D02*
D03*
X1910000Y140000D02*
D03*
X705000Y627000D02*
D03*
X1950000Y40000D02*
D03*
X1930000Y80000D02*
D03*
X667000Y599000D02*
D03*
X1890000Y120000D02*
D03*
X1910000Y160000D02*
D03*
X1950000Y140000D02*
D03*
Y100000D02*
D03*
X1930000Y120000D02*
D03*
X715000Y647000D02*
D03*
X695000D02*
D03*
X1970000Y40000D02*
D03*
X1910000D02*
D03*
X2030000D02*
D03*
X2030000Y140000D02*
D03*
X1970000D02*
D03*
X1890000Y40000D02*
D03*
X1990000Y60000D02*
D03*
X278900Y645000D02*
D03*
X349000Y626483D02*
D03*
X1858000Y560000D02*
D03*
X1817000Y548000D02*
D03*
X189410Y352250D02*
D03*
X1267500Y277500D02*
D03*
X1247500D02*
D03*
Y297500D02*
D03*
X1267500D02*
D03*
X1240000Y190000D02*
D03*
X1260000D02*
D03*
X1240000Y150000D02*
D03*
X1220000Y130000D02*
D03*
X1260000Y170000D02*
D03*
X1240000D02*
D03*
X1260000Y150000D02*
D03*
X1240000Y130000D02*
D03*
X1260000Y210000D02*
D03*
X1280000D02*
D03*
X1320000Y230000D02*
D03*
X1300000Y210000D02*
D03*
Y230000D02*
D03*
X1320000Y210000D02*
D03*
X1260000Y130000D02*
D03*
X1320000Y190000D02*
D03*
X1300000Y130000D02*
D03*
X1280000D02*
D03*
X1320000D02*
D03*
X1280000Y170000D02*
D03*
X1320000D02*
D03*
X1280000Y150000D02*
D03*
X1300000D02*
D03*
X1320000D02*
D03*
X1300000Y170000D02*
D03*
X1280000Y190000D02*
D03*
X1300000D02*
D03*
X1280000Y110000D02*
D03*
Y90000D02*
D03*
X1240000Y110000D02*
D03*
X1220000Y90000D02*
D03*
X1260000Y110000D02*
D03*
X1240000Y90000D02*
D03*
X1260000D02*
D03*
X1300000Y110000D02*
D03*
X1220000D02*
D03*
X1300000Y90000D02*
D03*
X1260000Y70000D02*
D03*
X1240000D02*
D03*
X1280000D02*
D03*
X1300000D02*
D03*
X1220000Y50000D02*
D03*
X1240000D02*
D03*
X1300000D02*
D03*
X1280000D02*
D03*
X1260000D02*
D03*
X1220000Y70000D02*
D03*
X1320000Y50000D02*
D03*
X1180000Y70000D02*
D03*
X1200000D02*
D03*
X1180000Y50000D02*
D03*
X1200000D02*
D03*
X1320000Y110000D02*
D03*
X1320000Y70000D02*
D03*
Y90000D02*
D03*
X755000Y599000D02*
D03*
X743000D02*
D03*
X485000Y517500D02*
D03*
X755000Y611000D02*
D03*
X743000D02*
D03*
X472500Y517500D02*
D03*
Y530000D02*
D03*
X294500Y586483D02*
D03*
X342500Y657500D02*
D03*
X357258Y501068D02*
D03*
X120000Y485000D02*
D03*
Y515000D02*
D03*
X240000Y115000D02*
D03*
Y125000D02*
D03*
X231000Y178000D02*
D03*
X250000Y115000D02*
D03*
X430000Y315000D02*
D03*
Y225000D02*
D03*
X420000Y315000D02*
D03*
Y225000D02*
D03*
X410000D02*
D03*
X405000Y60000D02*
D03*
Y50000D02*
D03*
X410000Y315000D02*
D03*
X261500Y209500D02*
D03*
X250000Y125000D02*
D03*
X195000Y628000D02*
D03*
X158000Y397000D02*
D03*
X41060Y495000D02*
D03*
X194000Y592500D02*
D03*
X282000Y464000D02*
D03*
X382000Y472000D02*
D03*
X355956Y557483D02*
D03*
X485000Y530000D02*
D03*
X251000Y434000D02*
D03*
X257000Y395500D02*
D03*
X235000Y434000D02*
D03*
X257000Y420000D02*
D03*
X177500Y797500D02*
D03*
X139000Y354000D02*
D03*
X313000Y201750D02*
D03*
X177500Y657500D02*
D03*
M02*
