G04*
G04 #@! TF.GenerationSoftware,Altium Limited,Altium Designer,24.1.2 (44)*
G04*
G04 Layer_Color=16711935*
%FSLAX44Y44*%
%MOMM*%
G71*
G04*
G04 #@! TF.SameCoordinates,B8ECF972-9BC3-4E3D-8DB6-831ADBB15DBB*
G04*
G04*
G04 #@! TF.FilePolarity,Negative*
G04*
G01*
G75*
%ADD54R,1.8080X1.8080*%
%ADD61C,1.6580*%
%ADD62R,1.6580X1.6580*%
%ADD63C,2.6080*%
%ADD64C,5.8080*%
%ADD65R,2.4580X2.4580*%
%ADD66C,2.4580*%
%ADD67C,2.3830*%
%ADD68C,2.2330*%
%ADD69R,2.2330X2.2330*%
%ADD70R,1.8080X1.8080*%
%ADD71C,1.8080*%
%ADD72C,1.7260*%
%ADD73C,2.5880*%
%ADD74C,1.9760*%
%ADD75R,1.9760X1.9760*%
%ADD76R,1.7260X1.7260*%
%ADD77C,3.3580*%
%ADD78C,0.3500*%
%ADD79C,0.5000*%
%ADD80C,1.5080*%
D54*
X70000Y412500D02*
D03*
D61*
X1997300Y669900D02*
D03*
X1946500D02*
D03*
Y746100D02*
D03*
D62*
X2022700D02*
D03*
D63*
X1623000Y715000D02*
D03*
Y190000D02*
D03*
X1420000D02*
D03*
Y715000D02*
D03*
D64*
X100000Y700000D02*
D03*
X1250000D02*
D03*
X1750000Y200000D02*
D03*
Y700000D02*
D03*
D65*
X100000Y110800D02*
D03*
D66*
Y60000D02*
D03*
D67*
X2023000Y100000D02*
D03*
X1190000D02*
D03*
D68*
X1990800Y352500D02*
D03*
X1940000D02*
D03*
X1838400D02*
D03*
X1988300Y235000D02*
D03*
X1937500D02*
D03*
X1835900D02*
D03*
D69*
X1813000Y352500D02*
D03*
X1810500Y235000D02*
D03*
D70*
X2070000Y390000D02*
D03*
X40000Y680000D02*
D03*
Y600000D02*
D03*
Y650000D02*
D03*
D71*
X2070000Y410000D02*
D03*
X40000Y700000D02*
D03*
X50000Y412500D02*
D03*
X40000Y580000D02*
D03*
Y630000D02*
D03*
D72*
X547700Y600350D02*
D03*
X598500D02*
D03*
X496900D02*
D03*
D73*
X974800Y387900D02*
D03*
X670000Y159300D02*
D03*
Y362500D02*
D03*
X974800Y133900D02*
D03*
D74*
X358900Y386000D02*
D03*
X333500D02*
D03*
D75*
X308100D02*
D03*
D76*
X471500Y600350D02*
D03*
D77*
X65900Y359500D02*
D03*
X25900D02*
D03*
Y260500D02*
D03*
X65900D02*
D03*
D78*
X1930000Y610250D02*
D03*
Y600250D02*
D03*
X835750Y661000D02*
D03*
X814000Y660750D02*
D03*
X341000Y617250D02*
D03*
X368500Y808500D02*
D03*
X383750Y801750D02*
D03*
X349000Y794250D02*
D03*
X270000Y180500D02*
D03*
X262250Y188000D02*
D03*
X255500Y181250D02*
D03*
X283000Y187500D02*
D03*
X202250Y500250D02*
D03*
X208250Y588250D02*
D03*
X226500Y628000D02*
D03*
X167000Y647000D02*
D03*
X360250Y699750D02*
D03*
X348250Y701250D02*
D03*
X200000Y383749D02*
D03*
X297500Y673456D02*
D03*
X370000Y598509D02*
D03*
X232750Y537750D02*
D03*
X265500Y445500D02*
D03*
X300106Y438106D02*
D03*
X202000Y454000D02*
D03*
X281000Y431000D02*
D03*
X216500Y624000D02*
D03*
X209000Y617000D02*
D03*
X335000Y699000D02*
D03*
X227000Y705000D02*
D03*
X215000Y712000D02*
D03*
X183000Y533000D02*
D03*
X192000Y541000D02*
D03*
X164000Y456000D02*
D03*
X204000Y513535D02*
D03*
X399000Y580000D02*
D03*
Y600000D02*
D03*
X378000Y585000D02*
D03*
X164000Y470000D02*
D03*
X178000Y389000D02*
D03*
X149000Y515000D02*
D03*
X327000Y560000D02*
D03*
X195000Y577500D02*
D03*
X379500Y129750D02*
D03*
X373250Y206125D02*
D03*
X825000Y661000D02*
D03*
X2054500Y642000D02*
D03*
Y602500D02*
D03*
X2022000Y569000D02*
D03*
X2012000Y579000D02*
D03*
X565000Y641000D02*
D03*
X2031000Y530000D02*
D03*
X2012000Y599000D02*
D03*
X2013000Y512000D02*
D03*
X2012000Y589000D02*
D03*
X2022000Y579000D02*
D03*
X822000Y572000D02*
D03*
X2022000Y530000D02*
D03*
X2012000Y559000D02*
D03*
X2022000D02*
D03*
X2012000Y569000D02*
D03*
X868000Y572000D02*
D03*
X2022000Y512000D02*
D03*
Y589000D02*
D03*
X2013000Y530000D02*
D03*
X2040000D02*
D03*
X2031000Y512000D02*
D03*
X2040000Y521000D02*
D03*
Y634000D02*
D03*
X2022000Y599000D02*
D03*
X2031000Y521000D02*
D03*
X2013000D02*
D03*
X2011350Y642500D02*
D03*
X1180000Y249500D02*
D03*
X2022000Y521000D02*
D03*
X2040000Y512000D02*
D03*
X1930000Y560250D02*
D03*
Y550250D02*
D03*
X1973850Y599000D02*
D03*
X1983850D02*
D03*
X1973850Y589000D02*
D03*
Y579000D02*
D03*
X1983850Y569000D02*
D03*
X1973850D02*
D03*
X1983850Y559000D02*
D03*
X1973850D02*
D03*
X211000Y577500D02*
D03*
X343000Y187000D02*
D03*
X1983850Y589000D02*
D03*
Y579000D02*
D03*
X1180000Y332500D02*
D03*
X226500Y410000D02*
D03*
X350000Y40000D02*
D03*
Y30000D02*
D03*
X360000D02*
D03*
Y40000D02*
D03*
X1920000Y560250D02*
D03*
Y550250D02*
D03*
Y570250D02*
D03*
Y590250D02*
D03*
X1930000Y570250D02*
D03*
Y590250D02*
D03*
X1920000Y580250D02*
D03*
X1930000D02*
D03*
X1920000Y600250D02*
D03*
Y610250D02*
D03*
X806000Y572000D02*
D03*
X830000Y555000D02*
D03*
X312000Y96000D02*
D03*
Y80000D02*
D03*
Y128000D02*
D03*
Y120000D02*
D03*
Y112000D02*
D03*
Y104000D02*
D03*
Y72000D02*
D03*
Y88000D02*
D03*
X360000Y125000D02*
D03*
X368000D02*
D03*
X406500Y176000D02*
D03*
X420000Y165000D02*
D03*
Y176000D02*
D03*
Y186625D02*
D03*
X104000Y166250D02*
D03*
X156000Y166250D02*
D03*
X209500Y158500D02*
D03*
X503000Y641000D02*
D03*
X184000Y500000D02*
D03*
X226500Y385000D02*
D03*
X194000Y505000D02*
D03*
X189076Y387000D02*
D03*
X108760Y288250D02*
D03*
X80000Y206500D02*
D03*
D79*
X1400000Y610000D02*
D03*
Y590000D02*
D03*
Y570000D02*
D03*
Y490000D02*
D03*
Y470000D02*
D03*
Y450000D02*
D03*
Y430000D02*
D03*
Y410000D02*
D03*
Y390000D02*
D03*
Y370000D02*
D03*
Y350000D02*
D03*
Y330000D02*
D03*
Y310000D02*
D03*
Y290000D02*
D03*
Y270000D02*
D03*
Y650000D02*
D03*
Y630000D02*
D03*
X1630000Y610000D02*
D03*
Y590000D02*
D03*
Y570000D02*
D03*
Y490000D02*
D03*
Y470000D02*
D03*
Y450000D02*
D03*
Y430000D02*
D03*
Y410000D02*
D03*
Y390000D02*
D03*
Y370000D02*
D03*
Y350000D02*
D03*
Y330000D02*
D03*
Y310000D02*
D03*
Y290000D02*
D03*
Y270000D02*
D03*
Y650000D02*
D03*
Y630000D02*
D03*
X1530000D02*
D03*
X1500000D02*
D03*
X1530000Y650000D02*
D03*
X1500000D02*
D03*
X1530000Y270000D02*
D03*
X1500000D02*
D03*
X1530000Y290000D02*
D03*
X1500000D02*
D03*
X1530000Y310000D02*
D03*
X1500000D02*
D03*
X1530000Y330000D02*
D03*
X1500000D02*
D03*
X1530000Y350000D02*
D03*
X1500000D02*
D03*
X1530000Y370000D02*
D03*
X1500000D02*
D03*
X1530000Y390000D02*
D03*
X1500000D02*
D03*
X1530000Y410000D02*
D03*
X1500000D02*
D03*
X1530000Y430000D02*
D03*
X1500000D02*
D03*
X1530000Y450000D02*
D03*
X1500000D02*
D03*
X1530000Y470000D02*
D03*
X1500000D02*
D03*
X1530000Y490000D02*
D03*
X1500000D02*
D03*
Y570000D02*
D03*
X1530000D02*
D03*
Y590000D02*
D03*
X1500000D02*
D03*
X1530000Y610000D02*
D03*
X1500000D02*
D03*
X313000Y213000D02*
D03*
X328500Y809750D02*
D03*
X297500Y797500D02*
D03*
X413000Y774500D02*
D03*
X278900Y755000D02*
D03*
X297500Y617017D02*
D03*
X310000Y527000D02*
D03*
X313000Y540750D02*
D03*
X257750Y227500D02*
D03*
X254000Y474438D02*
D03*
X402500Y638949D02*
D03*
X151000Y604000D02*
D03*
X390000Y639000D02*
D03*
X297500Y657500D02*
D03*
X222500D02*
D03*
X278900D02*
D03*
X219750Y804750D02*
D03*
X487524Y682033D02*
D03*
X1272300Y370000D02*
D03*
X398900Y657500D02*
D03*
X1890000Y140000D02*
D03*
Y100000D02*
D03*
X1930000Y160000D02*
D03*
Y100000D02*
D03*
X1990000Y120000D02*
D03*
X1930000Y140000D02*
D03*
X695000Y627000D02*
D03*
X705000Y637000D02*
D03*
X715000Y627000D02*
D03*
X1990000Y80000D02*
D03*
X2030000Y60000D02*
D03*
X1970000Y80000D02*
D03*
X1890000Y60000D02*
D03*
X2010000Y160000D02*
D03*
X1970000D02*
D03*
X1950000Y120000D02*
D03*
X705000Y647000D02*
D03*
X1930000Y40000D02*
D03*
X1990000D02*
D03*
X1890000Y80000D02*
D03*
X655000Y599000D02*
D03*
X667000Y611000D02*
D03*
X1990000Y160000D02*
D03*
X1910000Y120000D02*
D03*
X1890000Y160000D02*
D03*
X1990000Y100000D02*
D03*
X2010000Y40000D02*
D03*
X1950000Y80000D02*
D03*
X655000Y611000D02*
D03*
X2010000Y140000D02*
D03*
X1970000Y100000D02*
D03*
X1990000Y140000D02*
D03*
X695000Y637000D02*
D03*
X2010000Y60000D02*
D03*
X1910000Y80000D02*
D03*
X1930000Y60000D02*
D03*
X2030000Y160000D02*
D03*
X1950000D02*
D03*
X1910000Y100000D02*
D03*
X1970000Y120000D02*
D03*
X715000Y637000D02*
D03*
X1910000Y60000D02*
D03*
X1950000D02*
D03*
X1970000D02*
D03*
X1910000Y140000D02*
D03*
X705000Y627000D02*
D03*
X1950000Y40000D02*
D03*
X1930000Y80000D02*
D03*
X667000Y599000D02*
D03*
X1890000Y120000D02*
D03*
X1910000Y160000D02*
D03*
X1950000Y140000D02*
D03*
Y100000D02*
D03*
X1930000Y120000D02*
D03*
X715000Y647000D02*
D03*
X695000D02*
D03*
X1970000Y40000D02*
D03*
X1910000D02*
D03*
X2030000D02*
D03*
X2030000Y140000D02*
D03*
X1970000D02*
D03*
X1890000Y40000D02*
D03*
X1990000Y60000D02*
D03*
X278900Y645000D02*
D03*
X349000Y626483D02*
D03*
X1858000Y560000D02*
D03*
X1817000Y548000D02*
D03*
X189410Y352250D02*
D03*
X1267500Y277500D02*
D03*
X1247500D02*
D03*
Y297500D02*
D03*
X1267500D02*
D03*
X1240000Y190000D02*
D03*
X1260000D02*
D03*
X1240000Y150000D02*
D03*
X1220000Y130000D02*
D03*
X1260000Y170000D02*
D03*
X1240000D02*
D03*
X1260000Y150000D02*
D03*
X1240000Y130000D02*
D03*
X1260000Y210000D02*
D03*
X1280000D02*
D03*
X1320000Y230000D02*
D03*
X1300000Y210000D02*
D03*
Y230000D02*
D03*
X1320000Y210000D02*
D03*
X1260000Y130000D02*
D03*
X1320000Y190000D02*
D03*
X1300000Y130000D02*
D03*
X1280000D02*
D03*
X1320000D02*
D03*
X1280000Y170000D02*
D03*
X1320000D02*
D03*
X1280000Y150000D02*
D03*
X1300000D02*
D03*
X1320000D02*
D03*
X1300000Y170000D02*
D03*
X1280000Y190000D02*
D03*
X1300000D02*
D03*
X1280000Y110000D02*
D03*
Y90000D02*
D03*
X1240000Y110000D02*
D03*
X1220000Y90000D02*
D03*
X1260000Y110000D02*
D03*
X1240000Y90000D02*
D03*
X1260000D02*
D03*
X1300000Y110000D02*
D03*
X1220000D02*
D03*
X1300000Y90000D02*
D03*
X1260000Y70000D02*
D03*
X1240000D02*
D03*
X1280000D02*
D03*
X1300000D02*
D03*
X1220000Y50000D02*
D03*
X1240000D02*
D03*
X1300000D02*
D03*
X1280000D02*
D03*
X1260000D02*
D03*
X1220000Y70000D02*
D03*
X1320000Y50000D02*
D03*
X1180000Y70000D02*
D03*
X1200000D02*
D03*
X1180000Y50000D02*
D03*
X1200000D02*
D03*
X1320000Y110000D02*
D03*
X1320000Y70000D02*
D03*
Y90000D02*
D03*
X755000Y599000D02*
D03*
X743000D02*
D03*
X485000Y517500D02*
D03*
X755000Y611000D02*
D03*
X743000D02*
D03*
X472500Y517500D02*
D03*
Y530000D02*
D03*
X294500Y586483D02*
D03*
X342500Y657500D02*
D03*
X357258Y501068D02*
D03*
X120000Y485000D02*
D03*
Y515000D02*
D03*
X240000Y115000D02*
D03*
Y125000D02*
D03*
X231000Y178000D02*
D03*
X250000Y115000D02*
D03*
X430000Y315000D02*
D03*
Y225000D02*
D03*
X420000Y315000D02*
D03*
Y225000D02*
D03*
X410000D02*
D03*
X405000Y60000D02*
D03*
Y50000D02*
D03*
X410000Y315000D02*
D03*
X261500Y209500D02*
D03*
X250000Y125000D02*
D03*
X195000Y628000D02*
D03*
X158000Y397000D02*
D03*
X41060Y495000D02*
D03*
X194000Y592500D02*
D03*
X282000Y464000D02*
D03*
X355956Y557483D02*
D03*
X485000Y530000D02*
D03*
X251000Y434000D02*
D03*
X257000Y395500D02*
D03*
X235000Y434000D02*
D03*
X257000Y420000D02*
D03*
X177500Y797500D02*
D03*
X139000Y354000D02*
D03*
X313000Y201750D02*
D03*
X177500Y657500D02*
D03*
D80*
X382000Y472000D02*
D03*
M02*
