G04*
G04 #@! TF.GenerationSoftware,Altium Limited,Altium Designer,24.1.2 (44)*
G04*
G04 Layer_Physical_Order=2*
G04 Layer_Color=36540*
%FSLAX44Y44*%
%MOMM*%
G71*
G04*
G04 #@! TF.SameCoordinates,B8ECF972-9BC3-4E3D-8DB6-831ADBB15DBB*
G04*
G04*
G04 #@! TF.FilePolarity,Positive*
G04*
G01*
G75*
%ADD16C,0.1500*%
%ADD113C,0.5000*%
%ADD114C,1.1500*%
%ADD116C,2.1000*%
%ADD118R,1.9500X1.9500*%
%ADD120C,1.8750*%
%ADD121C,1.7250*%
%ADD123R,1.3000X1.3000*%
%ADD125C,1.2180*%
%ADD126C,2.0800*%
%ADD127C,1.4680*%
%ADD129R,1.2180X1.2180*%
%ADD131C,0.7500*%
%ADD132C,1.0000*%
G36*
X2080000Y427497D02*
X2078730Y426949D01*
X2075542Y428270D01*
X2071871Y429000D01*
X2068129D01*
X2064458Y428270D01*
X2061000Y426838D01*
X2057888Y424758D01*
X2055242Y422112D01*
X2053162Y419000D01*
X2051730Y415542D01*
X2051000Y411871D01*
Y408129D01*
Y371000D01*
X2080000D01*
Y25400D01*
X790000D01*
Y520000D01*
X550000D01*
Y592591D01*
X550823Y592811D01*
X552667Y593876D01*
X554174Y595383D01*
X555239Y597227D01*
X555790Y599285D01*
Y601415D01*
X555239Y603473D01*
X554174Y605317D01*
X552667Y606824D01*
X550823Y607889D01*
X550000Y608109D01*
Y740000D01*
X50000D01*
Y810000D01*
X362512D01*
X362750Y809644D01*
Y807356D01*
X363625Y805243D01*
X365243Y803625D01*
X367356Y802750D01*
X369644D01*
X371757Y803625D01*
X373375Y805243D01*
X374250Y807356D01*
Y809644D01*
X374488Y810000D01*
X2080000D01*
Y427497D01*
D02*
G37*
G36*
X510000Y480000D02*
X750000D01*
Y20000D01*
X20000D01*
Y243427D01*
X22000Y244707D01*
X24299Y244250D01*
X27500D01*
X30640Y244874D01*
X33597Y246099D01*
X36259Y247878D01*
X38522Y250141D01*
X40300Y252803D01*
X41525Y255760D01*
X42150Y258899D01*
Y262101D01*
X41525Y265240D01*
X40300Y268197D01*
X38522Y270859D01*
X36259Y273122D01*
X33597Y274900D01*
X30640Y276126D01*
X27500Y276750D01*
X24299D01*
X22000Y276293D01*
X20000Y277573D01*
Y342427D01*
X22000Y343707D01*
X24299Y343250D01*
X27500D01*
X30640Y343875D01*
X33597Y345099D01*
X36259Y346878D01*
X38522Y349141D01*
X40300Y351803D01*
X41525Y354760D01*
X42150Y357900D01*
Y361101D01*
X41525Y364240D01*
X40300Y367197D01*
X38522Y369859D01*
X36259Y372122D01*
X33597Y373900D01*
X30640Y375126D01*
X27500Y375750D01*
X24299D01*
X22000Y375293D01*
X20000Y376573D01*
Y710000D01*
X36752D01*
X37015Y708000D01*
X36719Y707921D01*
X34781Y706802D01*
X33198Y705219D01*
X32079Y703281D01*
X31500Y701119D01*
Y698881D01*
X32079Y696719D01*
X33198Y694781D01*
X34781Y693198D01*
X36719Y692079D01*
X38881Y691500D01*
X41119D01*
X43281Y692079D01*
X45219Y693198D01*
X46802Y694781D01*
X47921Y696719D01*
X48500Y698881D01*
Y701119D01*
X47921Y703281D01*
X46802Y705219D01*
X45219Y706802D01*
X43281Y707921D01*
X42985Y708000D01*
X43248Y710000D01*
X71581D01*
X72757Y708382D01*
X72202Y706674D01*
X71500Y702243D01*
Y697757D01*
X72202Y693326D01*
X73588Y689060D01*
X75625Y685063D01*
X78261Y681433D01*
X81433Y678261D01*
X85063Y675625D01*
X89060Y673588D01*
X93326Y672202D01*
X97757Y671500D01*
X102243D01*
X106674Y672202D01*
X110940Y673588D01*
X114937Y675625D01*
X118567Y678261D01*
X121739Y681433D01*
X124375Y685063D01*
X126412Y689060D01*
X127798Y693326D01*
X128500Y697757D01*
Y702243D01*
X127798Y706674D01*
X127243Y708382D01*
X128419Y710000D01*
X209605D01*
X210125Y708743D01*
X211743Y707125D01*
X213856Y706250D01*
X216144D01*
X218257Y707125D01*
X219623Y708491D01*
X219965Y708598D01*
X220101Y708596D01*
X221005Y707592D01*
X221366Y706423D01*
X221250Y706144D01*
Y703856D01*
X222125Y701743D01*
X223743Y700125D01*
X225856Y699250D01*
X228144D01*
X230257Y700125D01*
X231875Y701743D01*
X232750Y703856D01*
Y706144D01*
X231981Y708000D01*
X232404Y709107D01*
X232960Y710000D01*
X510000D01*
Y480000D01*
D02*
G37*
%LPC*%
G36*
X384894Y807500D02*
X382606D01*
X380493Y806625D01*
X378875Y805007D01*
X378000Y802894D01*
Y800606D01*
X378875Y798493D01*
X380493Y796875D01*
X382606Y796000D01*
X384894D01*
X387007Y796875D01*
X388625Y798493D01*
X389500Y800606D01*
Y802894D01*
X388625Y805007D01*
X387007Y806625D01*
X384894Y807500D01*
D02*
G37*
G36*
X298422Y804500D02*
X296578D01*
X294798Y804023D01*
X293202Y803101D01*
X291899Y801798D01*
X290977Y800202D01*
X290500Y798422D01*
Y796578D01*
X290977Y794798D01*
X291899Y793202D01*
X293202Y791899D01*
X294798Y790977D01*
X296578Y790500D01*
X298422D01*
X300202Y790977D01*
X301798Y791899D01*
X303101Y793202D01*
X304023Y794798D01*
X304500Y796578D01*
Y798422D01*
X304023Y800202D01*
X303101Y801798D01*
X301798Y803101D01*
X300202Y804023D01*
X298422Y804500D01*
D02*
G37*
G36*
X178422D02*
X176578D01*
X174798Y804023D01*
X173202Y803101D01*
X171899Y801798D01*
X170977Y800202D01*
X170500Y798422D01*
Y796578D01*
X170977Y794798D01*
X171899Y793202D01*
X173202Y791899D01*
X174798Y790977D01*
X176578Y790500D01*
X178422D01*
X180202Y790977D01*
X181798Y791899D01*
X183101Y793202D01*
X184023Y794798D01*
X184500Y796578D01*
Y798422D01*
X184023Y800202D01*
X183101Y801798D01*
X181798Y803101D01*
X180202Y804023D01*
X178422Y804500D01*
D02*
G37*
G36*
X350144Y800000D02*
X347856D01*
X345743Y799125D01*
X344125Y797507D01*
X343250Y795394D01*
Y793106D01*
X344125Y790993D01*
X345743Y789375D01*
X347856Y788500D01*
X350144D01*
X352257Y789375D01*
X353875Y790993D01*
X354750Y793106D01*
Y795394D01*
X353875Y797507D01*
X352257Y799125D01*
X350144Y800000D01*
D02*
G37*
G36*
X2024200Y754239D02*
Y747600D01*
X2030839D01*
X2030388Y749284D01*
X2029302Y751166D01*
X2027766Y752702D01*
X2025884Y753788D01*
X2024200Y754239D01*
D02*
G37*
G36*
X2021200Y754239D02*
X2019516Y753788D01*
X2017634Y752702D01*
X2016098Y751166D01*
X2015012Y749284D01*
X2014561Y747600D01*
X2021200D01*
Y754239D01*
D02*
G37*
G36*
X1947520Y753850D02*
X1945480D01*
X1943509Y753322D01*
X1941741Y752301D01*
X1940298Y750859D01*
X1939278Y749091D01*
X1938750Y747120D01*
Y745080D01*
X1939278Y743109D01*
X1940298Y741341D01*
X1941741Y739899D01*
X1943509Y738878D01*
X1945480Y738350D01*
X1947520D01*
X1949491Y738878D01*
X1951259Y739899D01*
X1952702Y741341D01*
X1953722Y743109D01*
X1954250Y745080D01*
Y747120D01*
X1953722Y749091D01*
X1952702Y750859D01*
X1951259Y752301D01*
X1949491Y753322D01*
X1947520Y753850D01*
D02*
G37*
G36*
X2021200Y744600D02*
X2014561D01*
X2015012Y742916D01*
X2016098Y741034D01*
X2017634Y739498D01*
X2019516Y738412D01*
X2021200Y737961D01*
Y744600D01*
D02*
G37*
G36*
X2030839D02*
X2024200D01*
Y737961D01*
X2025884Y738412D01*
X2027766Y739498D01*
X2029302Y741034D01*
X2030388Y742916D01*
X2030839Y744600D01*
D02*
G37*
G36*
X1421711Y728000D02*
X1421500D01*
Y716500D01*
X1433000D01*
Y716712D01*
X1432114Y720018D01*
X1430403Y722982D01*
X1427982Y725403D01*
X1425018Y727114D01*
X1421711Y728000D01*
D02*
G37*
G36*
X1418500D02*
X1418289D01*
X1414982Y727114D01*
X1412018Y725403D01*
X1409597Y722982D01*
X1407886Y720018D01*
X1407000Y716712D01*
Y716500D01*
X1418500D01*
Y728000D01*
D02*
G37*
G36*
X1624646Y727500D02*
X1621354D01*
X1618175Y726648D01*
X1615325Y725003D01*
X1612997Y722675D01*
X1611352Y719825D01*
X1610500Y716646D01*
Y713354D01*
X1611352Y710175D01*
X1612997Y707325D01*
X1615325Y704997D01*
X1618175Y703352D01*
X1621354Y702500D01*
X1624646D01*
X1627825Y703352D01*
X1630675Y704997D01*
X1633002Y707325D01*
X1634648Y710175D01*
X1635500Y713354D01*
Y716646D01*
X1634648Y719825D01*
X1633002Y722675D01*
X1630675Y725003D01*
X1627825Y726648D01*
X1624646Y727500D01*
D02*
G37*
G36*
X1433000Y713500D02*
X1421500D01*
Y702000D01*
X1421711D01*
X1425018Y702886D01*
X1427982Y704597D01*
X1430403Y707018D01*
X1432114Y709982D01*
X1433000Y713288D01*
Y713500D01*
D02*
G37*
G36*
X1418500D02*
X1407000D01*
Y713288D01*
X1407886Y709982D01*
X1409597Y707018D01*
X1412018Y704597D01*
X1414982Y702886D01*
X1418289Y702000D01*
X1418500D01*
Y713500D01*
D02*
G37*
G36*
X1752243Y728500D02*
X1747757D01*
X1743326Y727798D01*
X1739060Y726412D01*
X1735063Y724375D01*
X1731434Y721739D01*
X1728261Y718567D01*
X1725625Y714937D01*
X1723588Y710940D01*
X1722202Y706674D01*
X1721500Y702243D01*
Y697757D01*
X1722202Y693326D01*
X1723588Y689060D01*
X1725625Y685063D01*
X1728261Y681433D01*
X1731434Y678261D01*
X1735063Y675625D01*
X1739060Y673588D01*
X1743326Y672202D01*
X1747757Y671500D01*
X1752243D01*
X1756674Y672202D01*
X1760940Y673588D01*
X1764937Y675625D01*
X1768566Y678261D01*
X1771739Y681433D01*
X1774375Y685063D01*
X1776412Y689060D01*
X1777798Y693326D01*
X1778500Y697757D01*
Y702243D01*
X1777798Y706674D01*
X1776412Y710940D01*
X1774375Y714937D01*
X1771739Y718567D01*
X1768566Y721739D01*
X1764937Y724375D01*
X1760940Y726412D01*
X1756674Y727798D01*
X1752243Y728500D01*
D02*
G37*
G36*
X1252243D02*
X1247757D01*
X1243326Y727798D01*
X1239060Y726412D01*
X1235063Y724375D01*
X1231433Y721739D01*
X1228261Y718567D01*
X1225625Y714937D01*
X1223588Y710940D01*
X1222202Y706674D01*
X1221500Y702243D01*
Y697757D01*
X1222202Y693326D01*
X1223588Y689060D01*
X1225625Y685063D01*
X1228261Y681433D01*
X1231433Y678261D01*
X1235063Y675625D01*
X1239060Y673588D01*
X1243326Y672202D01*
X1247757Y671500D01*
X1252243D01*
X1256674Y672202D01*
X1260940Y673588D01*
X1264937Y675625D01*
X1268567Y678261D01*
X1271739Y681433D01*
X1274375Y685063D01*
X1276412Y689060D01*
X1277798Y693326D01*
X1278500Y697757D01*
Y702243D01*
X1277798Y706674D01*
X1276412Y710940D01*
X1274375Y714937D01*
X1271739Y718567D01*
X1268567Y721739D01*
X1264937Y724375D01*
X1260940Y726412D01*
X1256674Y727798D01*
X1252243Y728500D01*
D02*
G37*
G36*
X836894Y666750D02*
X834606D01*
X832493Y665875D01*
X831140Y664521D01*
X830375Y664362D01*
X829610Y664521D01*
X828257Y665875D01*
X826144Y666750D01*
X823856D01*
X821743Y665875D01*
X820125Y664257D01*
X820083Y664155D01*
X818714Y664168D01*
X817257Y665625D01*
X815144Y666500D01*
X812856D01*
X810743Y665625D01*
X809125Y664007D01*
X808250Y661894D01*
Y659606D01*
X809125Y657493D01*
X810743Y655875D01*
X812856Y655000D01*
X815144D01*
X817257Y655875D01*
X818875Y657493D01*
X818917Y657595D01*
X820286Y657582D01*
X821743Y656125D01*
X823856Y655250D01*
X826144D01*
X828257Y656125D01*
X829610Y657478D01*
X830375Y657638D01*
X831140Y657478D01*
X832493Y656125D01*
X834606Y655250D01*
X836894D01*
X839007Y656125D01*
X840625Y657743D01*
X841500Y659856D01*
Y662144D01*
X840625Y664257D01*
X839007Y665875D01*
X836894Y666750D01*
D02*
G37*
G36*
X1998320Y677650D02*
X1996280D01*
X1994309Y677122D01*
X1992541Y676102D01*
X1991098Y674659D01*
X1990078Y672891D01*
X1989550Y670920D01*
Y668880D01*
X1990078Y666909D01*
X1991098Y665141D01*
X1992541Y663699D01*
X1994309Y662678D01*
X1996280Y662150D01*
X1998320D01*
X2000291Y662678D01*
X2002059Y663699D01*
X2003501Y665141D01*
X2004522Y666909D01*
X2005050Y668880D01*
Y670920D01*
X2004522Y672891D01*
X2003501Y674659D01*
X2002059Y676102D01*
X2000291Y677122D01*
X1998320Y677650D01*
D02*
G37*
G36*
X1947520D02*
X1945480D01*
X1943509Y677122D01*
X1941741Y676102D01*
X1940298Y674659D01*
X1939278Y672891D01*
X1938750Y670920D01*
Y668880D01*
X1939278Y666909D01*
X1940298Y665141D01*
X1941741Y663699D01*
X1943509Y662678D01*
X1945480Y662150D01*
X1947520D01*
X1949491Y662678D01*
X1951259Y663699D01*
X1952702Y665141D01*
X1953722Y666909D01*
X1954250Y668880D01*
Y670920D01*
X1953722Y672891D01*
X1952702Y674659D01*
X1951259Y676102D01*
X1949491Y677122D01*
X1947520Y677650D01*
D02*
G37*
G36*
X1530922Y657000D02*
X1529078D01*
X1527298Y656523D01*
X1525702Y655601D01*
X1524399Y654298D01*
X1523477Y652702D01*
X1523000Y650922D01*
Y649078D01*
X1523477Y647298D01*
X1524399Y645702D01*
X1525702Y644399D01*
X1527298Y643477D01*
X1529078Y643000D01*
X1530922D01*
X1532702Y643477D01*
X1534298Y644399D01*
X1535601Y645702D01*
X1536523Y647298D01*
X1537000Y649078D01*
Y650922D01*
X1536523Y652702D01*
X1535601Y654298D01*
X1534298Y655601D01*
X1532702Y656523D01*
X1530922Y657000D01*
D02*
G37*
G36*
X1500922D02*
X1499078D01*
X1497298Y656523D01*
X1495702Y655601D01*
X1494399Y654298D01*
X1493477Y652702D01*
X1493000Y650922D01*
Y649078D01*
X1493477Y647298D01*
X1494399Y645702D01*
X1495702Y644399D01*
X1497298Y643477D01*
X1499078Y643000D01*
X1500922D01*
X1502702Y643477D01*
X1504298Y644399D01*
X1505601Y645702D01*
X1506523Y647298D01*
X1507000Y649078D01*
Y650922D01*
X1506523Y652702D01*
X1505601Y654298D01*
X1504298Y655601D01*
X1502702Y656523D01*
X1500922Y657000D01*
D02*
G37*
G36*
X2041144Y639750D02*
X2038856D01*
X2036743Y638875D01*
X2035125Y637257D01*
X2034250Y635144D01*
Y632856D01*
X2035125Y630743D01*
X2036743Y629125D01*
X2038856Y628250D01*
X2041144D01*
X2043257Y629125D01*
X2044875Y630743D01*
X2045750Y632856D01*
Y635144D01*
X2044875Y637257D01*
X2043257Y638875D01*
X2041144Y639750D01*
D02*
G37*
G36*
X1530922Y637000D02*
X1529078D01*
X1527298Y636523D01*
X1525702Y635601D01*
X1524399Y634298D01*
X1523477Y632702D01*
X1523000Y630922D01*
Y629078D01*
X1523477Y627298D01*
X1524399Y625702D01*
X1525702Y624399D01*
X1527298Y623477D01*
X1529078Y623000D01*
X1530922D01*
X1532702Y623477D01*
X1534298Y624399D01*
X1535601Y625702D01*
X1536523Y627298D01*
X1537000Y629078D01*
Y630922D01*
X1536523Y632702D01*
X1535601Y634298D01*
X1534298Y635601D01*
X1532702Y636523D01*
X1530922Y637000D01*
D02*
G37*
G36*
X1500922D02*
X1499078D01*
X1497298Y636523D01*
X1495702Y635601D01*
X1494399Y634298D01*
X1493477Y632702D01*
X1493000Y630922D01*
Y629078D01*
X1493477Y627298D01*
X1494399Y625702D01*
X1495702Y624399D01*
X1497298Y623477D01*
X1499078Y623000D01*
X1500922D01*
X1502702Y623477D01*
X1504298Y624399D01*
X1505601Y625702D01*
X1506523Y627298D01*
X1507000Y629078D01*
Y630922D01*
X1506523Y632702D01*
X1505601Y634298D01*
X1504298Y635601D01*
X1502702Y636523D01*
X1500922Y637000D01*
D02*
G37*
G36*
X755921Y618000D02*
X754078D01*
X752298Y617523D01*
X750702Y616601D01*
X749823Y615722D01*
X749000Y615437D01*
X748177Y615722D01*
X747298Y616601D01*
X745702Y617523D01*
X743922Y618000D01*
X742078D01*
X740298Y617523D01*
X738702Y616601D01*
X737399Y615298D01*
X736477Y613702D01*
X736000Y611922D01*
Y610078D01*
X736477Y608298D01*
X737399Y606702D01*
X738278Y605823D01*
X738563Y605000D01*
X738278Y604177D01*
X737399Y603298D01*
X736477Y601702D01*
X736000Y599922D01*
Y598078D01*
X736477Y596298D01*
X737399Y594702D01*
X738702Y593399D01*
X740298Y592477D01*
X742078Y592000D01*
X743922D01*
X745702Y592477D01*
X747298Y593399D01*
X748177Y594278D01*
X749000Y594563D01*
X749823Y594278D01*
X750702Y593399D01*
X752298Y592477D01*
X754078Y592000D01*
X755921D01*
X757702Y592477D01*
X759298Y593399D01*
X760601Y594702D01*
X761523Y596298D01*
X762000Y598078D01*
Y599922D01*
X761523Y601702D01*
X760601Y603298D01*
X759722Y604177D01*
X759436Y605000D01*
X759722Y605823D01*
X760601Y606702D01*
X761523Y608298D01*
X762000Y610078D01*
Y611922D01*
X761523Y613702D01*
X760601Y615298D01*
X759298Y616601D01*
X757702Y617523D01*
X755921Y618000D01*
D02*
G37*
G36*
X667922D02*
X666078D01*
X664298Y617523D01*
X662702Y616601D01*
X661823Y615722D01*
X661000Y615437D01*
X660177Y615722D01*
X659298Y616601D01*
X657702Y617523D01*
X655922Y618000D01*
X654078D01*
X652298Y617523D01*
X650702Y616601D01*
X649399Y615298D01*
X648477Y613702D01*
X648000Y611922D01*
Y610078D01*
X648477Y608298D01*
X649399Y606702D01*
X650278Y605823D01*
X650563Y605000D01*
X650278Y604177D01*
X649399Y603298D01*
X648477Y601702D01*
X648000Y599922D01*
Y598078D01*
X648477Y596298D01*
X649399Y594702D01*
X650702Y593399D01*
X652298Y592477D01*
X654078Y592000D01*
X655922D01*
X657702Y592477D01*
X659298Y593399D01*
X660177Y594278D01*
X661000Y594563D01*
X661823Y594278D01*
X662702Y593399D01*
X664298Y592477D01*
X666078Y592000D01*
X667922D01*
X669702Y592477D01*
X671298Y593399D01*
X672601Y594702D01*
X673523Y596298D01*
X674000Y598078D01*
Y599922D01*
X673523Y601702D01*
X672601Y603298D01*
X671722Y604177D01*
X671437Y605000D01*
X671722Y605823D01*
X672601Y606702D01*
X673523Y608298D01*
X674000Y610078D01*
Y611922D01*
X673523Y613702D01*
X672601Y615298D01*
X671298Y616601D01*
X669702Y617523D01*
X667922Y618000D01*
D02*
G37*
G36*
X1931144Y616000D02*
X1928856D01*
X1926743Y615125D01*
X1925830Y614211D01*
X1925000Y613600D01*
X1924170Y614211D01*
X1923257Y615125D01*
X1921144Y616000D01*
X1918856D01*
X1916743Y615125D01*
X1915125Y613507D01*
X1914250Y611394D01*
Y609106D01*
X1915125Y606993D01*
X1916039Y606080D01*
X1916650Y605250D01*
X1916039Y604420D01*
X1915125Y603507D01*
X1914250Y601394D01*
Y599106D01*
X1915125Y596993D01*
X1916039Y596080D01*
X1916650Y595250D01*
X1916039Y594420D01*
X1915125Y593507D01*
X1914250Y591394D01*
Y589106D01*
X1915125Y586993D01*
X1916039Y586080D01*
X1916650Y585250D01*
X1916039Y584420D01*
X1915125Y583507D01*
X1914250Y581394D01*
Y579106D01*
X1915125Y576993D01*
X1916039Y576080D01*
X1916650Y575250D01*
X1916039Y574420D01*
X1915125Y573507D01*
X1914250Y571394D01*
Y569106D01*
X1915125Y566993D01*
X1916039Y566080D01*
X1916650Y565250D01*
X1916039Y564420D01*
X1915125Y563507D01*
X1914250Y561394D01*
Y559106D01*
X1915125Y556993D01*
X1916039Y556080D01*
X1916650Y555250D01*
X1916039Y554420D01*
X1915125Y553507D01*
X1914250Y551394D01*
Y549106D01*
X1915125Y546993D01*
X1916743Y545375D01*
X1918856Y544500D01*
X1921144D01*
X1923257Y545375D01*
X1924170Y546288D01*
X1925000Y546900D01*
X1925830Y546288D01*
X1926743Y545375D01*
X1928856Y544500D01*
X1931144D01*
X1933257Y545375D01*
X1934875Y546993D01*
X1935750Y549106D01*
Y551394D01*
X1934875Y553507D01*
X1933961Y554420D01*
X1933350Y555250D01*
X1933961Y556080D01*
X1934875Y556993D01*
X1935750Y559106D01*
Y561394D01*
X1934875Y563507D01*
X1933961Y564420D01*
X1933350Y565250D01*
X1933961Y566080D01*
X1934875Y566993D01*
X1935750Y569106D01*
Y571394D01*
X1934875Y573507D01*
X1933961Y574420D01*
X1933350Y575250D01*
X1933961Y576080D01*
X1934875Y576993D01*
X1935750Y579106D01*
Y581394D01*
X1934875Y583507D01*
X1933961Y584420D01*
X1933350Y585250D01*
X1933961Y586080D01*
X1934875Y586993D01*
X1935750Y589106D01*
Y591394D01*
X1934875Y593507D01*
X1933961Y594420D01*
X1933350Y595250D01*
X1933961Y596080D01*
X1934875Y596993D01*
X1935750Y599106D01*
Y601394D01*
X1934875Y603507D01*
X1933961Y604420D01*
X1933350Y605250D01*
X1933961Y606080D01*
X1934875Y606993D01*
X1935750Y609106D01*
Y611394D01*
X1934875Y613507D01*
X1933257Y615125D01*
X1931144Y616000D01*
D02*
G37*
G36*
X1530922Y617000D02*
X1529078D01*
X1527298Y616523D01*
X1525702Y615601D01*
X1524399Y614298D01*
X1523477Y612702D01*
X1523000Y610922D01*
Y609078D01*
X1523477Y607298D01*
X1524399Y605702D01*
X1525702Y604399D01*
X1527298Y603477D01*
X1529078Y603000D01*
X1530922D01*
X1532702Y603477D01*
X1534298Y604399D01*
X1535601Y605702D01*
X1536523Y607298D01*
X1537000Y609078D01*
Y610922D01*
X1536523Y612702D01*
X1535601Y614298D01*
X1534298Y615601D01*
X1532702Y616523D01*
X1530922Y617000D01*
D02*
G37*
G36*
X1500922D02*
X1499078D01*
X1497298Y616523D01*
X1495702Y615601D01*
X1494399Y614298D01*
X1493477Y612702D01*
X1493000Y610922D01*
Y609078D01*
X1493477Y607298D01*
X1494399Y605702D01*
X1495702Y604399D01*
X1497298Y603477D01*
X1499078Y603000D01*
X1500922D01*
X1502702Y603477D01*
X1504298Y604399D01*
X1505601Y605702D01*
X1506523Y607298D01*
X1507000Y609078D01*
Y610922D01*
X1506523Y612702D01*
X1505601Y614298D01*
X1504298Y615601D01*
X1502702Y616523D01*
X1500922Y617000D01*
D02*
G37*
G36*
X600000Y608841D02*
Y601850D01*
X606991D01*
X606505Y603666D01*
X605374Y605624D01*
X603774Y607224D01*
X601816Y608355D01*
X600000Y608841D01*
D02*
G37*
G36*
X597000Y608841D02*
X595184Y608355D01*
X593226Y607224D01*
X591626Y605624D01*
X590495Y603666D01*
X590009Y601850D01*
X597000D01*
Y608841D01*
D02*
G37*
G36*
Y598850D02*
X590009D01*
X590495Y597034D01*
X591626Y595076D01*
X593226Y593476D01*
X595184Y592345D01*
X597000Y591859D01*
Y598850D01*
D02*
G37*
G36*
X606991D02*
X600000D01*
Y591859D01*
X601816Y592345D01*
X603774Y593476D01*
X605374Y595076D01*
X606505Y597034D01*
X606991Y598850D01*
D02*
G37*
G36*
X1530922Y597000D02*
X1529078D01*
X1527298Y596523D01*
X1525702Y595601D01*
X1524399Y594298D01*
X1523477Y592702D01*
X1523000Y590922D01*
Y589078D01*
X1523477Y587298D01*
X1524399Y585702D01*
X1525702Y584399D01*
X1527298Y583477D01*
X1529078Y583000D01*
X1530922D01*
X1532702Y583477D01*
X1534298Y584399D01*
X1535601Y585702D01*
X1536523Y587298D01*
X1537000Y589078D01*
Y590922D01*
X1536523Y592702D01*
X1535601Y594298D01*
X1534298Y595601D01*
X1532702Y596523D01*
X1530922Y597000D01*
D02*
G37*
G36*
X1500922D02*
X1499078D01*
X1497298Y596523D01*
X1495702Y595601D01*
X1494399Y594298D01*
X1493477Y592702D01*
X1493000Y590922D01*
Y589078D01*
X1493477Y587298D01*
X1494399Y585702D01*
X1495702Y584399D01*
X1497298Y583477D01*
X1499078Y583000D01*
X1500922D01*
X1502702Y583477D01*
X1504298Y584399D01*
X1505601Y585702D01*
X1506523Y587298D01*
X1507000Y589078D01*
Y590922D01*
X1506523Y592702D01*
X1505601Y594298D01*
X1504298Y595601D01*
X1502702Y596523D01*
X1500922Y597000D01*
D02*
G37*
G36*
X807144Y577750D02*
X804856D01*
X802743Y576875D01*
X801125Y575257D01*
X800250Y573144D01*
Y570856D01*
X801125Y568743D01*
X802743Y567125D01*
X804856Y566250D01*
X807144D01*
X809257Y567125D01*
X810875Y568743D01*
X811750Y570856D01*
Y573144D01*
X810875Y575257D01*
X809257Y576875D01*
X807144Y577750D01*
D02*
G37*
G36*
X1530922Y577000D02*
X1529078D01*
X1527298Y576523D01*
X1525702Y575601D01*
X1524399Y574298D01*
X1523477Y572702D01*
X1523000Y570922D01*
Y569078D01*
X1523477Y567298D01*
X1524399Y565702D01*
X1525702Y564399D01*
X1527298Y563477D01*
X1529078Y563000D01*
X1530922D01*
X1532702Y563477D01*
X1534298Y564399D01*
X1535601Y565702D01*
X1536523Y567298D01*
X1537000Y569078D01*
Y570922D01*
X1536523Y572702D01*
X1535601Y574298D01*
X1534298Y575601D01*
X1532702Y576523D01*
X1530922Y577000D01*
D02*
G37*
G36*
X1500922D02*
X1499078D01*
X1497298Y576523D01*
X1495702Y575601D01*
X1494399Y574298D01*
X1493477Y572702D01*
X1493000Y570922D01*
Y569078D01*
X1493477Y567298D01*
X1494399Y565702D01*
X1495702Y564399D01*
X1497298Y563477D01*
X1499078Y563000D01*
X1500922D01*
X1502702Y563477D01*
X1504298Y564399D01*
X1505601Y565702D01*
X1506523Y567298D01*
X1507000Y569078D01*
Y570922D01*
X1506523Y572702D01*
X1505601Y574298D01*
X1504298Y575601D01*
X1502702Y576523D01*
X1500922Y577000D01*
D02*
G37*
G36*
X831144Y560750D02*
X828856D01*
X826743Y559875D01*
X825125Y558257D01*
X824250Y556144D01*
Y553856D01*
X825125Y551743D01*
X826743Y550125D01*
X828856Y549250D01*
X831144D01*
X833257Y550125D01*
X834875Y551743D01*
X835750Y553856D01*
Y556144D01*
X834875Y558257D01*
X833257Y559875D01*
X831144Y560750D01*
D02*
G37*
G36*
X1859724Y577500D02*
X1856276D01*
X1852895Y576828D01*
X1849711Y575508D01*
X1846844Y573593D01*
X1844407Y571156D01*
X1842492Y568289D01*
X1841172Y565105D01*
X1840500Y561724D01*
Y558276D01*
X1841172Y554895D01*
X1842492Y551711D01*
X1844407Y548844D01*
X1846844Y546407D01*
X1849711Y544492D01*
X1852895Y543172D01*
X1856276Y542500D01*
X1859724D01*
X1863105Y543172D01*
X1866289Y544492D01*
X1869156Y546407D01*
X1871593Y548844D01*
X1873508Y551711D01*
X1874828Y554895D01*
X1875500Y558276D01*
Y561724D01*
X1874828Y565105D01*
X1873508Y568289D01*
X1871593Y571156D01*
X1869156Y573593D01*
X1866289Y575508D01*
X1863105Y576828D01*
X1859724Y577500D01*
D02*
G37*
G36*
X1989000Y616039D02*
X1969000D01*
X1968220Y615884D01*
X1967558Y615442D01*
X1967116Y614780D01*
X1966961Y614000D01*
Y541500D01*
X1967116Y540720D01*
X1967558Y540058D01*
X1968220Y539616D01*
X1969000Y539461D01*
X1989000D01*
X1989780Y539616D01*
X1990442Y540058D01*
X1990884Y540720D01*
X1991039Y541500D01*
Y614000D01*
X1990884Y614780D01*
X1990442Y615442D01*
X1989780Y615884D01*
X1989000Y616039D01*
D02*
G37*
G36*
X1818724Y565500D02*
X1815276D01*
X1811895Y564827D01*
X1808711Y563508D01*
X1805844Y561593D01*
X1803407Y559156D01*
X1801492Y556289D01*
X1800172Y553105D01*
X1799500Y549724D01*
Y546276D01*
X1800172Y542895D01*
X1801492Y539711D01*
X1803407Y536844D01*
X1805844Y534407D01*
X1808711Y532492D01*
X1811895Y531172D01*
X1815276Y530500D01*
X1818724D01*
X1822105Y531172D01*
X1825289Y532492D01*
X1828156Y534407D01*
X1830593Y536844D01*
X1832508Y539711D01*
X1833828Y542895D01*
X1834500Y546276D01*
Y549724D01*
X1833828Y553105D01*
X1832508Y556289D01*
X1830593Y559156D01*
X1828156Y561593D01*
X1825289Y563508D01*
X1822105Y564827D01*
X1818724Y565500D01*
D02*
G37*
G36*
X1530922Y497000D02*
X1529078D01*
X1527298Y496523D01*
X1525702Y495601D01*
X1524399Y494298D01*
X1523477Y492702D01*
X1523000Y490922D01*
Y489078D01*
X1523477Y487298D01*
X1524399Y485702D01*
X1525702Y484399D01*
X1527298Y483477D01*
X1529078Y483000D01*
X1530922D01*
X1532702Y483477D01*
X1534298Y484399D01*
X1535601Y485702D01*
X1536523Y487298D01*
X1537000Y489078D01*
Y490922D01*
X1536523Y492702D01*
X1535601Y494298D01*
X1534298Y495601D01*
X1532702Y496523D01*
X1530922Y497000D01*
D02*
G37*
G36*
X1500922D02*
X1499078D01*
X1497298Y496523D01*
X1495702Y495601D01*
X1494399Y494298D01*
X1493477Y492702D01*
X1493000Y490922D01*
Y489078D01*
X1493477Y487298D01*
X1494399Y485702D01*
X1495702Y484399D01*
X1497298Y483477D01*
X1499078Y483000D01*
X1500922D01*
X1502702Y483477D01*
X1504298Y484399D01*
X1505601Y485702D01*
X1506523Y487298D01*
X1507000Y489078D01*
Y490922D01*
X1506523Y492702D01*
X1505601Y494298D01*
X1504298Y495601D01*
X1502702Y496523D01*
X1500922Y497000D01*
D02*
G37*
G36*
X1530922Y477000D02*
X1529078D01*
X1527298Y476523D01*
X1525702Y475601D01*
X1524399Y474298D01*
X1523477Y472702D01*
X1523000Y470922D01*
Y469078D01*
X1523477Y467298D01*
X1524399Y465702D01*
X1525702Y464399D01*
X1527298Y463477D01*
X1529078Y463000D01*
X1530922D01*
X1532702Y463477D01*
X1534298Y464399D01*
X1535601Y465702D01*
X1536523Y467298D01*
X1537000Y469078D01*
Y470922D01*
X1536523Y472702D01*
X1535601Y474298D01*
X1534298Y475601D01*
X1532702Y476523D01*
X1530922Y477000D01*
D02*
G37*
G36*
X1500922D02*
X1499078D01*
X1497298Y476523D01*
X1495702Y475601D01*
X1494399Y474298D01*
X1493477Y472702D01*
X1493000Y470922D01*
Y469078D01*
X1493477Y467298D01*
X1494399Y465702D01*
X1495702Y464399D01*
X1497298Y463477D01*
X1499078Y463000D01*
X1500922D01*
X1502702Y463477D01*
X1504298Y464399D01*
X1505601Y465702D01*
X1506523Y467298D01*
X1507000Y469078D01*
Y470922D01*
X1506523Y472702D01*
X1505601Y474298D01*
X1504298Y475601D01*
X1502702Y476523D01*
X1500922Y477000D01*
D02*
G37*
G36*
X1530922Y457000D02*
X1529078D01*
X1527298Y456523D01*
X1525702Y455601D01*
X1524399Y454298D01*
X1523477Y452702D01*
X1523000Y450922D01*
Y449078D01*
X1523477Y447298D01*
X1524399Y445702D01*
X1525702Y444399D01*
X1527298Y443477D01*
X1529078Y443000D01*
X1530922D01*
X1532702Y443477D01*
X1534298Y444399D01*
X1535601Y445702D01*
X1536523Y447298D01*
X1537000Y449078D01*
Y450922D01*
X1536523Y452702D01*
X1535601Y454298D01*
X1534298Y455601D01*
X1532702Y456523D01*
X1530922Y457000D01*
D02*
G37*
G36*
X1500922D02*
X1499078D01*
X1497298Y456523D01*
X1495702Y455601D01*
X1494399Y454298D01*
X1493477Y452702D01*
X1493000Y450922D01*
Y449078D01*
X1493477Y447298D01*
X1494399Y445702D01*
X1495702Y444399D01*
X1497298Y443477D01*
X1499078Y443000D01*
X1500922D01*
X1502702Y443477D01*
X1504298Y444399D01*
X1505601Y445702D01*
X1506523Y447298D01*
X1507000Y449078D01*
Y450922D01*
X1506523Y452702D01*
X1505601Y454298D01*
X1504298Y455601D01*
X1502702Y456523D01*
X1500922Y457000D01*
D02*
G37*
G36*
X1530922Y437000D02*
X1529078D01*
X1527298Y436523D01*
X1525702Y435601D01*
X1524399Y434298D01*
X1523477Y432702D01*
X1523000Y430922D01*
Y429078D01*
X1523477Y427298D01*
X1524399Y425702D01*
X1525702Y424399D01*
X1527298Y423477D01*
X1529078Y423000D01*
X1530922D01*
X1532702Y423477D01*
X1534298Y424399D01*
X1535601Y425702D01*
X1536523Y427298D01*
X1537000Y429078D01*
Y430922D01*
X1536523Y432702D01*
X1535601Y434298D01*
X1534298Y435601D01*
X1532702Y436523D01*
X1530922Y437000D01*
D02*
G37*
G36*
X1500922D02*
X1499078D01*
X1497298Y436523D01*
X1495702Y435601D01*
X1494399Y434298D01*
X1493477Y432702D01*
X1493000Y430922D01*
Y429078D01*
X1493477Y427298D01*
X1494399Y425702D01*
X1495702Y424399D01*
X1497298Y423477D01*
X1499078Y423000D01*
X1500922D01*
X1502702Y423477D01*
X1504298Y424399D01*
X1505601Y425702D01*
X1506523Y427298D01*
X1507000Y429078D01*
Y430922D01*
X1506523Y432702D01*
X1505601Y434298D01*
X1504298Y435601D01*
X1502702Y436523D01*
X1500922Y437000D01*
D02*
G37*
G36*
X1530922Y417000D02*
X1529078D01*
X1527298Y416523D01*
X1525702Y415601D01*
X1524399Y414298D01*
X1523477Y412702D01*
X1523000Y410922D01*
Y409078D01*
X1523477Y407298D01*
X1524399Y405702D01*
X1525702Y404399D01*
X1527298Y403477D01*
X1529078Y403000D01*
X1530922D01*
X1532702Y403477D01*
X1534298Y404399D01*
X1535601Y405702D01*
X1536523Y407298D01*
X1537000Y409078D01*
Y410922D01*
X1536523Y412702D01*
X1535601Y414298D01*
X1534298Y415601D01*
X1532702Y416523D01*
X1530922Y417000D01*
D02*
G37*
G36*
X1500922D02*
X1499078D01*
X1497298Y416523D01*
X1495702Y415601D01*
X1494399Y414298D01*
X1493477Y412702D01*
X1493000Y410922D01*
Y409078D01*
X1493477Y407298D01*
X1494399Y405702D01*
X1495702Y404399D01*
X1497298Y403477D01*
X1499078Y403000D01*
X1500922D01*
X1502702Y403477D01*
X1504298Y404399D01*
X1505601Y405702D01*
X1506523Y407298D01*
X1507000Y409078D01*
Y410922D01*
X1506523Y412702D01*
X1505601Y414298D01*
X1504298Y415601D01*
X1502702Y416523D01*
X1500922Y417000D01*
D02*
G37*
G36*
X976498Y400800D02*
X976300D01*
Y389400D01*
X987700D01*
Y389598D01*
X986821Y392879D01*
X985123Y395821D01*
X982721Y398223D01*
X979779Y399921D01*
X976498Y400800D01*
D02*
G37*
G36*
X973300D02*
X973102D01*
X969821Y399921D01*
X966879Y398223D01*
X964477Y395821D01*
X962779Y392879D01*
X961900Y389598D01*
Y389400D01*
X973300D01*
Y400800D01*
D02*
G37*
G36*
X1530922Y397000D02*
X1529078D01*
X1527298Y396523D01*
X1525702Y395601D01*
X1524399Y394298D01*
X1523477Y392702D01*
X1523000Y390922D01*
Y389078D01*
X1523477Y387298D01*
X1524399Y385702D01*
X1525702Y384399D01*
X1527298Y383477D01*
X1529078Y383000D01*
X1530922D01*
X1532702Y383477D01*
X1534298Y384399D01*
X1535601Y385702D01*
X1536523Y387298D01*
X1537000Y389078D01*
Y390922D01*
X1536523Y392702D01*
X1535601Y394298D01*
X1534298Y395601D01*
X1532702Y396523D01*
X1530922Y397000D01*
D02*
G37*
G36*
X1500922D02*
X1499078D01*
X1497298Y396523D01*
X1495702Y395601D01*
X1494399Y394298D01*
X1493477Y392702D01*
X1493000Y390922D01*
Y389078D01*
X1493477Y387298D01*
X1494399Y385702D01*
X1495702Y384399D01*
X1497298Y383477D01*
X1499078Y383000D01*
X1500922D01*
X1502702Y383477D01*
X1504298Y384399D01*
X1505601Y385702D01*
X1506523Y387298D01*
X1507000Y389078D01*
Y390922D01*
X1506523Y392702D01*
X1505601Y394298D01*
X1504298Y395601D01*
X1502702Y396523D01*
X1500922Y397000D01*
D02*
G37*
G36*
X987700Y386400D02*
X976300D01*
Y375000D01*
X976498D01*
X979779Y375879D01*
X982721Y377577D01*
X985123Y379979D01*
X986821Y382921D01*
X987700Y386202D01*
Y386400D01*
D02*
G37*
G36*
X973300D02*
X961900D01*
Y386202D01*
X962779Y382921D01*
X964477Y379979D01*
X966879Y377577D01*
X969821Y375879D01*
X973102Y375000D01*
X973300D01*
Y386400D01*
D02*
G37*
G36*
X1530922Y377000D02*
X1529078D01*
X1527298Y376523D01*
X1525702Y375601D01*
X1524399Y374298D01*
X1523477Y372702D01*
X1523000Y370922D01*
Y369078D01*
X1523477Y367298D01*
X1524399Y365702D01*
X1525702Y364399D01*
X1527298Y363477D01*
X1529078Y363000D01*
X1530922D01*
X1532702Y363477D01*
X1534298Y364399D01*
X1535601Y365702D01*
X1536523Y367298D01*
X1537000Y369078D01*
Y370922D01*
X1536523Y372702D01*
X1535601Y374298D01*
X1534298Y375601D01*
X1532702Y376523D01*
X1530922Y377000D01*
D02*
G37*
G36*
X1500922D02*
X1499078D01*
X1497298Y376523D01*
X1495702Y375601D01*
X1494399Y374298D01*
X1493477Y372702D01*
X1493000Y370922D01*
Y369078D01*
X1493477Y367298D01*
X1494399Y365702D01*
X1495702Y364399D01*
X1497298Y363477D01*
X1499078Y363000D01*
X1500922D01*
X1502702Y363477D01*
X1504298Y364399D01*
X1505601Y365702D01*
X1506523Y367298D01*
X1507000Y369078D01*
Y370922D01*
X1506523Y372702D01*
X1505601Y374298D01*
X1504298Y375601D01*
X1502702Y376523D01*
X1500922Y377000D01*
D02*
G37*
G36*
X1941500Y363616D02*
Y354000D01*
X1951116D01*
X1950367Y356794D01*
X1948902Y359331D01*
X1946831Y361402D01*
X1944294Y362867D01*
X1941500Y363616D01*
D02*
G37*
G36*
X1938500D02*
X1935706Y362867D01*
X1933169Y361402D01*
X1931098Y359331D01*
X1929633Y356794D01*
X1928884Y354000D01*
X1938500D01*
Y363616D01*
D02*
G37*
G36*
X1274024Y387500D02*
X1270576D01*
X1267195Y386828D01*
X1264011Y385508D01*
X1261144Y383593D01*
X1258707Y381156D01*
X1256792Y378289D01*
X1255472Y375105D01*
X1254800Y371724D01*
Y368276D01*
X1255472Y364895D01*
X1256792Y361711D01*
X1258707Y358844D01*
X1261144Y356407D01*
X1264011Y354492D01*
X1267195Y353172D01*
X1270576Y352500D01*
X1274024D01*
X1277405Y353172D01*
X1280589Y354492D01*
X1283456Y356407D01*
X1285893Y358844D01*
X1287808Y361711D01*
X1289128Y364895D01*
X1289800Y368276D01*
Y371724D01*
X1289128Y375105D01*
X1287808Y378289D01*
X1285893Y381156D01*
X1283456Y383593D01*
X1280589Y385508D01*
X1277405Y386828D01*
X1274024Y387500D01*
D02*
G37*
G36*
X1530922Y357000D02*
X1529078D01*
X1527298Y356523D01*
X1525702Y355601D01*
X1524399Y354298D01*
X1523477Y352702D01*
X1523000Y350922D01*
Y349078D01*
X1523477Y347298D01*
X1524399Y345702D01*
X1525702Y344399D01*
X1527298Y343477D01*
X1529078Y343000D01*
X1530922D01*
X1532702Y343477D01*
X1534298Y344399D01*
X1535601Y345702D01*
X1536523Y347298D01*
X1537000Y349078D01*
Y350922D01*
X1536523Y352702D01*
X1535601Y354298D01*
X1534298Y355601D01*
X1532702Y356523D01*
X1530922Y357000D01*
D02*
G37*
G36*
X1500922D02*
X1499078D01*
X1497298Y356523D01*
X1495702Y355601D01*
X1494399Y354298D01*
X1493477Y352702D01*
X1493000Y350922D01*
Y349078D01*
X1493477Y347298D01*
X1494399Y345702D01*
X1495702Y344399D01*
X1497298Y343477D01*
X1499078Y343000D01*
X1500922D01*
X1502702Y343477D01*
X1504298Y344399D01*
X1505601Y345702D01*
X1506523Y347298D01*
X1507000Y349078D01*
Y350922D01*
X1506523Y352702D01*
X1505601Y354298D01*
X1504298Y355601D01*
X1502702Y356523D01*
X1500922Y357000D01*
D02*
G37*
G36*
X1992199Y363125D02*
X1989401D01*
X1986699Y362401D01*
X1984276Y361002D01*
X1982298Y359024D01*
X1980899Y356601D01*
X1980175Y353899D01*
Y351101D01*
X1980899Y348399D01*
X1982298Y345976D01*
X1984276Y343998D01*
X1986699Y342599D01*
X1989401Y341875D01*
X1992199D01*
X1994901Y342599D01*
X1997324Y343998D01*
X1999302Y345976D01*
X2000701Y348399D01*
X2001425Y351101D01*
Y353899D01*
X2000701Y356601D01*
X1999302Y359024D01*
X1997324Y361002D01*
X1994901Y362401D01*
X1992199Y363125D01*
D02*
G37*
G36*
X1951116Y351000D02*
X1941500D01*
Y341385D01*
X1944294Y342133D01*
X1946831Y343598D01*
X1948902Y345669D01*
X1950367Y348206D01*
X1951116Y351000D01*
D02*
G37*
G36*
X1938500D02*
X1928884D01*
X1929633Y348206D01*
X1931098Y345669D01*
X1933169Y343598D01*
X1935706Y342133D01*
X1938500Y341385D01*
Y351000D01*
D02*
G37*
G36*
X1834125Y373625D02*
Y373625D01*
X1791875D01*
Y331375D01*
X1834125D01*
Y331375D01*
X1834553Y331726D01*
X1836319Y331375D01*
X1840481D01*
X1844562Y332187D01*
X1848407Y333779D01*
X1851866Y336091D01*
X1854809Y339034D01*
X1857121Y342494D01*
X1858713Y346338D01*
X1859525Y350419D01*
Y354581D01*
X1858713Y358662D01*
X1857121Y362506D01*
X1854809Y365966D01*
X1851866Y368909D01*
X1848407Y371221D01*
X1844562Y372813D01*
X1840481Y373625D01*
X1836319D01*
X1834553Y373274D01*
X1834125Y373625D01*
D02*
G37*
G36*
X1181144Y338250D02*
X1178856D01*
X1176743Y337375D01*
X1175125Y335757D01*
X1174250Y333644D01*
Y331356D01*
X1175125Y329243D01*
X1176743Y327625D01*
X1178856Y326750D01*
X1181144D01*
X1183257Y327625D01*
X1184875Y329243D01*
X1185750Y331356D01*
Y333644D01*
X1184875Y335757D01*
X1183257Y337375D01*
X1181144Y338250D01*
D02*
G37*
G36*
X1530922Y337000D02*
X1529078D01*
X1527298Y336523D01*
X1525702Y335601D01*
X1524399Y334298D01*
X1523477Y332702D01*
X1523000Y330922D01*
Y329078D01*
X1523477Y327298D01*
X1524399Y325702D01*
X1525702Y324399D01*
X1527298Y323477D01*
X1529078Y323000D01*
X1530922D01*
X1532702Y323477D01*
X1534298Y324399D01*
X1535601Y325702D01*
X1536523Y327298D01*
X1537000Y329078D01*
Y330922D01*
X1536523Y332702D01*
X1535601Y334298D01*
X1534298Y335601D01*
X1532702Y336523D01*
X1530922Y337000D01*
D02*
G37*
G36*
X1500922D02*
X1499078D01*
X1497298Y336523D01*
X1495702Y335601D01*
X1494399Y334298D01*
X1493477Y332702D01*
X1493000Y330922D01*
Y329078D01*
X1493477Y327298D01*
X1494399Y325702D01*
X1495702Y324399D01*
X1497298Y323477D01*
X1499078Y323000D01*
X1500922D01*
X1502702Y323477D01*
X1504298Y324399D01*
X1505601Y325702D01*
X1506523Y327298D01*
X1507000Y329078D01*
Y330922D01*
X1506523Y332702D01*
X1505601Y334298D01*
X1504298Y335601D01*
X1502702Y336523D01*
X1500922Y337000D01*
D02*
G37*
G36*
X1530922Y317000D02*
X1529078D01*
X1527298Y316523D01*
X1525702Y315601D01*
X1524399Y314298D01*
X1523477Y312702D01*
X1523000Y310922D01*
Y309079D01*
X1523477Y307298D01*
X1524399Y305702D01*
X1525702Y304399D01*
X1527298Y303477D01*
X1529078Y303000D01*
X1530922D01*
X1532702Y303477D01*
X1534298Y304399D01*
X1535601Y305702D01*
X1536523Y307298D01*
X1537000Y309079D01*
Y310922D01*
X1536523Y312702D01*
X1535601Y314298D01*
X1534298Y315601D01*
X1532702Y316523D01*
X1530922Y317000D01*
D02*
G37*
G36*
X1500922D02*
X1499078D01*
X1497298Y316523D01*
X1495702Y315601D01*
X1494399Y314298D01*
X1493477Y312702D01*
X1493000Y310922D01*
Y309079D01*
X1493477Y307298D01*
X1494399Y305702D01*
X1495702Y304399D01*
X1497298Y303477D01*
X1499078Y303000D01*
X1500922D01*
X1502702Y303477D01*
X1504298Y304399D01*
X1505601Y305702D01*
X1506523Y307298D01*
X1507000Y309079D01*
Y310922D01*
X1506523Y312702D01*
X1505601Y314298D01*
X1504298Y315601D01*
X1502702Y316523D01*
X1500922Y317000D01*
D02*
G37*
G36*
X1268422Y304500D02*
X1266578D01*
X1264798Y304023D01*
X1263202Y303101D01*
X1261899Y301798D01*
X1260977Y300202D01*
X1260500Y298422D01*
Y296578D01*
X1260977Y294798D01*
X1261899Y293202D01*
X1263202Y291899D01*
X1264798Y290977D01*
X1266578Y290500D01*
X1268422D01*
X1270202Y290977D01*
X1271798Y291899D01*
X1273101Y293202D01*
X1274023Y294798D01*
X1274500Y296578D01*
Y298422D01*
X1274023Y300202D01*
X1273101Y301798D01*
X1271798Y303101D01*
X1270202Y304023D01*
X1268422Y304500D01*
D02*
G37*
G36*
X1248422D02*
X1246578D01*
X1244798Y304023D01*
X1243202Y303101D01*
X1241899Y301798D01*
X1240977Y300202D01*
X1240500Y298422D01*
Y296578D01*
X1240977Y294798D01*
X1241899Y293202D01*
X1243202Y291899D01*
X1244798Y290977D01*
X1246578Y290500D01*
X1248422D01*
X1250202Y290977D01*
X1251798Y291899D01*
X1253101Y293202D01*
X1254023Y294798D01*
X1254500Y296578D01*
Y298422D01*
X1254023Y300202D01*
X1253101Y301798D01*
X1251798Y303101D01*
X1250202Y304023D01*
X1248422Y304500D01*
D02*
G37*
G36*
X1530922Y297000D02*
X1529078D01*
X1527298Y296523D01*
X1525702Y295601D01*
X1524399Y294298D01*
X1523477Y292702D01*
X1523000Y290922D01*
Y289078D01*
X1523477Y287298D01*
X1524399Y285702D01*
X1525702Y284399D01*
X1527298Y283477D01*
X1529078Y283000D01*
X1530922D01*
X1532702Y283477D01*
X1534298Y284399D01*
X1535601Y285702D01*
X1536523Y287298D01*
X1537000Y289078D01*
Y290922D01*
X1536523Y292702D01*
X1535601Y294298D01*
X1534298Y295601D01*
X1532702Y296523D01*
X1530922Y297000D01*
D02*
G37*
G36*
X1500922D02*
X1499078D01*
X1497298Y296523D01*
X1495702Y295601D01*
X1494399Y294298D01*
X1493477Y292702D01*
X1493000Y290922D01*
Y289078D01*
X1493477Y287298D01*
X1494399Y285702D01*
X1495702Y284399D01*
X1497298Y283477D01*
X1499078Y283000D01*
X1500922D01*
X1502702Y283477D01*
X1504298Y284399D01*
X1505601Y285702D01*
X1506523Y287298D01*
X1507000Y289078D01*
Y290922D01*
X1506523Y292702D01*
X1505601Y294298D01*
X1504298Y295601D01*
X1502702Y296523D01*
X1500922Y297000D01*
D02*
G37*
G36*
X1268422Y284500D02*
X1266578D01*
X1264798Y284023D01*
X1263202Y283101D01*
X1261899Y281798D01*
X1260977Y280202D01*
X1260500Y278422D01*
Y276578D01*
X1260977Y274798D01*
X1261899Y273202D01*
X1263202Y271899D01*
X1264798Y270977D01*
X1266578Y270500D01*
X1268422D01*
X1270202Y270977D01*
X1271798Y271899D01*
X1273101Y273202D01*
X1274023Y274798D01*
X1274500Y276578D01*
Y278422D01*
X1274023Y280202D01*
X1273101Y281798D01*
X1271798Y283101D01*
X1270202Y284023D01*
X1268422Y284500D01*
D02*
G37*
G36*
X1248422D02*
X1246578D01*
X1244798Y284023D01*
X1243202Y283101D01*
X1241899Y281798D01*
X1240977Y280202D01*
X1240500Y278422D01*
Y276578D01*
X1240977Y274798D01*
X1241899Y273202D01*
X1243202Y271899D01*
X1244798Y270977D01*
X1246578Y270500D01*
X1248422D01*
X1250202Y270977D01*
X1251798Y271899D01*
X1253101Y273202D01*
X1254023Y274798D01*
X1254500Y276578D01*
Y278422D01*
X1254023Y280202D01*
X1253101Y281798D01*
X1251798Y283101D01*
X1250202Y284023D01*
X1248422Y284500D01*
D02*
G37*
G36*
X1530922Y277000D02*
X1529078D01*
X1527298Y276523D01*
X1525702Y275601D01*
X1524399Y274298D01*
X1523477Y272702D01*
X1523000Y270922D01*
Y269079D01*
X1523477Y267298D01*
X1524399Y265702D01*
X1525702Y264399D01*
X1527298Y263477D01*
X1529078Y263000D01*
X1530922D01*
X1532702Y263477D01*
X1534298Y264399D01*
X1535601Y265702D01*
X1536523Y267298D01*
X1537000Y269079D01*
Y270922D01*
X1536523Y272702D01*
X1535601Y274298D01*
X1534298Y275601D01*
X1532702Y276523D01*
X1530922Y277000D01*
D02*
G37*
G36*
X1500922D02*
X1499078D01*
X1497298Y276523D01*
X1495702Y275601D01*
X1494399Y274298D01*
X1493477Y272702D01*
X1493000Y270922D01*
Y269079D01*
X1493477Y267298D01*
X1494399Y265702D01*
X1495702Y264399D01*
X1497298Y263477D01*
X1499078Y263000D01*
X1500922D01*
X1502702Y263477D01*
X1504298Y264399D01*
X1505601Y265702D01*
X1506523Y267298D01*
X1507000Y269079D01*
Y270922D01*
X1506523Y272702D01*
X1505601Y274298D01*
X1504298Y275601D01*
X1502702Y276523D01*
X1500922Y277000D01*
D02*
G37*
G36*
X1989699Y245625D02*
X1986901D01*
X1984199Y244901D01*
X1981776Y243502D01*
X1979798Y241524D01*
X1978399Y239101D01*
X1977675Y236399D01*
Y233601D01*
X1978399Y230899D01*
X1979798Y228476D01*
X1981776Y226498D01*
X1984199Y225099D01*
X1986901Y224375D01*
X1989699D01*
X1992401Y225099D01*
X1994824Y226498D01*
X1996802Y228476D01*
X1998201Y230899D01*
X1998925Y233601D01*
Y236399D01*
X1998201Y239101D01*
X1996802Y241524D01*
X1994824Y243502D01*
X1992401Y244901D01*
X1989699Y245625D01*
D02*
G37*
G36*
X1938899D02*
X1936101D01*
X1933399Y244901D01*
X1930976Y243502D01*
X1928998Y241524D01*
X1927599Y239101D01*
X1926875Y236399D01*
Y233601D01*
X1927599Y230899D01*
X1928998Y228476D01*
X1930976Y226498D01*
X1933399Y225099D01*
X1936101Y224375D01*
X1938899D01*
X1941601Y225099D01*
X1944024Y226498D01*
X1946002Y228476D01*
X1947401Y230899D01*
X1948125Y233601D01*
Y236399D01*
X1947401Y239101D01*
X1946002Y241524D01*
X1944024Y243502D01*
X1941601Y244901D01*
X1938899Y245625D01*
D02*
G37*
G36*
X1320922Y237000D02*
X1319078D01*
X1317298Y236523D01*
X1315702Y235601D01*
X1314399Y234298D01*
X1313477Y232702D01*
X1313000Y230922D01*
Y229078D01*
X1313477Y227298D01*
X1314399Y225702D01*
X1315702Y224399D01*
X1317298Y223477D01*
X1319078Y223000D01*
X1320922D01*
X1322702Y223477D01*
X1324298Y224399D01*
X1325601Y225702D01*
X1326523Y227298D01*
X1327000Y229078D01*
Y230922D01*
X1326523Y232702D01*
X1325601Y234298D01*
X1324298Y235601D01*
X1322702Y236523D01*
X1320922Y237000D01*
D02*
G37*
G36*
X1300922D02*
X1299078D01*
X1297298Y236523D01*
X1295702Y235601D01*
X1294399Y234298D01*
X1293477Y232702D01*
X1293000Y230922D01*
Y229078D01*
X1293477Y227298D01*
X1294399Y225702D01*
X1295702Y224399D01*
X1297298Y223477D01*
X1299078Y223000D01*
X1300922D01*
X1302702Y223477D01*
X1304298Y224399D01*
X1305601Y225702D01*
X1306523Y227298D01*
X1307000Y229078D01*
Y230922D01*
X1306523Y232702D01*
X1305601Y234298D01*
X1304298Y235601D01*
X1302702Y236523D01*
X1300922Y237000D01*
D02*
G37*
G36*
X1831625Y256125D02*
Y256125D01*
X1789375D01*
Y213875D01*
X1831625D01*
Y213875D01*
X1832053Y214226D01*
X1833819Y213875D01*
X1837981D01*
X1842062Y214687D01*
X1845906Y216279D01*
X1849366Y218591D01*
X1852309Y221534D01*
X1854621Y224994D01*
X1856213Y228838D01*
X1857025Y232919D01*
Y237081D01*
X1856213Y241162D01*
X1854621Y245006D01*
X1852309Y248466D01*
X1849366Y251409D01*
X1845906Y253721D01*
X1842062Y255313D01*
X1837981Y256125D01*
X1833819D01*
X1832053Y255774D01*
X1831625Y256125D01*
D02*
G37*
G36*
X1320922Y217000D02*
X1319078D01*
X1317298Y216523D01*
X1315702Y215601D01*
X1314399Y214298D01*
X1313477Y212702D01*
X1313000Y210922D01*
Y209078D01*
X1313477Y207298D01*
X1314399Y205702D01*
X1315702Y204399D01*
X1317298Y203477D01*
X1319078Y203000D01*
X1320922D01*
X1322702Y203477D01*
X1324298Y204399D01*
X1325601Y205702D01*
X1326523Y207298D01*
X1327000Y209078D01*
Y210922D01*
X1326523Y212702D01*
X1325601Y214298D01*
X1324298Y215601D01*
X1322702Y216523D01*
X1320922Y217000D01*
D02*
G37*
G36*
X1300922D02*
X1299078D01*
X1297298Y216523D01*
X1295702Y215601D01*
X1294399Y214298D01*
X1293477Y212702D01*
X1293000Y210922D01*
Y209078D01*
X1293477Y207298D01*
X1294399Y205702D01*
X1295702Y204399D01*
X1297298Y203477D01*
X1299078Y203000D01*
X1300922D01*
X1302702Y203477D01*
X1304298Y204399D01*
X1305601Y205702D01*
X1306523Y207298D01*
X1307000Y209078D01*
Y210922D01*
X1306523Y212702D01*
X1305601Y214298D01*
X1304298Y215601D01*
X1302702Y216523D01*
X1300922Y217000D01*
D02*
G37*
G36*
X1280922D02*
X1279078D01*
X1277298Y216523D01*
X1275702Y215601D01*
X1274399Y214298D01*
X1273477Y212702D01*
X1273000Y210922D01*
Y209078D01*
X1273477Y207298D01*
X1274399Y205702D01*
X1275702Y204399D01*
X1277298Y203477D01*
X1279078Y203000D01*
X1280922D01*
X1282702Y203477D01*
X1284298Y204399D01*
X1285601Y205702D01*
X1286523Y207298D01*
X1287000Y209078D01*
Y210922D01*
X1286523Y212702D01*
X1285601Y214298D01*
X1284298Y215601D01*
X1282702Y216523D01*
X1280922Y217000D01*
D02*
G37*
G36*
X1260922D02*
X1259078D01*
X1257298Y216523D01*
X1255702Y215601D01*
X1254399Y214298D01*
X1253477Y212702D01*
X1253000Y210922D01*
Y209078D01*
X1253477Y207298D01*
X1254399Y205702D01*
X1255702Y204399D01*
X1257298Y203477D01*
X1259078Y203000D01*
X1260922D01*
X1262702Y203477D01*
X1264298Y204399D01*
X1265601Y205702D01*
X1266523Y207298D01*
X1267000Y209078D01*
Y210922D01*
X1266523Y212702D01*
X1265601Y214298D01*
X1264298Y215601D01*
X1262702Y216523D01*
X1260922Y217000D01*
D02*
G37*
G36*
Y197000D02*
X1259078D01*
X1257298Y196523D01*
X1255702Y195601D01*
X1254399Y194298D01*
X1253477Y192702D01*
X1253000Y190922D01*
Y189078D01*
X1253477Y187298D01*
X1254399Y185702D01*
X1255702Y184399D01*
X1257298Y183477D01*
X1259078Y183000D01*
X1260922D01*
X1262702Y183477D01*
X1264298Y184399D01*
X1265601Y185702D01*
X1266523Y187298D01*
X1267000Y189078D01*
Y190922D01*
X1266523Y192702D01*
X1265601Y194298D01*
X1264298Y195601D01*
X1262702Y196523D01*
X1260922Y197000D01*
D02*
G37*
G36*
X1240922D02*
X1239078D01*
X1237298Y196523D01*
X1235702Y195601D01*
X1234399Y194298D01*
X1233477Y192702D01*
X1233000Y190922D01*
Y189078D01*
X1233477Y187298D01*
X1234399Y185702D01*
X1235702Y184399D01*
X1237298Y183477D01*
X1239078Y183000D01*
X1240922D01*
X1242702Y183477D01*
X1244298Y184399D01*
X1245601Y185702D01*
X1246523Y187298D01*
X1247000Y189078D01*
Y190922D01*
X1246523Y192702D01*
X1245601Y194298D01*
X1244298Y195601D01*
X1242702Y196523D01*
X1240922Y197000D01*
D02*
G37*
G36*
X1320922Y197000D02*
X1319078D01*
X1317298Y196523D01*
X1315702Y195601D01*
X1314399Y194298D01*
X1313477Y192702D01*
X1313000Y190921D01*
Y189078D01*
X1313477Y187298D01*
X1314399Y185702D01*
X1315702Y184399D01*
X1317298Y183477D01*
X1319078Y183000D01*
X1320922D01*
X1322702Y183477D01*
X1324298Y184399D01*
X1325601Y185702D01*
X1326523Y187298D01*
X1327000Y189078D01*
Y190921D01*
X1326523Y192702D01*
X1325601Y194298D01*
X1324298Y195601D01*
X1322702Y196523D01*
X1320922Y197000D01*
D02*
G37*
G36*
X1300922D02*
X1299078D01*
X1297298Y196523D01*
X1295702Y195601D01*
X1294399Y194298D01*
X1293477Y192702D01*
X1293000Y190921D01*
Y189078D01*
X1293477Y187298D01*
X1294399Y185702D01*
X1295702Y184399D01*
X1297298Y183477D01*
X1299078Y183000D01*
X1300922D01*
X1302702Y183477D01*
X1304298Y184399D01*
X1305601Y185702D01*
X1306523Y187298D01*
X1307000Y189078D01*
Y190921D01*
X1306523Y192702D01*
X1305601Y194298D01*
X1304298Y195601D01*
X1302702Y196523D01*
X1300922Y197000D01*
D02*
G37*
G36*
X1280922D02*
X1279078D01*
X1277298Y196523D01*
X1275702Y195601D01*
X1274399Y194298D01*
X1273477Y192702D01*
X1273000Y190921D01*
Y189078D01*
X1273477Y187298D01*
X1274399Y185702D01*
X1275702Y184399D01*
X1277298Y183477D01*
X1279078Y183000D01*
X1280922D01*
X1282702Y183477D01*
X1284298Y184399D01*
X1285601Y185702D01*
X1286523Y187298D01*
X1287000Y189078D01*
Y190921D01*
X1286523Y192702D01*
X1285601Y194298D01*
X1284298Y195601D01*
X1282702Y196523D01*
X1280922Y197000D01*
D02*
G37*
G36*
X1624646Y202500D02*
X1621354D01*
X1618175Y201648D01*
X1615325Y200002D01*
X1612997Y197675D01*
X1611352Y194825D01*
X1610500Y191646D01*
Y188354D01*
X1611352Y185175D01*
X1612997Y182325D01*
X1615325Y179998D01*
X1618175Y178352D01*
X1621354Y177500D01*
X1624646D01*
X1627825Y178352D01*
X1630675Y179998D01*
X1633002Y182325D01*
X1634648Y185175D01*
X1635500Y188354D01*
Y191646D01*
X1634648Y194825D01*
X1633002Y197675D01*
X1630675Y200002D01*
X1627825Y201648D01*
X1624646Y202500D01*
D02*
G37*
G36*
X1421646D02*
X1418354D01*
X1415175Y201648D01*
X1412325Y200002D01*
X1409998Y197675D01*
X1408352Y194825D01*
X1407500Y191646D01*
Y188354D01*
X1408352Y185175D01*
X1409998Y182325D01*
X1412325Y179998D01*
X1415175Y178352D01*
X1418354Y177500D01*
X1421646D01*
X1424825Y178352D01*
X1427675Y179998D01*
X1430002Y182325D01*
X1431648Y185175D01*
X1432500Y188354D01*
Y191646D01*
X1431648Y194825D01*
X1430002Y197675D01*
X1427675Y200002D01*
X1424825Y201648D01*
X1421646Y202500D01*
D02*
G37*
G36*
X1752243Y228500D02*
X1747757D01*
X1743326Y227798D01*
X1739060Y226412D01*
X1735063Y224375D01*
X1731434Y221739D01*
X1728261Y218566D01*
X1725625Y214937D01*
X1723588Y210940D01*
X1722202Y206674D01*
X1721500Y202243D01*
Y197757D01*
X1722202Y193326D01*
X1723588Y189060D01*
X1725625Y185063D01*
X1728261Y181434D01*
X1731434Y178261D01*
X1735063Y175625D01*
X1739060Y173588D01*
X1743326Y172202D01*
X1747757Y171500D01*
X1752243D01*
X1756674Y172202D01*
X1760940Y173588D01*
X1764937Y175625D01*
X1768566Y178261D01*
X1771739Y181434D01*
X1774375Y185063D01*
X1776412Y189060D01*
X1777798Y193326D01*
X1778500Y197757D01*
Y202243D01*
X1777798Y206674D01*
X1776412Y210940D01*
X1774375Y214937D01*
X1771739Y218566D01*
X1768566Y221739D01*
X1764937Y224375D01*
X1760940Y226412D01*
X1756674Y227798D01*
X1752243Y228500D01*
D02*
G37*
G36*
X1320922Y177000D02*
X1319078D01*
X1317298Y176523D01*
X1315702Y175601D01*
X1314399Y174298D01*
X1313477Y172702D01*
X1313000Y170922D01*
Y169078D01*
X1313477Y167298D01*
X1314399Y165702D01*
X1315702Y164399D01*
X1317298Y163477D01*
X1319078Y163000D01*
X1320922D01*
X1322702Y163477D01*
X1324298Y164399D01*
X1325601Y165702D01*
X1326523Y167298D01*
X1327000Y169078D01*
Y170922D01*
X1326523Y172702D01*
X1325601Y174298D01*
X1324298Y175601D01*
X1322702Y176523D01*
X1320922Y177000D01*
D02*
G37*
G36*
X1300922D02*
X1299078D01*
X1297298Y176523D01*
X1295702Y175601D01*
X1294399Y174298D01*
X1293477Y172702D01*
X1293000Y170922D01*
Y169078D01*
X1293477Y167298D01*
X1294399Y165702D01*
X1295702Y164399D01*
X1297298Y163477D01*
X1299078Y163000D01*
X1300922D01*
X1302702Y163477D01*
X1304298Y164399D01*
X1305601Y165702D01*
X1306523Y167298D01*
X1307000Y169078D01*
Y170922D01*
X1306523Y172702D01*
X1305601Y174298D01*
X1304298Y175601D01*
X1302702Y176523D01*
X1300922Y177000D01*
D02*
G37*
G36*
X1280922D02*
X1279078D01*
X1277298Y176523D01*
X1275702Y175601D01*
X1274399Y174298D01*
X1273477Y172702D01*
X1273000Y170922D01*
Y169078D01*
X1273477Y167298D01*
X1274399Y165702D01*
X1275702Y164399D01*
X1277298Y163477D01*
X1279078Y163000D01*
X1280922D01*
X1282702Y163477D01*
X1284298Y164399D01*
X1285601Y165702D01*
X1286523Y167298D01*
X1287000Y169078D01*
Y170922D01*
X1286523Y172702D01*
X1285601Y174298D01*
X1284298Y175601D01*
X1282702Y176523D01*
X1280922Y177000D01*
D02*
G37*
G36*
X1260922D02*
X1259078D01*
X1257298Y176523D01*
X1255702Y175601D01*
X1254399Y174298D01*
X1253477Y172702D01*
X1253000Y170922D01*
Y169078D01*
X1253477Y167298D01*
X1254399Y165702D01*
X1255702Y164399D01*
X1257298Y163477D01*
X1259078Y163000D01*
X1260922D01*
X1262702Y163477D01*
X1264298Y164399D01*
X1265601Y165702D01*
X1266523Y167298D01*
X1267000Y169078D01*
Y170922D01*
X1266523Y172702D01*
X1265601Y174298D01*
X1264298Y175601D01*
X1262702Y176523D01*
X1260922Y177000D01*
D02*
G37*
G36*
X1240922D02*
X1239078D01*
X1237298Y176523D01*
X1235702Y175601D01*
X1234399Y174298D01*
X1233477Y172702D01*
X1233000Y170922D01*
Y169078D01*
X1233477Y167298D01*
X1234399Y165702D01*
X1235702Y164399D01*
X1237298Y163477D01*
X1239078Y163000D01*
X1240922D01*
X1242702Y163477D01*
X1244298Y164399D01*
X1245601Y165702D01*
X1246523Y167298D01*
X1247000Y169078D01*
Y170922D01*
X1246523Y172702D01*
X1245601Y174298D01*
X1244298Y175601D01*
X1242702Y176523D01*
X1240922Y177000D01*
D02*
G37*
G36*
X1320921Y157000D02*
X1319078D01*
X1317298Y156523D01*
X1315702Y155601D01*
X1314399Y154298D01*
X1313477Y152702D01*
X1313000Y150922D01*
Y149078D01*
X1313477Y147298D01*
X1314399Y145702D01*
X1315702Y144399D01*
X1317298Y143477D01*
X1319078Y143000D01*
X1320921D01*
X1322702Y143477D01*
X1324298Y144399D01*
X1325601Y145702D01*
X1326523Y147298D01*
X1327000Y149078D01*
Y150922D01*
X1326523Y152702D01*
X1325601Y154298D01*
X1324298Y155601D01*
X1322702Y156523D01*
X1320921Y157000D01*
D02*
G37*
G36*
X1300922D02*
X1299078D01*
X1297298Y156523D01*
X1295702Y155601D01*
X1294399Y154298D01*
X1293477Y152702D01*
X1293000Y150922D01*
Y149078D01*
X1293477Y147298D01*
X1294399Y145702D01*
X1295702Y144399D01*
X1297298Y143477D01*
X1299078Y143000D01*
X1300922D01*
X1302702Y143477D01*
X1304298Y144399D01*
X1305601Y145702D01*
X1306523Y147298D01*
X1307000Y149078D01*
Y150922D01*
X1306523Y152702D01*
X1305601Y154298D01*
X1304298Y155601D01*
X1302702Y156523D01*
X1300922Y157000D01*
D02*
G37*
G36*
X1280922D02*
X1279078D01*
X1277298Y156523D01*
X1275702Y155601D01*
X1274399Y154298D01*
X1273477Y152702D01*
X1273000Y150922D01*
Y149078D01*
X1273477Y147298D01*
X1274399Y145702D01*
X1275702Y144399D01*
X1277298Y143477D01*
X1279078Y143000D01*
X1280922D01*
X1282702Y143477D01*
X1284298Y144399D01*
X1285601Y145702D01*
X1286523Y147298D01*
X1287000Y149078D01*
Y150922D01*
X1286523Y152702D01*
X1285601Y154298D01*
X1284298Y155601D01*
X1282702Y156523D01*
X1280922Y157000D01*
D02*
G37*
G36*
X1260922D02*
X1259078D01*
X1257298Y156523D01*
X1255702Y155601D01*
X1254399Y154298D01*
X1253477Y152702D01*
X1253000Y150922D01*
Y149078D01*
X1253477Y147298D01*
X1254399Y145702D01*
X1255702Y144399D01*
X1257298Y143477D01*
X1259078Y143000D01*
X1260922D01*
X1262702Y143477D01*
X1264298Y144399D01*
X1265601Y145702D01*
X1266523Y147298D01*
X1267000Y149078D01*
Y150922D01*
X1266523Y152702D01*
X1265601Y154298D01*
X1264298Y155601D01*
X1262702Y156523D01*
X1260922Y157000D01*
D02*
G37*
G36*
X1240922D02*
X1239078D01*
X1237298Y156523D01*
X1235702Y155601D01*
X1234399Y154298D01*
X1233477Y152702D01*
X1233000Y150922D01*
Y149078D01*
X1233477Y147298D01*
X1234399Y145702D01*
X1235702Y144399D01*
X1237298Y143477D01*
X1239078Y143000D01*
X1240922D01*
X1242702Y143477D01*
X1244298Y144399D01*
X1245601Y145702D01*
X1246523Y147298D01*
X1247000Y149078D01*
Y150922D01*
X1246523Y152702D01*
X1245601Y154298D01*
X1244298Y155601D01*
X1242702Y156523D01*
X1240922Y157000D01*
D02*
G37*
G36*
X1320922Y137000D02*
X1319078D01*
X1317298Y136523D01*
X1315702Y135601D01*
X1314399Y134298D01*
X1313477Y132702D01*
X1313000Y130922D01*
Y129078D01*
X1313477Y127298D01*
X1314399Y125702D01*
X1315702Y124399D01*
X1317298Y123477D01*
X1319078Y123000D01*
X1320922D01*
X1322702Y123477D01*
X1324298Y124399D01*
X1325601Y125702D01*
X1326523Y127298D01*
X1327000Y129078D01*
Y130922D01*
X1326523Y132702D01*
X1325601Y134298D01*
X1324298Y135601D01*
X1322702Y136523D01*
X1320922Y137000D01*
D02*
G37*
G36*
X1300922D02*
X1299078D01*
X1297298Y136523D01*
X1295702Y135601D01*
X1294399Y134298D01*
X1293477Y132702D01*
X1293000Y130922D01*
Y129078D01*
X1293477Y127298D01*
X1294399Y125702D01*
X1295702Y124399D01*
X1297298Y123477D01*
X1299078Y123000D01*
X1300922D01*
X1302702Y123477D01*
X1304298Y124399D01*
X1305601Y125702D01*
X1306523Y127298D01*
X1307000Y129078D01*
Y130922D01*
X1306523Y132702D01*
X1305601Y134298D01*
X1304298Y135601D01*
X1302702Y136523D01*
X1300922Y137000D01*
D02*
G37*
G36*
X1280922D02*
X1279078D01*
X1277298Y136523D01*
X1275702Y135601D01*
X1274399Y134298D01*
X1273477Y132702D01*
X1273000Y130922D01*
Y129078D01*
X1273477Y127298D01*
X1274399Y125702D01*
X1275702Y124399D01*
X1277298Y123477D01*
X1279078Y123000D01*
X1280922D01*
X1282702Y123477D01*
X1284298Y124399D01*
X1285601Y125702D01*
X1286523Y127298D01*
X1287000Y129078D01*
Y130922D01*
X1286523Y132702D01*
X1285601Y134298D01*
X1284298Y135601D01*
X1282702Y136523D01*
X1280922Y137000D01*
D02*
G37*
G36*
X1260922D02*
X1259079D01*
X1257298Y136523D01*
X1255702Y135601D01*
X1254399Y134298D01*
X1253477Y132702D01*
X1253000Y130922D01*
Y129078D01*
X1253477Y127298D01*
X1254399Y125702D01*
X1255702Y124399D01*
X1257298Y123477D01*
X1259079Y123000D01*
X1260922D01*
X1262702Y123477D01*
X1264298Y124399D01*
X1265601Y125702D01*
X1266523Y127298D01*
X1267000Y129078D01*
Y130922D01*
X1266523Y132702D01*
X1265601Y134298D01*
X1264298Y135601D01*
X1262702Y136523D01*
X1260922Y137000D01*
D02*
G37*
G36*
X1240922D02*
X1239078D01*
X1237298Y136523D01*
X1235702Y135601D01*
X1234399Y134298D01*
X1233477Y132702D01*
X1233000Y130922D01*
Y129078D01*
X1233477Y127298D01*
X1234399Y125702D01*
X1235702Y124399D01*
X1237298Y123477D01*
X1239078Y123000D01*
X1240922D01*
X1242702Y123477D01*
X1244298Y124399D01*
X1245601Y125702D01*
X1246523Y127298D01*
X1247000Y129078D01*
Y130922D01*
X1246523Y132702D01*
X1245601Y134298D01*
X1244298Y135601D01*
X1242702Y136523D01*
X1240922Y137000D01*
D02*
G37*
G36*
X1220922D02*
X1219079D01*
X1217298Y136523D01*
X1215702Y135601D01*
X1214399Y134298D01*
X1213477Y132702D01*
X1213000Y130922D01*
Y129078D01*
X1213477Y127298D01*
X1214399Y125702D01*
X1215702Y124399D01*
X1217298Y123477D01*
X1219079Y123000D01*
X1220922D01*
X1222702Y123477D01*
X1224298Y124399D01*
X1225601Y125702D01*
X1226523Y127298D01*
X1227000Y129078D01*
Y130922D01*
X1226523Y132702D01*
X1225601Y134298D01*
X1224298Y135601D01*
X1222702Y136523D01*
X1220922Y137000D01*
D02*
G37*
G36*
X976432Y146300D02*
X973167D01*
X970014Y145455D01*
X967186Y143822D01*
X964877Y141514D01*
X963245Y138686D01*
X962400Y135533D01*
Y132268D01*
X963245Y129114D01*
X964877Y126286D01*
X967186Y123977D01*
X970014Y122345D01*
X973167Y121500D01*
X976432D01*
X979586Y122345D01*
X982414Y123977D01*
X984723Y126286D01*
X986355Y129114D01*
X987200Y132268D01*
Y135533D01*
X986355Y138686D01*
X984723Y141514D01*
X982414Y143822D01*
X979586Y145455D01*
X976432Y146300D01*
D02*
G37*
G36*
X1320922Y117000D02*
X1319078D01*
X1317298Y116523D01*
X1315702Y115601D01*
X1314399Y114298D01*
X1313477Y112702D01*
X1313000Y110922D01*
Y109078D01*
X1313477Y107298D01*
X1314399Y105702D01*
X1315702Y104399D01*
X1317298Y103477D01*
X1319078Y103000D01*
X1320922D01*
X1322702Y103477D01*
X1324298Y104399D01*
X1325601Y105702D01*
X1326523Y107298D01*
X1327000Y109078D01*
Y110922D01*
X1326523Y112702D01*
X1325601Y114298D01*
X1324298Y115601D01*
X1322702Y116523D01*
X1320922Y117000D01*
D02*
G37*
G36*
X1300922D02*
X1299078D01*
X1297298Y116523D01*
X1295702Y115601D01*
X1294399Y114298D01*
X1293477Y112702D01*
X1293000Y110922D01*
Y109078D01*
X1293477Y107298D01*
X1294399Y105702D01*
X1295702Y104399D01*
X1297298Y103477D01*
X1299078Y103000D01*
X1300922D01*
X1302702Y103477D01*
X1304298Y104399D01*
X1305601Y105702D01*
X1306523Y107298D01*
X1307000Y109078D01*
Y110922D01*
X1306523Y112702D01*
X1305601Y114298D01*
X1304298Y115601D01*
X1302702Y116523D01*
X1300922Y117000D01*
D02*
G37*
G36*
X1280922D02*
X1279078D01*
X1277298Y116523D01*
X1275702Y115601D01*
X1274399Y114298D01*
X1273477Y112702D01*
X1273000Y110922D01*
Y109078D01*
X1273477Y107298D01*
X1274399Y105702D01*
X1275702Y104399D01*
X1277298Y103477D01*
X1279078Y103000D01*
X1280922D01*
X1282702Y103477D01*
X1284298Y104399D01*
X1285601Y105702D01*
X1286523Y107298D01*
X1287000Y109078D01*
Y110922D01*
X1286523Y112702D01*
X1285601Y114298D01*
X1284298Y115601D01*
X1282702Y116523D01*
X1280922Y117000D01*
D02*
G37*
G36*
X1260922D02*
X1259079D01*
X1257298Y116523D01*
X1255702Y115601D01*
X1254399Y114298D01*
X1253477Y112702D01*
X1253000Y110922D01*
Y109078D01*
X1253477Y107298D01*
X1254399Y105702D01*
X1255702Y104399D01*
X1257298Y103477D01*
X1259079Y103000D01*
X1260922D01*
X1262702Y103477D01*
X1264298Y104399D01*
X1265601Y105702D01*
X1266523Y107298D01*
X1267000Y109078D01*
Y110922D01*
X1266523Y112702D01*
X1265601Y114298D01*
X1264298Y115601D01*
X1262702Y116523D01*
X1260922Y117000D01*
D02*
G37*
G36*
X1240922D02*
X1239078D01*
X1237298Y116523D01*
X1235702Y115601D01*
X1234399Y114298D01*
X1233477Y112702D01*
X1233000Y110922D01*
Y109078D01*
X1233477Y107298D01*
X1234399Y105702D01*
X1235702Y104399D01*
X1237298Y103477D01*
X1239078Y103000D01*
X1240922D01*
X1242702Y103477D01*
X1244298Y104399D01*
X1245601Y105702D01*
X1246523Y107298D01*
X1247000Y109078D01*
Y110922D01*
X1246523Y112702D01*
X1245601Y114298D01*
X1244298Y115601D01*
X1242702Y116523D01*
X1240922Y117000D01*
D02*
G37*
G36*
X1220922D02*
X1219079D01*
X1217298Y116523D01*
X1215702Y115601D01*
X1214399Y114298D01*
X1213477Y112702D01*
X1213000Y110922D01*
Y109078D01*
X1213477Y107298D01*
X1214399Y105702D01*
X1215702Y104399D01*
X1217298Y103477D01*
X1219079Y103000D01*
X1220922D01*
X1222702Y103477D01*
X1224298Y104399D01*
X1225601Y105702D01*
X1226523Y107298D01*
X1227000Y109078D01*
Y110922D01*
X1226523Y112702D01*
X1225601Y114298D01*
X1224298Y115601D01*
X1222702Y116523D01*
X1220922Y117000D01*
D02*
G37*
G36*
X2024563Y111875D02*
X2024500D01*
Y101500D01*
X2034875D01*
Y101563D01*
X2034066Y104584D01*
X2032502Y107291D01*
X2030291Y109502D01*
X2027584Y111066D01*
X2024563Y111875D01*
D02*
G37*
G36*
X2021500D02*
X2021437D01*
X2018416Y111066D01*
X2015709Y109502D01*
X2013498Y107291D01*
X2011934Y104584D01*
X2011125Y101563D01*
Y101500D01*
X2021500D01*
Y111875D01*
D02*
G37*
G36*
X1191497Y111375D02*
X1188503D01*
X1185609Y110600D01*
X1183016Y109102D01*
X1180898Y106984D01*
X1179400Y104391D01*
X1178625Y101497D01*
Y98503D01*
X1179400Y95609D01*
X1180898Y93016D01*
X1183016Y90898D01*
X1185609Y89400D01*
X1188503Y88625D01*
X1191497D01*
X1194391Y89400D01*
X1196984Y90898D01*
X1199102Y93016D01*
X1200600Y95609D01*
X1201375Y98503D01*
Y101497D01*
X1200600Y104391D01*
X1199102Y106984D01*
X1196984Y109102D01*
X1194391Y110600D01*
X1191497Y111375D01*
D02*
G37*
G36*
X2034875Y98500D02*
X2024500D01*
Y88125D01*
X2024563D01*
X2027584Y88934D01*
X2030291Y90498D01*
X2032502Y92709D01*
X2034066Y95416D01*
X2034875Y98437D01*
Y98500D01*
D02*
G37*
G36*
X2021500D02*
X2011125D01*
Y98437D01*
X2011934Y95416D01*
X2013498Y92709D01*
X2015709Y90498D01*
X2018416Y88934D01*
X2021437Y88125D01*
X2021500D01*
Y98500D01*
D02*
G37*
G36*
X1320921Y97000D02*
X1319078D01*
X1317298Y96523D01*
X1315702Y95601D01*
X1314399Y94298D01*
X1313477Y92702D01*
X1313000Y90922D01*
Y89079D01*
X1313477Y87298D01*
X1314399Y85702D01*
X1315702Y84399D01*
X1317298Y83477D01*
X1319078Y83000D01*
X1320921D01*
X1322702Y83477D01*
X1324298Y84399D01*
X1325601Y85702D01*
X1326523Y87298D01*
X1327000Y89079D01*
Y90922D01*
X1326523Y92702D01*
X1325601Y94298D01*
X1324298Y95601D01*
X1322702Y96523D01*
X1320921Y97000D01*
D02*
G37*
G36*
X1300922D02*
X1299078D01*
X1297298Y96523D01*
X1295702Y95601D01*
X1294399Y94298D01*
X1293477Y92702D01*
X1293000Y90922D01*
Y89079D01*
X1293477Y87298D01*
X1294399Y85702D01*
X1295702Y84399D01*
X1297298Y83477D01*
X1299078Y83000D01*
X1300922D01*
X1302702Y83477D01*
X1304298Y84399D01*
X1305601Y85702D01*
X1306523Y87298D01*
X1307000Y89079D01*
Y90922D01*
X1306523Y92702D01*
X1305601Y94298D01*
X1304298Y95601D01*
X1302702Y96523D01*
X1300922Y97000D01*
D02*
G37*
G36*
X1280922D02*
X1279078D01*
X1277298Y96523D01*
X1275702Y95601D01*
X1274399Y94298D01*
X1273477Y92702D01*
X1273000Y90922D01*
Y89079D01*
X1273477Y87298D01*
X1274399Y85702D01*
X1275702Y84399D01*
X1277298Y83477D01*
X1279078Y83000D01*
X1280922D01*
X1282702Y83477D01*
X1284298Y84399D01*
X1285601Y85702D01*
X1286523Y87298D01*
X1287000Y89079D01*
Y90922D01*
X1286523Y92702D01*
X1285601Y94298D01*
X1284298Y95601D01*
X1282702Y96523D01*
X1280922Y97000D01*
D02*
G37*
G36*
X1260922D02*
X1259078D01*
X1257298Y96523D01*
X1255702Y95601D01*
X1254399Y94298D01*
X1253477Y92702D01*
X1253000Y90922D01*
Y89079D01*
X1253477Y87298D01*
X1254399Y85702D01*
X1255702Y84399D01*
X1257298Y83477D01*
X1259078Y83000D01*
X1260922D01*
X1262702Y83477D01*
X1264298Y84399D01*
X1265601Y85702D01*
X1266523Y87298D01*
X1267000Y89079D01*
Y90922D01*
X1266523Y92702D01*
X1265601Y94298D01*
X1264298Y95601D01*
X1262702Y96523D01*
X1260922Y97000D01*
D02*
G37*
G36*
X1240922D02*
X1239078D01*
X1237298Y96523D01*
X1235702Y95601D01*
X1234399Y94298D01*
X1233477Y92702D01*
X1233000Y90922D01*
Y89079D01*
X1233477Y87298D01*
X1234399Y85702D01*
X1235702Y84399D01*
X1237298Y83477D01*
X1239078Y83000D01*
X1240922D01*
X1242702Y83477D01*
X1244298Y84399D01*
X1245601Y85702D01*
X1246523Y87298D01*
X1247000Y89079D01*
Y90922D01*
X1246523Y92702D01*
X1245601Y94298D01*
X1244298Y95601D01*
X1242702Y96523D01*
X1240922Y97000D01*
D02*
G37*
G36*
X1220922D02*
X1219079D01*
X1217298Y96523D01*
X1215702Y95601D01*
X1214399Y94298D01*
X1213477Y92702D01*
X1213000Y90922D01*
Y89079D01*
X1213477Y87298D01*
X1214399Y85702D01*
X1215702Y84399D01*
X1217298Y83477D01*
X1219079Y83000D01*
X1220922D01*
X1222702Y83477D01*
X1224298Y84399D01*
X1225601Y85702D01*
X1226523Y87298D01*
X1227000Y89079D01*
Y90922D01*
X1226523Y92702D01*
X1225601Y94298D01*
X1224298Y95601D01*
X1222702Y96523D01*
X1220922Y97000D01*
D02*
G37*
G36*
X1320921Y77000D02*
X1319078D01*
X1317298Y76523D01*
X1315702Y75601D01*
X1314399Y74298D01*
X1313477Y72702D01*
X1313000Y70922D01*
Y69078D01*
X1313477Y67298D01*
X1314399Y65702D01*
X1315702Y64399D01*
X1317298Y63477D01*
X1319078Y63000D01*
X1320921D01*
X1322702Y63477D01*
X1324298Y64399D01*
X1325601Y65702D01*
X1326523Y67298D01*
X1327000Y69078D01*
Y70922D01*
X1326523Y72702D01*
X1325601Y74298D01*
X1324298Y75601D01*
X1322702Y76523D01*
X1320921Y77000D01*
D02*
G37*
G36*
X1300921D02*
X1299078D01*
X1297298Y76523D01*
X1295702Y75601D01*
X1294399Y74298D01*
X1293477Y72702D01*
X1293000Y70922D01*
Y69078D01*
X1293477Y67298D01*
X1294399Y65702D01*
X1295702Y64399D01*
X1297298Y63477D01*
X1299078Y63000D01*
X1300921D01*
X1302702Y63477D01*
X1304298Y64399D01*
X1305601Y65702D01*
X1306523Y67298D01*
X1307000Y69078D01*
Y70922D01*
X1306523Y72702D01*
X1305601Y74298D01*
X1304298Y75601D01*
X1302702Y76523D01*
X1300921Y77000D01*
D02*
G37*
G36*
X1280921D02*
X1279078D01*
X1277298Y76523D01*
X1275702Y75601D01*
X1274399Y74298D01*
X1273477Y72702D01*
X1273000Y70922D01*
Y69078D01*
X1273477Y67298D01*
X1274399Y65702D01*
X1275702Y64399D01*
X1277298Y63477D01*
X1279078Y63000D01*
X1280921D01*
X1282702Y63477D01*
X1284298Y64399D01*
X1285601Y65702D01*
X1286523Y67298D01*
X1287000Y69078D01*
Y70922D01*
X1286523Y72702D01*
X1285601Y74298D01*
X1284298Y75601D01*
X1282702Y76523D01*
X1280921Y77000D01*
D02*
G37*
G36*
X1260922D02*
X1259078D01*
X1257298Y76523D01*
X1255702Y75601D01*
X1254399Y74298D01*
X1253477Y72702D01*
X1253000Y70922D01*
Y69078D01*
X1253477Y67298D01*
X1254399Y65702D01*
X1255702Y64399D01*
X1257298Y63477D01*
X1259078Y63000D01*
X1260922D01*
X1262702Y63477D01*
X1264298Y64399D01*
X1265601Y65702D01*
X1266523Y67298D01*
X1267000Y69078D01*
Y70922D01*
X1266523Y72702D01*
X1265601Y74298D01*
X1264298Y75601D01*
X1262702Y76523D01*
X1260922Y77000D01*
D02*
G37*
G36*
X1240921D02*
X1239078D01*
X1237298Y76523D01*
X1235702Y75601D01*
X1234399Y74298D01*
X1233477Y72702D01*
X1233000Y70922D01*
Y69078D01*
X1233477Y67298D01*
X1234399Y65702D01*
X1235702Y64399D01*
X1237298Y63477D01*
X1239078Y63000D01*
X1240921D01*
X1242702Y63477D01*
X1244298Y64399D01*
X1245601Y65702D01*
X1246523Y67298D01*
X1247000Y69078D01*
Y70922D01*
X1246523Y72702D01*
X1245601Y74298D01*
X1244298Y75601D01*
X1242702Y76523D01*
X1240921Y77000D01*
D02*
G37*
G36*
X1220922D02*
X1219078D01*
X1217298Y76523D01*
X1215702Y75601D01*
X1214399Y74298D01*
X1213477Y72702D01*
X1213000Y70922D01*
Y69078D01*
X1213477Y67298D01*
X1214399Y65702D01*
X1215702Y64399D01*
X1217298Y63477D01*
X1219078Y63000D01*
X1220922D01*
X1222702Y63477D01*
X1224298Y64399D01*
X1225601Y65702D01*
X1226523Y67298D01*
X1227000Y69078D01*
Y70922D01*
X1226523Y72702D01*
X1225601Y74298D01*
X1224298Y75601D01*
X1222702Y76523D01*
X1220922Y77000D01*
D02*
G37*
G36*
X1200922D02*
X1199078D01*
X1197298Y76523D01*
X1195702Y75601D01*
X1194399Y74298D01*
X1193477Y72702D01*
X1193000Y70922D01*
Y69078D01*
X1193477Y67298D01*
X1194399Y65702D01*
X1195702Y64399D01*
X1197298Y63477D01*
X1199078Y63000D01*
X1200922D01*
X1202702Y63477D01*
X1204298Y64399D01*
X1205601Y65702D01*
X1206523Y67298D01*
X1207000Y69078D01*
Y70922D01*
X1206523Y72702D01*
X1205601Y74298D01*
X1204298Y75601D01*
X1202702Y76523D01*
X1200922Y77000D01*
D02*
G37*
G36*
X1180922D02*
X1179078D01*
X1177298Y76523D01*
X1175702Y75601D01*
X1174399Y74298D01*
X1173477Y72702D01*
X1173000Y70922D01*
Y69078D01*
X1173477Y67298D01*
X1174399Y65702D01*
X1175702Y64399D01*
X1177298Y63477D01*
X1179078Y63000D01*
X1180922D01*
X1182702Y63477D01*
X1184298Y64399D01*
X1185601Y65702D01*
X1186523Y67298D01*
X1187000Y69078D01*
Y70922D01*
X1186523Y72702D01*
X1185601Y74298D01*
X1184298Y75601D01*
X1182702Y76523D01*
X1180922Y77000D01*
D02*
G37*
G36*
X1320921Y57000D02*
X1319078D01*
X1317298Y56523D01*
X1315702Y55601D01*
X1314399Y54298D01*
X1313477Y52702D01*
X1313000Y50922D01*
Y49078D01*
X1313477Y47298D01*
X1314399Y45702D01*
X1315702Y44399D01*
X1317298Y43477D01*
X1319078Y43000D01*
X1320921D01*
X1322702Y43477D01*
X1324298Y44399D01*
X1325601Y45702D01*
X1326523Y47298D01*
X1327000Y49078D01*
Y50922D01*
X1326523Y52702D01*
X1325601Y54298D01*
X1324298Y55601D01*
X1322702Y56523D01*
X1320921Y57000D01*
D02*
G37*
G36*
X1300921D02*
X1299078D01*
X1297298Y56523D01*
X1295702Y55601D01*
X1294399Y54298D01*
X1293477Y52702D01*
X1293000Y50922D01*
Y49078D01*
X1293477Y47298D01*
X1294399Y45702D01*
X1295702Y44399D01*
X1297298Y43477D01*
X1299078Y43000D01*
X1300921D01*
X1302702Y43477D01*
X1304298Y44399D01*
X1305601Y45702D01*
X1306523Y47298D01*
X1307000Y49078D01*
Y50922D01*
X1306523Y52702D01*
X1305601Y54298D01*
X1304298Y55601D01*
X1302702Y56523D01*
X1300921Y57000D01*
D02*
G37*
G36*
X1280921D02*
X1279078D01*
X1277298Y56523D01*
X1275702Y55601D01*
X1274399Y54298D01*
X1273477Y52702D01*
X1273000Y50922D01*
Y49078D01*
X1273477Y47298D01*
X1274399Y45702D01*
X1275702Y44399D01*
X1277298Y43477D01*
X1279078Y43000D01*
X1280921D01*
X1282702Y43477D01*
X1284298Y44399D01*
X1285601Y45702D01*
X1286523Y47298D01*
X1287000Y49078D01*
Y50922D01*
X1286523Y52702D01*
X1285601Y54298D01*
X1284298Y55601D01*
X1282702Y56523D01*
X1280921Y57000D01*
D02*
G37*
G36*
X1260921D02*
X1259078D01*
X1257298Y56523D01*
X1255702Y55601D01*
X1254399Y54298D01*
X1253477Y52702D01*
X1253000Y50922D01*
Y49078D01*
X1253477Y47298D01*
X1254399Y45702D01*
X1255702Y44399D01*
X1257298Y43477D01*
X1259078Y43000D01*
X1260921D01*
X1262702Y43477D01*
X1264298Y44399D01*
X1265601Y45702D01*
X1266523Y47298D01*
X1267000Y49078D01*
Y50922D01*
X1266523Y52702D01*
X1265601Y54298D01*
X1264298Y55601D01*
X1262702Y56523D01*
X1260921Y57000D01*
D02*
G37*
G36*
X1240921D02*
X1239078D01*
X1237298Y56523D01*
X1235702Y55601D01*
X1234399Y54298D01*
X1233477Y52702D01*
X1233000Y50922D01*
Y49078D01*
X1233477Y47298D01*
X1234399Y45702D01*
X1235702Y44399D01*
X1237298Y43477D01*
X1239078Y43000D01*
X1240921D01*
X1242702Y43477D01*
X1244298Y44399D01*
X1245601Y45702D01*
X1246523Y47298D01*
X1247000Y49078D01*
Y50922D01*
X1246523Y52702D01*
X1245601Y54298D01*
X1244298Y55601D01*
X1242702Y56523D01*
X1240921Y57000D01*
D02*
G37*
G36*
X1220922D02*
X1219078D01*
X1217298Y56523D01*
X1215702Y55601D01*
X1214399Y54298D01*
X1213477Y52702D01*
X1213000Y50922D01*
Y49078D01*
X1213477Y47298D01*
X1214399Y45702D01*
X1215702Y44399D01*
X1217298Y43477D01*
X1219078Y43000D01*
X1220922D01*
X1222702Y43477D01*
X1224298Y44399D01*
X1225601Y45702D01*
X1226523Y47298D01*
X1227000Y49078D01*
Y50922D01*
X1226523Y52702D01*
X1225601Y54298D01*
X1224298Y55601D01*
X1222702Y56523D01*
X1220922Y57000D01*
D02*
G37*
G36*
X1200922D02*
X1199078D01*
X1197298Y56523D01*
X1195702Y55601D01*
X1194399Y54298D01*
X1193477Y52702D01*
X1193000Y50922D01*
Y49078D01*
X1193477Y47298D01*
X1194399Y45702D01*
X1195702Y44399D01*
X1197298Y43477D01*
X1199078Y43000D01*
X1200922D01*
X1202702Y43477D01*
X1204298Y44399D01*
X1205601Y45702D01*
X1206523Y47298D01*
X1207000Y49078D01*
Y50922D01*
X1206523Y52702D01*
X1205601Y54298D01*
X1204298Y55601D01*
X1202702Y56523D01*
X1200922Y57000D01*
D02*
G37*
G36*
X1180922D02*
X1179078D01*
X1177298Y56523D01*
X1175702Y55601D01*
X1174399Y54298D01*
X1173477Y52702D01*
X1173000Y50922D01*
Y49078D01*
X1173477Y47298D01*
X1174399Y45702D01*
X1175702Y44399D01*
X1177298Y43477D01*
X1179078Y43000D01*
X1180922D01*
X1182702Y43477D01*
X1184298Y44399D01*
X1185601Y45702D01*
X1186523Y47298D01*
X1187000Y49078D01*
Y50922D01*
X1186523Y52702D01*
X1185601Y54298D01*
X1184298Y55601D01*
X1182702Y56523D01*
X1180922Y57000D01*
D02*
G37*
%LPD*%
G36*
X1989000Y541500D02*
X1969000D01*
Y614000D01*
X1989000D01*
Y541500D01*
D02*
G37*
%LPC*%
G36*
X349394Y707000D02*
X347106D01*
X344993Y706125D01*
X343375Y704507D01*
X342500Y702394D01*
Y701436D01*
X342500Y701145D01*
X340500Y700747D01*
X340367Y701068D01*
X339875Y702257D01*
X338257Y703875D01*
X336144Y704750D01*
X333856D01*
X331743Y703875D01*
X330125Y702257D01*
X329250Y700144D01*
Y697856D01*
X330125Y695743D01*
X331743Y694125D01*
X333856Y693250D01*
X336144D01*
X338257Y694125D01*
X339875Y695743D01*
X340750Y697856D01*
Y698814D01*
X340750Y699105D01*
X342750Y699503D01*
X342883Y699182D01*
X343375Y697993D01*
X344993Y696375D01*
X347106Y695500D01*
X349394D01*
X351507Y696375D01*
X352746Y697614D01*
X354387Y697563D01*
X355022Y697347D01*
X355375Y696493D01*
X356993Y694875D01*
X359106Y694000D01*
X361394D01*
X363507Y694875D01*
X365125Y696493D01*
X366000Y698606D01*
Y700894D01*
X365125Y703007D01*
X363507Y704625D01*
X361394Y705500D01*
X359106D01*
X356993Y704625D01*
X355754Y703386D01*
X354113Y703437D01*
X353478Y703653D01*
X353125Y704507D01*
X351507Y706125D01*
X349394Y707000D01*
D02*
G37*
G36*
X49000Y689000D02*
X41500D01*
Y681500D01*
X49000D01*
Y689000D01*
D02*
G37*
G36*
X38500D02*
X31000D01*
Y681500D01*
X38500D01*
Y689000D01*
D02*
G37*
G36*
X488445Y689033D02*
X486602D01*
X484822Y688556D01*
X483226Y687635D01*
X481922Y686331D01*
X481001Y684735D01*
X480524Y682955D01*
Y681112D01*
X481001Y679331D01*
X481922Y677735D01*
X483226Y676432D01*
X484822Y675510D01*
X486602Y675033D01*
X488445D01*
X490226Y675510D01*
X491822Y676432D01*
X493125Y677735D01*
X494047Y679331D01*
X494524Y681112D01*
Y682955D01*
X494047Y684735D01*
X493125Y686331D01*
X491822Y687635D01*
X490226Y688556D01*
X488445Y689033D01*
D02*
G37*
G36*
X49000Y678500D02*
X41500D01*
Y671000D01*
X49000D01*
Y678500D01*
D02*
G37*
G36*
X38500D02*
X31000D01*
Y671000D01*
X38500D01*
Y678500D01*
D02*
G37*
G36*
X298644Y679206D02*
X296356D01*
X294243Y678331D01*
X292625Y676714D01*
X291750Y674600D01*
Y672313D01*
X292625Y670199D01*
X294243Y668582D01*
X296356Y667707D01*
X298644D01*
X300757Y668582D01*
X302375Y670199D01*
X303250Y672313D01*
Y674600D01*
X302375Y676714D01*
X300757Y678331D01*
X298644Y679206D01*
D02*
G37*
G36*
X49000Y659000D02*
X41500D01*
Y651500D01*
X49000D01*
Y659000D01*
D02*
G37*
G36*
X38500D02*
X31000D01*
Y651500D01*
X38500D01*
Y659000D01*
D02*
G37*
G36*
X298421Y664500D02*
X296578D01*
X294798Y664023D01*
X293202Y663101D01*
X291899Y661798D01*
X290977Y660202D01*
X290500Y658422D01*
Y656578D01*
X290977Y654798D01*
X291899Y653202D01*
X293202Y651899D01*
X294798Y650977D01*
X296578Y650500D01*
X298421D01*
X300202Y650977D01*
X301798Y651899D01*
X303101Y653202D01*
X304023Y654798D01*
X304500Y656578D01*
Y658422D01*
X304023Y660202D01*
X303101Y661798D01*
X301798Y663101D01*
X300202Y664023D01*
X298421Y664500D01*
D02*
G37*
G36*
X178421D02*
X176578D01*
X174798Y664023D01*
X173202Y663101D01*
X171899Y661798D01*
X170977Y660202D01*
X170500Y658422D01*
Y656578D01*
X170977Y654798D01*
X171899Y653202D01*
X173202Y651899D01*
X174798Y650977D01*
X176578Y650500D01*
X178421D01*
X180202Y650977D01*
X181798Y651899D01*
X183101Y653202D01*
X184023Y654798D01*
X184500Y656578D01*
Y658422D01*
X184023Y660202D01*
X183101Y661798D01*
X181798Y663101D01*
X180202Y664023D01*
X178421Y664500D01*
D02*
G37*
G36*
X168144Y652750D02*
X165856D01*
X163743Y651875D01*
X162125Y650257D01*
X161250Y648144D01*
Y645856D01*
X162125Y643743D01*
X163743Y642125D01*
X165856Y641250D01*
X168144D01*
X170257Y642125D01*
X171875Y643743D01*
X172750Y645856D01*
Y648144D01*
X171875Y650257D01*
X170257Y651875D01*
X168144Y652750D01*
D02*
G37*
G36*
X49000Y648500D02*
X41500D01*
Y641000D01*
X49000D01*
Y648500D01*
D02*
G37*
G36*
X38500D02*
X31000D01*
Y641000D01*
X38500D01*
Y648500D01*
D02*
G37*
G36*
X279821Y652000D02*
X277978D01*
X276198Y651523D01*
X274602Y650601D01*
X273299Y649298D01*
X272377Y647702D01*
X271900Y645922D01*
Y644078D01*
X272377Y642298D01*
X273299Y640702D01*
X274602Y639399D01*
X276198Y638477D01*
X277978Y638000D01*
X279821D01*
X281602Y638477D01*
X283198Y639399D01*
X284501Y640702D01*
X285423Y642298D01*
X285900Y644078D01*
Y645922D01*
X285423Y647702D01*
X284501Y649298D01*
X283198Y650601D01*
X281602Y651523D01*
X279821Y652000D01*
D02*
G37*
G36*
X403422Y645949D02*
X401578D01*
X399798Y645472D01*
X398202Y644550D01*
X396899Y643247D01*
X395977Y641651D01*
X395500Y639871D01*
Y638027D01*
X395977Y636247D01*
X396899Y634651D01*
X398202Y633348D01*
X399798Y632426D01*
X401578Y631949D01*
X403422D01*
X405202Y632426D01*
X406798Y633348D01*
X408101Y634651D01*
X409023Y636247D01*
X409500Y638027D01*
Y639871D01*
X409023Y641651D01*
X408101Y643247D01*
X406798Y644550D01*
X405202Y645472D01*
X403422Y645949D01*
D02*
G37*
G36*
X227644Y633750D02*
X225356D01*
X223243Y632875D01*
X221625Y631257D01*
X221209Y630251D01*
X220086Y629187D01*
X218802Y629270D01*
X217644Y629750D01*
X215356D01*
X213243Y628875D01*
X211625Y627257D01*
X210750Y625144D01*
Y624598D01*
X210168Y622823D01*
X208902Y622750D01*
X207856D01*
X205743Y621875D01*
X204125Y620257D01*
X203250Y618144D01*
Y615856D01*
X204125Y613743D01*
X205743Y612125D01*
X207856Y611250D01*
X210144D01*
X212257Y612125D01*
X213875Y613743D01*
X214750Y615856D01*
Y616402D01*
X215332Y618177D01*
X216598Y618250D01*
X217644D01*
X219757Y619125D01*
X221375Y620743D01*
X221791Y621749D01*
X222914Y622813D01*
X224198Y622730D01*
X225356Y622250D01*
X227644D01*
X229757Y623125D01*
X231375Y624743D01*
X232250Y626856D01*
Y629144D01*
X231375Y631257D01*
X229757Y632875D01*
X227644Y633750D01*
D02*
G37*
G36*
X41119Y638500D02*
X38881D01*
X36719Y637921D01*
X34781Y636802D01*
X33198Y635219D01*
X32079Y633281D01*
X31500Y631119D01*
Y628881D01*
X32079Y626719D01*
X33198Y624781D01*
X34781Y623198D01*
X36719Y622079D01*
X38881Y621500D01*
X41119D01*
X43281Y622079D01*
X45219Y623198D01*
X46802Y624781D01*
X47921Y626719D01*
X48500Y628881D01*
Y631119D01*
X47921Y633281D01*
X46802Y635219D01*
X45219Y636802D01*
X43281Y637921D01*
X41119Y638500D01*
D02*
G37*
G36*
X349922Y633483D02*
X348078D01*
X346298Y633006D01*
X344702Y632084D01*
X343399Y630781D01*
X342477Y629185D01*
X342000Y627405D01*
Y625561D01*
X342151Y624997D01*
X340761Y623020D01*
X340716Y623000D01*
X339856D01*
X337743Y622125D01*
X336125Y620507D01*
X335250Y618394D01*
Y616106D01*
X336125Y613993D01*
X337743Y612375D01*
X339856Y611500D01*
X342144D01*
X344257Y612375D01*
X345875Y613993D01*
X346750Y616106D01*
Y617768D01*
X347705Y619001D01*
X348464Y619483D01*
X349922D01*
X351702Y619960D01*
X353298Y620882D01*
X354601Y622185D01*
X355523Y623781D01*
X356000Y625561D01*
Y627405D01*
X355523Y629185D01*
X354601Y630781D01*
X353298Y632084D01*
X351702Y633006D01*
X349922Y633483D01*
D02*
G37*
G36*
X480090Y608940D02*
X473000D01*
Y601850D01*
X480090D01*
Y608940D01*
D02*
G37*
G36*
X470000D02*
X462910D01*
Y601850D01*
X470000D01*
Y608940D01*
D02*
G37*
G36*
X49000Y609000D02*
X41500D01*
Y601500D01*
X49000D01*
Y609000D01*
D02*
G37*
G36*
X38500D02*
X31000D01*
Y601500D01*
X38500D01*
Y609000D01*
D02*
G37*
G36*
X151922Y611000D02*
X150078D01*
X148298Y610523D01*
X146702Y609601D01*
X145399Y608298D01*
X144477Y606702D01*
X144000Y604922D01*
Y603078D01*
X144477Y601298D01*
X145399Y599702D01*
X146702Y598399D01*
X148298Y597477D01*
X150078Y597000D01*
X151922D01*
X153702Y597477D01*
X155298Y598399D01*
X156601Y599702D01*
X157523Y601298D01*
X158000Y603078D01*
Y604922D01*
X157523Y606702D01*
X156601Y608298D01*
X155298Y609601D01*
X153702Y610523D01*
X151922Y611000D01*
D02*
G37*
G36*
X371144Y604259D02*
X368856D01*
X366743Y603383D01*
X365125Y601766D01*
X364250Y599652D01*
Y597365D01*
X365125Y595251D01*
X366743Y593634D01*
X368856Y592759D01*
X371144D01*
X373257Y593634D01*
X374875Y595251D01*
X375750Y597365D01*
Y599652D01*
X374875Y601766D01*
X373257Y603383D01*
X371144Y604259D01*
D02*
G37*
G36*
X497965Y608440D02*
X495835D01*
X493777Y607889D01*
X491933Y606824D01*
X490426Y605317D01*
X489361Y603473D01*
X488810Y601415D01*
Y599285D01*
X489361Y597227D01*
X490426Y595383D01*
X491933Y593876D01*
X493777Y592811D01*
X495835Y592260D01*
X497965D01*
X500023Y592811D01*
X501867Y593876D01*
X503374Y595383D01*
X504439Y597227D01*
X504990Y599285D01*
Y601415D01*
X504439Y603473D01*
X503374Y605317D01*
X501867Y606824D01*
X500023Y607889D01*
X497965Y608440D01*
D02*
G37*
G36*
X480090Y598850D02*
X473000D01*
Y591760D01*
X480090D01*
Y598850D01*
D02*
G37*
G36*
X470000D02*
X462910D01*
Y591760D01*
X470000D01*
Y598850D01*
D02*
G37*
G36*
X49000Y598500D02*
X41500D01*
Y591000D01*
X49000D01*
Y598500D01*
D02*
G37*
G36*
X38500D02*
X31000D01*
Y591000D01*
X38500D01*
Y598500D01*
D02*
G37*
G36*
X379144Y590750D02*
X376856D01*
X374743Y589875D01*
X373125Y588257D01*
X372250Y586144D01*
Y583856D01*
X373125Y581743D01*
X374743Y580125D01*
X376856Y579250D01*
X379144D01*
X381257Y580125D01*
X382875Y581743D01*
X383750Y583856D01*
Y586144D01*
X382875Y588257D01*
X381257Y589875D01*
X379144Y590750D01*
D02*
G37*
G36*
X209394Y594000D02*
X207106D01*
X204993Y593125D01*
X203375Y591507D01*
X202500Y589394D01*
Y587106D01*
X203375Y584993D01*
X204993Y583375D01*
X205645Y583105D01*
X206125Y580757D01*
X205250Y578644D01*
Y576356D01*
X206125Y574243D01*
X207743Y572625D01*
X209856Y571750D01*
X212144D01*
X214257Y572625D01*
X215875Y574243D01*
X216750Y576356D01*
Y578644D01*
X215875Y580757D01*
X214257Y582375D01*
X213605Y582645D01*
X213125Y584993D01*
X214000Y587106D01*
Y589394D01*
X213125Y591507D01*
X211507Y593125D01*
X209394Y594000D01*
D02*
G37*
G36*
X196144Y583250D02*
X193856D01*
X191743Y582375D01*
X190125Y580757D01*
X189250Y578644D01*
Y576356D01*
X190125Y574243D01*
X191743Y572625D01*
X193856Y571750D01*
X196144D01*
X198257Y572625D01*
X199875Y574243D01*
X200750Y576356D01*
Y578644D01*
X199875Y580757D01*
X198257Y582375D01*
X196144Y583250D01*
D02*
G37*
G36*
X41119Y588500D02*
X38881D01*
X36719Y587921D01*
X34781Y586802D01*
X33198Y585219D01*
X32079Y583281D01*
X31500Y581119D01*
Y578881D01*
X32079Y576719D01*
X33198Y574781D01*
X34781Y573198D01*
X36719Y572079D01*
X38881Y571500D01*
X41119D01*
X43281Y572079D01*
X45219Y573198D01*
X46802Y574781D01*
X47921Y576719D01*
X48500Y578881D01*
Y581119D01*
X47921Y583281D01*
X46802Y585219D01*
X45219Y586802D01*
X43281Y587921D01*
X41119Y588500D01*
D02*
G37*
G36*
X328144Y565750D02*
X325856D01*
X323743Y564875D01*
X322125Y563257D01*
X321250Y561144D01*
Y558856D01*
X322125Y556743D01*
X323743Y555125D01*
X325856Y554250D01*
X328144D01*
X330257Y555125D01*
X331875Y556743D01*
X332750Y558856D01*
Y561144D01*
X331875Y563257D01*
X330257Y564875D01*
X328144Y565750D01*
D02*
G37*
G36*
X193144Y546750D02*
X190856D01*
X188743Y545875D01*
X187125Y544257D01*
X186250Y542144D01*
Y540042D01*
X185631Y539359D01*
X184626Y538550D01*
X184144Y538750D01*
X181856D01*
X179743Y537875D01*
X178125Y536257D01*
X177250Y534144D01*
Y531856D01*
X178125Y529743D01*
X179743Y528125D01*
X181856Y527250D01*
X184144D01*
X186257Y528125D01*
X187875Y529743D01*
X188750Y531856D01*
Y533958D01*
X189369Y534641D01*
X190374Y535450D01*
X190856Y535250D01*
X193144D01*
X195257Y536125D01*
X196875Y537743D01*
X197750Y539856D01*
Y542144D01*
X196875Y544257D01*
X195257Y545875D01*
X193144Y546750D01*
D02*
G37*
G36*
X313922Y547750D02*
X312078D01*
X310298Y547273D01*
X308702Y546351D01*
X307399Y545048D01*
X306477Y543452D01*
X306000Y541672D01*
Y539828D01*
X306477Y538048D01*
X307399Y536452D01*
X308702Y535149D01*
X310298Y534227D01*
X312078Y533750D01*
X313922D01*
X315702Y534227D01*
X317298Y535149D01*
X318601Y536452D01*
X319523Y538048D01*
X320000Y539828D01*
Y541672D01*
X319523Y543452D01*
X318601Y545048D01*
X317298Y546351D01*
X315702Y547273D01*
X313922Y547750D01*
D02*
G37*
G36*
X233894Y543500D02*
X231606D01*
X229493Y542625D01*
X227875Y541007D01*
X227000Y538894D01*
Y536606D01*
X227875Y534493D01*
X229493Y532875D01*
X231606Y532000D01*
X233894D01*
X236007Y532875D01*
X237625Y534493D01*
X238500Y536606D01*
Y538894D01*
X237625Y541007D01*
X236007Y542625D01*
X233894Y543500D01*
D02*
G37*
G36*
X205144Y519286D02*
X202856D01*
X200743Y518410D01*
X199125Y516793D01*
X198250Y514679D01*
Y512392D01*
X198732Y511228D01*
X197619Y510207D01*
X197101Y509939D01*
X195144Y510750D01*
X192856D01*
X190743Y509875D01*
X189125Y508257D01*
X188363Y506417D01*
X188131Y506093D01*
X186250Y505292D01*
X185144Y505750D01*
X182856D01*
X180743Y504875D01*
X179125Y503257D01*
X178250Y501144D01*
Y498856D01*
X179125Y496743D01*
X180743Y495125D01*
X182856Y494250D01*
X185144D01*
X187257Y495125D01*
X188875Y496743D01*
X189637Y498583D01*
X189869Y498907D01*
X191750Y499708D01*
X192856Y499250D01*
X195144D01*
X197016Y497861D01*
X197375Y496993D01*
X198993Y495375D01*
X201106Y494500D01*
X203394D01*
X205507Y495375D01*
X207125Y496993D01*
X208000Y499106D01*
Y501394D01*
X207125Y503507D01*
X205507Y505125D01*
X203911Y505785D01*
X204287Y507674D01*
X205144Y507785D01*
X206069Y508169D01*
X207257Y508661D01*
X208875Y510278D01*
X209750Y512392D01*
Y514679D01*
X208875Y516793D01*
X207257Y518410D01*
X205144Y519286D01*
D02*
G37*
G36*
X150144Y520750D02*
X147856D01*
X145743Y519875D01*
X144125Y518257D01*
X143250Y516144D01*
Y513856D01*
X144125Y511743D01*
X145743Y510125D01*
X147856Y509250D01*
X150144D01*
X152257Y510125D01*
X153875Y511743D01*
X154750Y513856D01*
Y516144D01*
X153875Y518257D01*
X152257Y519875D01*
X150144Y520750D01*
D02*
G37*
G36*
X120922Y492000D02*
X119079D01*
X117298Y491523D01*
X115702Y490601D01*
X114399Y489298D01*
X113477Y487702D01*
X113000Y485922D01*
Y484078D01*
X113477Y482298D01*
X114399Y480702D01*
X115702Y479399D01*
X117298Y478477D01*
X119079Y478000D01*
X120922D01*
X122702Y478477D01*
X124298Y479399D01*
X125601Y480702D01*
X126523Y482298D01*
X127000Y484078D01*
Y485922D01*
X126523Y487702D01*
X125601Y489298D01*
X124298Y490601D01*
X122702Y491523D01*
X120922Y492000D01*
D02*
G37*
G36*
X254922Y481438D02*
X253078D01*
X251298Y480961D01*
X249702Y480040D01*
X248399Y478736D01*
X247477Y477140D01*
X247000Y475360D01*
Y473517D01*
X247477Y471736D01*
X248399Y470140D01*
X249702Y468837D01*
X251298Y467915D01*
X253078Y467438D01*
X254922D01*
X256702Y467915D01*
X258298Y468837D01*
X259601Y470140D01*
X260523Y471736D01*
X261000Y473517D01*
Y475360D01*
X260523Y477140D01*
X259601Y478736D01*
X258298Y480040D01*
X256702Y480961D01*
X254922Y481438D01*
D02*
G37*
G36*
X165144Y475750D02*
X162856D01*
X160743Y474875D01*
X159125Y473257D01*
X158250Y471144D01*
Y468856D01*
X159125Y466743D01*
X160743Y465125D01*
X162856Y464250D01*
X165144D01*
X167257Y465125D01*
X168875Y466743D01*
X169750Y468856D01*
Y471144D01*
X168875Y473257D01*
X167257Y474875D01*
X165144Y475750D01*
D02*
G37*
G36*
Y461750D02*
X162856D01*
X160743Y460875D01*
X159125Y459257D01*
X158250Y457144D01*
Y454856D01*
X159125Y452743D01*
X160743Y451125D01*
X162856Y450250D01*
X165144D01*
X167257Y451125D01*
X168875Y452743D01*
X169750Y454856D01*
Y457144D01*
X168875Y459257D01*
X167257Y460875D01*
X165144Y461750D01*
D02*
G37*
G36*
X203144Y459750D02*
X200856D01*
X198743Y458875D01*
X197125Y457257D01*
X196250Y455144D01*
Y452856D01*
X197125Y450743D01*
X198743Y449125D01*
X200856Y448250D01*
X203144D01*
X205257Y449125D01*
X206875Y450743D01*
X207750Y452856D01*
Y455144D01*
X206875Y457257D01*
X205257Y458875D01*
X203144Y459750D01*
D02*
G37*
G36*
X266644Y451250D02*
X264356D01*
X262243Y450375D01*
X260625Y448757D01*
X259750Y446644D01*
Y444356D01*
X260625Y442243D01*
X262243Y440625D01*
X264356Y439750D01*
X266644D01*
X268757Y440625D01*
X270375Y442243D01*
X271250Y444356D01*
Y446644D01*
X270375Y448757D01*
X268757Y450375D01*
X266644Y451250D01*
D02*
G37*
G36*
X301250Y443856D02*
X298963D01*
X296849Y442981D01*
X295232Y441364D01*
X294356Y439250D01*
Y436963D01*
X295232Y434849D01*
X296849Y433232D01*
X298963Y432356D01*
X301250D01*
X303364Y433232D01*
X304981Y434849D01*
X305856Y436963D01*
Y439250D01*
X304981Y441364D01*
X303364Y442981D01*
X301250Y443856D01*
D02*
G37*
G36*
X282144Y436750D02*
X279856D01*
X277743Y435875D01*
X276125Y434257D01*
X275250Y432144D01*
Y429856D01*
X276125Y427743D01*
X277743Y426125D01*
X279856Y425250D01*
X282144D01*
X284257Y426125D01*
X285875Y427743D01*
X286750Y429856D01*
Y432144D01*
X285875Y434257D01*
X284257Y435875D01*
X282144Y436750D01*
D02*
G37*
G36*
X251922Y441000D02*
X250078D01*
X248298Y440523D01*
X246702Y439601D01*
X245399Y438298D01*
X244477Y436702D01*
X244000Y434922D01*
Y433078D01*
X244477Y431298D01*
X245399Y429702D01*
X246702Y428399D01*
X248298Y427477D01*
X250078Y427000D01*
X251272D01*
X252184Y425212D01*
X252200Y425100D01*
X251399Y424298D01*
X250477Y422702D01*
X250000Y420922D01*
Y419078D01*
X250477Y417298D01*
X251399Y415702D01*
X252702Y414399D01*
X254298Y413477D01*
X256078Y413000D01*
X257922D01*
X259702Y413477D01*
X261298Y414399D01*
X262601Y415702D01*
X263523Y417298D01*
X264000Y419078D01*
Y420922D01*
X263523Y422702D01*
X262601Y424298D01*
X261298Y425601D01*
X259702Y426523D01*
X257922Y427000D01*
X256728D01*
X255816Y428788D01*
X255800Y428900D01*
X256601Y429702D01*
X257523Y431298D01*
X258000Y433078D01*
Y434922D01*
X257523Y436702D01*
X256601Y438298D01*
X255298Y439601D01*
X253702Y440523D01*
X251922Y441000D01*
D02*
G37*
G36*
X227644Y415750D02*
X225356D01*
X223243Y414875D01*
X221625Y413257D01*
X220750Y411144D01*
Y408856D01*
X221625Y406743D01*
X223243Y405125D01*
X225356Y404250D01*
X227644D01*
X229757Y405125D01*
X231375Y406743D01*
X232250Y408856D01*
Y411144D01*
X231375Y413257D01*
X229757Y414875D01*
X227644Y415750D01*
D02*
G37*
G36*
X78500Y421000D02*
X61500D01*
Y404000D01*
X78500D01*
Y421000D01*
D02*
G37*
G36*
X51119D02*
X48881D01*
X46719Y420421D01*
X44781Y419302D01*
X43198Y417719D01*
X42079Y415781D01*
X41500Y413619D01*
Y411381D01*
X42079Y409219D01*
X43198Y407281D01*
X44781Y405698D01*
X46719Y404579D01*
X48881Y404000D01*
X51119D01*
X53281Y404579D01*
X55219Y405698D01*
X56802Y407281D01*
X57921Y409219D01*
X58500Y411381D01*
Y413619D01*
X57921Y415781D01*
X56802Y417719D01*
X55219Y419302D01*
X53281Y420421D01*
X51119Y421000D01*
D02*
G37*
G36*
X257922Y402500D02*
X256078D01*
X254298Y402023D01*
X252702Y401101D01*
X251399Y399798D01*
X250477Y398202D01*
X250000Y396422D01*
Y394578D01*
X250477Y392798D01*
X251399Y391202D01*
X252702Y389899D01*
X254298Y388977D01*
X256078Y388500D01*
X257922D01*
X259702Y388977D01*
X261298Y389899D01*
X262601Y391202D01*
X263523Y392798D01*
X264000Y394578D01*
Y396422D01*
X263523Y398202D01*
X262601Y399798D01*
X261298Y401101D01*
X259702Y402023D01*
X257922Y402500D01*
D02*
G37*
G36*
X335000Y395785D02*
Y387500D01*
X343285D01*
X342669Y389798D01*
X341374Y392042D01*
X339542Y393874D01*
X337298Y395169D01*
X335000Y395785D01*
D02*
G37*
G36*
X332000D02*
X329702Y395169D01*
X327458Y393874D01*
X325626Y392042D01*
X324331Y389798D01*
X323715Y387500D01*
X332000D01*
Y395785D01*
D02*
G37*
G36*
X227644Y390750D02*
X225356D01*
X223243Y389875D01*
X221625Y388257D01*
X220750Y386144D01*
Y383856D01*
X221625Y381743D01*
X223243Y380125D01*
X225356Y379250D01*
X227644D01*
X229757Y380125D01*
X231375Y381743D01*
X232250Y383856D01*
Y386144D01*
X231375Y388257D01*
X229757Y389875D01*
X227644Y390750D01*
D02*
G37*
G36*
X179144Y394750D02*
X176856D01*
X174743Y393875D01*
X173125Y392257D01*
X172250Y390144D01*
Y387856D01*
X173125Y385743D01*
X174743Y384125D01*
X176856Y383250D01*
X179144D01*
X181257Y384125D01*
X181696Y384564D01*
X184055Y384095D01*
X184201Y383743D01*
X185819Y382125D01*
X187932Y381250D01*
X190220D01*
X192333Y382125D01*
X192402Y382194D01*
X194657Y381621D01*
X195125Y380492D01*
X196742Y378875D01*
X198856Y377999D01*
X201143D01*
X203257Y378875D01*
X204874Y380492D01*
X205750Y382605D01*
Y384893D01*
X204874Y387006D01*
X203257Y388624D01*
X201143Y389499D01*
X198856D01*
X196742Y388624D01*
X196674Y388555D01*
X194418Y389128D01*
X193950Y390257D01*
X192333Y391875D01*
X190220Y392750D01*
X187932D01*
X185819Y391875D01*
X185380Y391436D01*
X183020Y391905D01*
X182875Y392257D01*
X181257Y393875D01*
X179144Y394750D01*
D02*
G37*
G36*
X360130Y395340D02*
X357670D01*
X355295Y394703D01*
X353165Y393474D01*
X351426Y391735D01*
X350197Y389605D01*
X349560Y387230D01*
Y384770D01*
X350197Y382395D01*
X351426Y380265D01*
X353165Y378526D01*
X355295Y377296D01*
X357670Y376660D01*
X360130D01*
X362505Y377296D01*
X364635Y378526D01*
X366374Y380265D01*
X367604Y382395D01*
X368240Y384770D01*
Y387230D01*
X367604Y389605D01*
X366374Y391735D01*
X364635Y393474D01*
X362505Y394703D01*
X360130Y395340D01*
D02*
G37*
G36*
X317440D02*
X298760D01*
Y376660D01*
X317440D01*
Y395340D01*
D02*
G37*
G36*
X343285Y384500D02*
X335000D01*
Y376215D01*
X337298Y376831D01*
X339542Y378126D01*
X341374Y379958D01*
X342669Y382202D01*
X343285Y384500D01*
D02*
G37*
G36*
X332000D02*
X323715D01*
X324331Y382202D01*
X325626Y379958D01*
X327458Y378126D01*
X329702Y376831D01*
X332000Y376215D01*
Y384500D01*
D02*
G37*
G36*
X671698Y375400D02*
X671500D01*
Y364000D01*
X682900D01*
Y364198D01*
X682021Y367479D01*
X680322Y370421D01*
X677921Y372822D01*
X674979Y374521D01*
X671698Y375400D01*
D02*
G37*
G36*
X668500D02*
X668302D01*
X665021Y374521D01*
X662079Y372822D01*
X659677Y370421D01*
X657979Y367479D01*
X657100Y364198D01*
Y364000D01*
X668500D01*
Y375400D01*
D02*
G37*
G36*
X682900Y361000D02*
X671500D01*
Y349600D01*
X671698D01*
X674979Y350479D01*
X677921Y352177D01*
X680322Y354579D01*
X682021Y357521D01*
X682900Y360802D01*
Y361000D01*
D02*
G37*
G36*
X668500D02*
X657100D01*
Y360802D01*
X657979Y357521D01*
X659677Y354579D01*
X662079Y352177D01*
X665021Y350479D01*
X668302Y349600D01*
X668500D01*
Y361000D01*
D02*
G37*
G36*
X67500Y375750D02*
X64299D01*
X61160Y375126D01*
X58203Y373900D01*
X55541Y372122D01*
X53278Y369859D01*
X51499Y367197D01*
X50274Y364240D01*
X49650Y361101D01*
Y357900D01*
X50274Y354760D01*
X51499Y351803D01*
X53278Y349141D01*
X55541Y346878D01*
X58203Y345099D01*
X61160Y343875D01*
X64299Y343250D01*
X67500D01*
X70640Y343875D01*
X73597Y345099D01*
X76259Y346878D01*
X78522Y349141D01*
X80300Y351803D01*
X81525Y354760D01*
X82150Y357900D01*
Y361101D01*
X81525Y364240D01*
X80300Y367197D01*
X78522Y369859D01*
X76259Y372122D01*
X73597Y373900D01*
X70640Y375126D01*
X67500Y375750D01*
D02*
G37*
G36*
Y276750D02*
X64299D01*
X61160Y276126D01*
X58203Y274900D01*
X55541Y273122D01*
X53278Y270859D01*
X51499Y268197D01*
X50274Y265240D01*
X49650Y262101D01*
Y258899D01*
X50274Y255760D01*
X51499Y252803D01*
X53278Y250141D01*
X55541Y247878D01*
X58203Y246099D01*
X61160Y244874D01*
X64299Y244250D01*
X67500D01*
X70640Y244874D01*
X73597Y246099D01*
X76259Y247878D01*
X78522Y250141D01*
X80300Y252803D01*
X81525Y255760D01*
X82150Y258899D01*
Y262101D01*
X81525Y265240D01*
X80300Y268197D01*
X78522Y270859D01*
X76259Y273122D01*
X73597Y274900D01*
X70640Y276126D01*
X67500Y276750D01*
D02*
G37*
G36*
X430922Y232000D02*
X429078D01*
X427298Y231523D01*
X425702Y230601D01*
X425000Y229899D01*
X424298Y230601D01*
X422702Y231523D01*
X420922Y232000D01*
X419078D01*
X417298Y231523D01*
X415702Y230601D01*
X415000Y229899D01*
X414298Y230601D01*
X412702Y231523D01*
X410922Y232000D01*
X409078D01*
X407298Y231523D01*
X405702Y230601D01*
X404399Y229298D01*
X403477Y227702D01*
X403000Y225921D01*
Y224078D01*
X403477Y222298D01*
X404399Y220702D01*
X405702Y219399D01*
X407298Y218477D01*
X409078Y218000D01*
X410922D01*
X412702Y218477D01*
X414298Y219399D01*
X415000Y220100D01*
X415702Y219399D01*
X417298Y218477D01*
X419078Y218000D01*
X420922D01*
X422702Y218477D01*
X424298Y219399D01*
X425000Y220100D01*
X425702Y219399D01*
X427298Y218477D01*
X429078Y218000D01*
X430922D01*
X432702Y218477D01*
X434298Y219399D01*
X435601Y220702D01*
X436523Y222298D01*
X437000Y224078D01*
Y225921D01*
X436523Y227702D01*
X435601Y229298D01*
X434298Y230601D01*
X432702Y231523D01*
X430922Y232000D01*
D02*
G37*
G36*
X258672Y234500D02*
X256828D01*
X255048Y234023D01*
X253452Y233101D01*
X252149Y231798D01*
X251227Y230202D01*
X250750Y228422D01*
Y226578D01*
X251227Y224798D01*
X252149Y223202D01*
X253452Y221899D01*
X255048Y220977D01*
X256828Y220500D01*
X258672D01*
X260452Y220977D01*
X262048Y221899D01*
X263351Y223202D01*
X264273Y224798D01*
X264750Y226578D01*
Y228422D01*
X264273Y230202D01*
X263351Y231798D01*
X262048Y233101D01*
X260452Y234023D01*
X258672Y234500D01*
D02*
G37*
G36*
X262422Y216500D02*
X260578D01*
X258798Y216023D01*
X257202Y215101D01*
X255899Y213798D01*
X254977Y212202D01*
X254500Y210422D01*
Y208578D01*
X254977Y206798D01*
X255899Y205202D01*
X257202Y203899D01*
X258798Y202977D01*
X260578Y202500D01*
X262422D01*
X264202Y202977D01*
X265798Y203899D01*
X267101Y205202D01*
X268023Y206798D01*
X268500Y208578D01*
Y210422D01*
X268023Y212202D01*
X267101Y213798D01*
X265798Y215101D01*
X264202Y216023D01*
X262422Y216500D01*
D02*
G37*
G36*
X284144Y193250D02*
X281856D01*
X279743Y192375D01*
X278125Y190757D01*
X277250Y188644D01*
Y186356D01*
X278125Y184243D01*
X279743Y182625D01*
X281856Y181750D01*
X284144D01*
X286257Y182625D01*
X287875Y184243D01*
X288750Y186356D01*
Y188644D01*
X287875Y190757D01*
X286257Y192375D01*
X284144Y193250D01*
D02*
G37*
G36*
X344144Y192750D02*
X341856D01*
X339743Y191875D01*
X338125Y190257D01*
X337250Y188144D01*
Y185856D01*
X338125Y183743D01*
X339743Y182125D01*
X341856Y181250D01*
X344144D01*
X346257Y182125D01*
X347875Y183743D01*
X348750Y185856D01*
Y188144D01*
X347875Y190257D01*
X346257Y191875D01*
X344144Y192750D01*
D02*
G37*
G36*
X263394Y193750D02*
X261106D01*
X258993Y192875D01*
X257375Y191257D01*
X256500Y189144D01*
Y187000D01*
X254356D01*
X252243Y186125D01*
X250625Y184507D01*
X249750Y182394D01*
Y180106D01*
X250625Y177993D01*
X252243Y176375D01*
X254356Y175500D01*
X256644D01*
X258757Y176375D01*
X260375Y177993D01*
X261250Y180106D01*
Y180804D01*
X261763Y181104D01*
X263969Y180515D01*
X264250Y180240D01*
Y179356D01*
X265125Y177243D01*
X266743Y175625D01*
X268856Y174750D01*
X271144D01*
X273257Y175625D01*
X274875Y177243D01*
X275750Y179356D01*
Y181644D01*
X274875Y183757D01*
X273257Y185375D01*
X271144Y186250D01*
X269848D01*
X268674Y186635D01*
X268000Y188060D01*
Y189144D01*
X267125Y191257D01*
X265507Y192875D01*
X263394Y193750D01*
D02*
G37*
G36*
X105144Y172000D02*
X102856D01*
X100743Y171125D01*
X99125Y169507D01*
X98250Y167394D01*
Y165106D01*
X99125Y162993D01*
X100743Y161375D01*
X102856Y160500D01*
X105144D01*
X107257Y161375D01*
X108875Y162993D01*
X109750Y165106D01*
Y167394D01*
X108875Y169507D01*
X107257Y171125D01*
X105144Y172000D01*
D02*
G37*
G36*
X210644Y164250D02*
X208356D01*
X206243Y163375D01*
X204625Y161757D01*
X203750Y159644D01*
Y157356D01*
X204625Y155243D01*
X206243Y153625D01*
X208356Y152750D01*
X210644D01*
X212757Y153625D01*
X214375Y155243D01*
X215250Y157356D01*
Y159644D01*
X214375Y161757D01*
X212757Y163375D01*
X210644Y164250D01*
D02*
G37*
G36*
X671633Y171700D02*
X668367D01*
X665214Y170855D01*
X662386Y169223D01*
X660078Y166914D01*
X658445Y164086D01*
X657600Y160933D01*
Y157668D01*
X658445Y154514D01*
X660078Y151686D01*
X662386Y149377D01*
X665214Y147745D01*
X668367Y146900D01*
X671633D01*
X674786Y147745D01*
X677614Y149377D01*
X679922Y151686D01*
X681555Y154514D01*
X682400Y157668D01*
Y160933D01*
X681555Y164086D01*
X679922Y166914D01*
X677614Y169223D01*
X674786Y170855D01*
X671633Y171700D01*
D02*
G37*
G36*
X250922Y132000D02*
X249078D01*
X247298Y131523D01*
X245702Y130601D01*
X245000Y129900D01*
X244298Y130601D01*
X242702Y131523D01*
X240922Y132000D01*
X239078D01*
X237298Y131523D01*
X235702Y130601D01*
X234399Y129298D01*
X233477Y127702D01*
X233000Y125922D01*
Y124078D01*
X233477Y122298D01*
X234399Y120702D01*
X235100Y120000D01*
X234399Y119298D01*
X233477Y117702D01*
X233000Y115922D01*
Y114078D01*
X233477Y112298D01*
X234399Y110702D01*
X235702Y109399D01*
X237298Y108477D01*
X239078Y108000D01*
X240922D01*
X242702Y108477D01*
X244298Y109399D01*
X245000Y110100D01*
X245702Y109399D01*
X247298Y108477D01*
X249078Y108000D01*
X250922D01*
X252702Y108477D01*
X254298Y109399D01*
X255601Y110702D01*
X256523Y112298D01*
X257000Y114078D01*
Y115922D01*
X256523Y117702D01*
X255601Y119298D01*
X254900Y120000D01*
X255601Y120702D01*
X256523Y122298D01*
X257000Y124078D01*
Y125922D01*
X256523Y127702D01*
X255601Y129298D01*
X254298Y130601D01*
X252702Y131523D01*
X250922Y132000D01*
D02*
G37*
G36*
X380644Y135500D02*
X378356D01*
X376243Y134625D01*
X374625Y133007D01*
X373750Y130894D01*
Y128606D01*
X374625Y126493D01*
X376243Y124875D01*
X378356Y124000D01*
X380644D01*
X382757Y124875D01*
X384375Y126493D01*
X385250Y128606D01*
Y130894D01*
X384375Y133007D01*
X382757Y134625D01*
X380644Y135500D01*
D02*
G37*
G36*
X112250Y123050D02*
X101500D01*
Y112300D01*
X112250D01*
Y123050D01*
D02*
G37*
G36*
X98500D02*
X87750D01*
Y112300D01*
X98500D01*
Y123050D01*
D02*
G37*
G36*
X112250Y109300D02*
X101500D01*
Y98550D01*
X112250D01*
Y109300D01*
D02*
G37*
G36*
X98500D02*
X87750D01*
Y98550D01*
X98500D01*
Y109300D01*
D02*
G37*
G36*
X101547Y71750D02*
X98453D01*
X95465Y70949D01*
X92785Y69402D01*
X90598Y67215D01*
X89051Y64535D01*
X88250Y61547D01*
Y58453D01*
X89051Y55465D01*
X90598Y52785D01*
X92785Y50598D01*
X95465Y49051D01*
X98453Y48250D01*
X101547D01*
X104535Y49051D01*
X107215Y50598D01*
X109402Y52785D01*
X110949Y55465D01*
X111750Y58453D01*
Y61547D01*
X110949Y64535D01*
X109402Y67215D01*
X107215Y69402D01*
X104535Y70949D01*
X101547Y71750D01*
D02*
G37*
G36*
X361144Y45750D02*
X358856D01*
X356743Y44875D01*
X356307Y44438D01*
X355000Y43361D01*
X353693Y44438D01*
X353257Y44875D01*
X351144Y45750D01*
X348856D01*
X346743Y44875D01*
X345125Y43257D01*
X344250Y41144D01*
Y38856D01*
X345125Y36743D01*
X345562Y36307D01*
X346639Y35000D01*
X345562Y33693D01*
X345125Y33257D01*
X344250Y31144D01*
Y28856D01*
X345125Y26743D01*
X346743Y25125D01*
X348856Y24250D01*
X351144D01*
X353257Y25125D01*
X353693Y25562D01*
X355000Y26639D01*
X356307Y25562D01*
X356743Y25125D01*
X358856Y24250D01*
X361144D01*
X363257Y25125D01*
X364875Y26743D01*
X365750Y28856D01*
Y31144D01*
X364875Y33257D01*
X364438Y33693D01*
X363361Y35000D01*
X364438Y36307D01*
X364875Y36743D01*
X365750Y38856D01*
Y41144D01*
X364875Y43257D01*
X363257Y44875D01*
X361144Y45750D01*
D02*
G37*
%LPD*%
D16*
X21500Y781835D02*
Y788500D01*
X28165Y781835D01*
X29831D01*
X31497Y783502D01*
Y786834D01*
X29831Y788500D01*
D113*
X2011350Y642500D02*
X2011637Y642213D01*
D114*
X2022700Y746100D02*
D03*
D116*
X1420000Y715000D02*
D03*
D118*
X100000Y110800D02*
D03*
D120*
X2023000Y100000D02*
D03*
D121*
X1940000Y352500D02*
D03*
D123*
X40000Y680000D02*
D03*
Y600000D02*
D03*
Y650000D02*
D03*
D125*
X598500Y600350D02*
D03*
D126*
X974800Y387900D02*
D03*
X670000Y362500D02*
D03*
D127*
X333500Y386000D02*
D03*
D129*
X471500Y600350D02*
D03*
D131*
X399000Y580000D02*
D03*
Y600000D02*
D03*
X373250Y206125D02*
D03*
X2054500Y642000D02*
D03*
Y602500D02*
D03*
X2022000Y569000D02*
D03*
X2012000Y579000D02*
D03*
X565000Y641000D02*
D03*
X2031000Y530000D02*
D03*
X2012000Y599000D02*
D03*
X2013000Y512000D02*
D03*
X2012000Y589000D02*
D03*
X2022000Y579000D02*
D03*
X822000Y572000D02*
D03*
X2022000Y530000D02*
D03*
X2012000Y559000D02*
D03*
X2022000D02*
D03*
X2012000Y569000D02*
D03*
X868000Y572000D02*
D03*
X2022000Y512000D02*
D03*
Y589000D02*
D03*
X2013000Y530000D02*
D03*
X2040000D02*
D03*
X2031000Y512000D02*
D03*
X2040000Y521000D02*
D03*
X2022000Y599000D02*
D03*
X2031000Y521000D02*
D03*
X2013000D02*
D03*
X2011350Y642500D02*
D03*
X1180000Y249500D02*
D03*
X2022000Y521000D02*
D03*
X2040000Y512000D02*
D03*
X1973850Y599000D02*
D03*
X1983850D02*
D03*
X1973850Y589000D02*
D03*
Y579000D02*
D03*
X1983850Y569000D02*
D03*
X1973850D02*
D03*
X1983850Y559000D02*
D03*
X1973850D02*
D03*
X1983850Y589000D02*
D03*
Y579000D02*
D03*
X312000Y96000D02*
D03*
Y80000D02*
D03*
Y128000D02*
D03*
Y120000D02*
D03*
Y112000D02*
D03*
Y104000D02*
D03*
Y72000D02*
D03*
Y88000D02*
D03*
X360000Y125000D02*
D03*
X368000D02*
D03*
X406500Y176000D02*
D03*
X420000Y165000D02*
D03*
Y176000D02*
D03*
Y186625D02*
D03*
X156000Y166250D02*
D03*
X503000Y641000D02*
D03*
X108760Y288250D02*
D03*
X80000Y206500D02*
D03*
D132*
X1400000Y610000D02*
D03*
Y590000D02*
D03*
Y570000D02*
D03*
Y490000D02*
D03*
Y470000D02*
D03*
Y450000D02*
D03*
Y430000D02*
D03*
Y410000D02*
D03*
Y390000D02*
D03*
Y370000D02*
D03*
Y350000D02*
D03*
Y330000D02*
D03*
Y310000D02*
D03*
Y290000D02*
D03*
Y270000D02*
D03*
Y650000D02*
D03*
Y630000D02*
D03*
X1630000Y610000D02*
D03*
Y590000D02*
D03*
Y570000D02*
D03*
Y490000D02*
D03*
Y470000D02*
D03*
Y450000D02*
D03*
Y430000D02*
D03*
Y410000D02*
D03*
Y390000D02*
D03*
Y370000D02*
D03*
Y350000D02*
D03*
Y330000D02*
D03*
Y310000D02*
D03*
Y290000D02*
D03*
Y270000D02*
D03*
Y650000D02*
D03*
Y630000D02*
D03*
X313000Y213000D02*
D03*
X328500Y809750D02*
D03*
X413000Y774500D02*
D03*
X278900Y755000D02*
D03*
X297500Y617017D02*
D03*
X310000Y527000D02*
D03*
X390000Y639000D02*
D03*
X222500Y657500D02*
D03*
X278900D02*
D03*
X219750Y804750D02*
D03*
X398900Y657500D02*
D03*
X1890000Y140000D02*
D03*
Y100000D02*
D03*
X1930000Y160000D02*
D03*
Y100000D02*
D03*
X1990000Y120000D02*
D03*
X1930000Y140000D02*
D03*
X695000Y627000D02*
D03*
X705000Y637000D02*
D03*
X715000Y627000D02*
D03*
X1990000Y80000D02*
D03*
X2030000Y60000D02*
D03*
X1970000Y80000D02*
D03*
X1890000Y60000D02*
D03*
X2010000Y160000D02*
D03*
X1970000D02*
D03*
X1950000Y120000D02*
D03*
X705000Y647000D02*
D03*
X1930000Y40000D02*
D03*
X1990000D02*
D03*
X1890000Y80000D02*
D03*
X1990000Y160000D02*
D03*
X1910000Y120000D02*
D03*
X1890000Y160000D02*
D03*
X1990000Y100000D02*
D03*
X2010000Y40000D02*
D03*
X1950000Y80000D02*
D03*
X2010000Y140000D02*
D03*
X1970000Y100000D02*
D03*
X1990000Y140000D02*
D03*
X695000Y637000D02*
D03*
X2010000Y60000D02*
D03*
X1910000Y80000D02*
D03*
X1930000Y60000D02*
D03*
X2030000Y160000D02*
D03*
X1950000D02*
D03*
X1910000Y100000D02*
D03*
X1970000Y120000D02*
D03*
X715000Y637000D02*
D03*
X1910000Y60000D02*
D03*
X1950000D02*
D03*
X1970000D02*
D03*
X1910000Y140000D02*
D03*
X705000Y627000D02*
D03*
X1950000Y40000D02*
D03*
X1930000Y80000D02*
D03*
X1890000Y120000D02*
D03*
X1910000Y160000D02*
D03*
X1950000Y140000D02*
D03*
Y100000D02*
D03*
X1930000Y120000D02*
D03*
X715000Y647000D02*
D03*
X695000D02*
D03*
X1970000Y40000D02*
D03*
X1910000D02*
D03*
X2030000D02*
D03*
X2030000Y140000D02*
D03*
X1970000D02*
D03*
X1890000Y40000D02*
D03*
X1990000Y60000D02*
D03*
X189410Y352250D02*
D03*
X485000Y517500D02*
D03*
X472500D02*
D03*
Y530000D02*
D03*
X294500Y586483D02*
D03*
X342500Y657500D02*
D03*
X357258Y501068D02*
D03*
X120000Y515000D02*
D03*
X231000Y178000D02*
D03*
X430000Y315000D02*
D03*
X420000D02*
D03*
X405000Y60000D02*
D03*
Y50000D02*
D03*
X410000Y315000D02*
D03*
X195000Y628000D02*
D03*
X158000Y397000D02*
D03*
X41060Y495000D02*
D03*
X194000Y592500D02*
D03*
X282000Y464000D02*
D03*
X382000Y472000D02*
D03*
X355956Y557483D02*
D03*
X485000Y530000D02*
D03*
X235000Y434000D02*
D03*
X139000Y354000D02*
D03*
X313000Y201750D02*
D03*
M02*
