G04*
G04 #@! TF.GenerationSoftware,Altium Limited,Altium Designer,24.1.2 (44)*
G04*
G04 Layer_Physical_Order=1*
G04 Layer_Color=255*
%FSLAX44Y44*%
%MOMM*%
G71*
G04*
G04 #@! TF.SameCoordinates,B8ECF972-9BC3-4E3D-8DB6-831ADBB15DBB*
G04*
G04*
G04 #@! TF.FilePolarity,Positive*
G04*
G01*
G75*
%ADD10C,0.2000*%
%ADD11C,0.2500*%
%ADD15C,0.2540*%
%ADD16C,0.1500*%
%ADD32R,0.7112X0.2540*%
%ADD34R,0.2540X0.8890*%
%ADD36R,1.7526X5.0292*%
%ADD38R,1.9558X5.0292*%
%ADD44R,0.2400X0.6000*%
%ADD45R,0.6000X0.2400*%
%ADD59R,0.2400X3.4000*%
%ADD60C,0.2970*%
%ADD81R,1.6600X5.4100*%
%ADD82R,1.4750X0.3000*%
%ADD83R,0.3000X1.4750*%
%ADD84R,1.2000X0.4500*%
%ADD85R,1.0000X1.0000*%
%ADD86R,0.6000X1.2000*%
%ADD87R,0.9000X1.0000*%
%ADD88R,1.4000X1.0000*%
%ADD89C,1.5000*%
%ADD90R,0.6500X1.9500*%
%ADD91R,0.9500X1.7500*%
%ADD92R,1.3000X1.8000*%
%ADD93R,3.2500X1.7500*%
%ADD94R,2.7000X1.3000*%
%ADD95R,0.7112X0.5080*%
%ADD96R,1.0000X0.9000*%
%ADD97O,0.6500X1.5500*%
G04:AMPARAMS|DCode=98|XSize=15mm|YSize=2mm|CornerRadius=0.5mm|HoleSize=0mm|Usage=FLASHONLY|Rotation=0.000|XOffset=0mm|YOffset=0mm|HoleType=Round|Shape=RoundedRectangle|*
%AMROUNDEDRECTD98*
21,1,15.0000,1.0000,0,0,0.0*
21,1,14.0000,2.0000,0,0,0.0*
1,1,1.0000,7.0000,-0.5000*
1,1,1.0000,-7.0000,-0.5000*
1,1,1.0000,-7.0000,0.5000*
1,1,1.0000,7.0000,0.5000*
%
%ADD98ROUNDEDRECTD98*%
%ADD99R,2.2000X2.1500*%
%ADD100R,2.6000X8.2000*%
%ADD101R,3.0000X1.6000*%
%ADD102R,1.6000X3.0000*%
%ADD103R,2.2000X2.3000*%
%ADD104R,1.4750X0.4500*%
%ADD105R,0.3556X1.1684*%
%ADD106R,1.8000X1.3000*%
%ADD107R,1.0000X1.0000*%
%ADD108R,1.3000X1.3000*%
%ADD109R,1.9000X1.1000*%
%ADD110R,0.8500X0.4000*%
%ADD111R,1.4000X2.1000*%
%ADD112R,1.1000X0.4500*%
%ADD113C,0.5000*%
%ADD114C,1.1500*%
%ADD115R,1.1500X1.1500*%
%ADD116C,2.1000*%
%ADD117C,5.3000*%
%ADD118R,1.9500X1.9500*%
%ADD119C,1.9500*%
%ADD120C,1.8750*%
%ADD121C,1.7250*%
%ADD122R,1.7250X1.7250*%
%ADD123R,1.3000X1.3000*%
%ADD124C,1.3000*%
%ADD125C,1.2180*%
%ADD126C,2.0800*%
%ADD127C,1.4680*%
%ADD128R,1.4680X1.4680*%
%ADD129R,1.2180X1.2180*%
%ADD130C,2.8500*%
%ADD131C,0.7500*%
%ADD132C,1.0000*%
G36*
X765000Y590000D02*
X730500D01*
Y620000D01*
X765000D01*
Y590000D01*
D02*
G37*
G36*
X679500D02*
X645000D01*
Y620000D01*
X679500D01*
Y590000D01*
D02*
G37*
G36*
X721500Y670814D02*
X705000D01*
X703732Y670561D01*
X702657Y669843D01*
X701939Y668768D01*
X701686Y667500D01*
X701939Y666232D01*
X702657Y665157D01*
X703732Y664438D01*
X705000Y664186D01*
X721500D01*
Y615250D01*
X721250D01*
Y593750D01*
X721500D01*
Y585500D01*
X721000D01*
Y571500D01*
X721500D01*
Y568000D01*
X721000D01*
Y554000D01*
X720348Y553000D01*
X688500D01*
Y593750D01*
X688750D01*
Y615250D01*
X688500D01*
Y676250D01*
X721500D01*
Y670814D01*
D02*
G37*
G36*
X1936500Y541500D02*
X1911500D01*
Y616500D01*
X1936500D01*
Y541500D01*
D02*
G37*
G36*
X2061500Y508000D02*
X2009000D01*
Y536500D01*
X2041500D01*
Y580000D01*
X2061500D01*
Y508000D01*
D02*
G37*
G36*
X1989000Y480000D02*
X1969000D01*
Y536500D01*
X1989000D01*
Y480000D01*
D02*
G37*
G36*
X165000Y390000D02*
X92000D01*
Y405000D01*
X165000D01*
Y390000D01*
D02*
G37*
G36*
X2082500Y375000D02*
X2049779D01*
X2049678Y375763D01*
X2048500Y378608D01*
Y401392D01*
X2049678Y404237D01*
X2050108Y407500D01*
Y430000D01*
X2082500D01*
Y375000D01*
D02*
G37*
G36*
X435000Y275000D02*
X405000D01*
Y320000D01*
X435000D01*
Y275000D01*
D02*
G37*
G36*
X98000Y219000D02*
X3000D01*
Y275000D01*
X15264D01*
X15633Y273785D01*
X15222Y273511D01*
X12889Y271178D01*
X11056Y268434D01*
X9794Y265386D01*
X9150Y262150D01*
Y262000D01*
X25900D01*
X42650D01*
Y262150D01*
X42006Y265386D01*
X40743Y268434D01*
X38910Y271178D01*
X36577Y273511D01*
X36167Y273785D01*
X36536Y275000D01*
X55264D01*
X55633Y273785D01*
X55222Y273511D01*
X52889Y271178D01*
X51056Y268434D01*
X49794Y265386D01*
X49150Y262150D01*
Y262000D01*
X65900D01*
X82650D01*
Y262150D01*
X82006Y265386D01*
X80744Y268434D01*
X78910Y271178D01*
X76577Y273511D01*
X76167Y273785D01*
X76536Y275000D01*
X98000D01*
Y219000D01*
D02*
G37*
G36*
X1640000Y260000D02*
X1590000D01*
Y660000D01*
X1640000D01*
Y260000D01*
D02*
G37*
G36*
X1570000D02*
X1460000D01*
Y660000D01*
X1570000D01*
Y260000D01*
D02*
G37*
G36*
X1440000D02*
X1390000D01*
Y660000D01*
X1440000D01*
Y260000D01*
D02*
G37*
G36*
X1287500Y262500D02*
X1262500D01*
Y240000D01*
X1237500D01*
Y312500D01*
X1287500D01*
Y262500D01*
D02*
G37*
G36*
X435000Y220000D02*
X405000D01*
Y265000D01*
X435000D01*
Y220000D01*
D02*
G37*
G36*
X2037500Y407500D02*
X2031500D01*
Y372500D01*
X2037500D01*
Y210000D01*
X1912500D01*
Y430000D01*
X2037500D01*
Y407500D01*
D02*
G37*
G36*
X252000Y190000D02*
X221314D01*
Y218000D01*
X221168Y218730D01*
X221734Y219733D01*
X221984Y220000D01*
X252000D01*
Y190000D01*
D02*
G37*
G36*
X364750Y183059D02*
X342000D01*
Y183200D01*
X332000D01*
X331800Y184387D01*
Y190000D01*
X341500D01*
X349250Y197750D01*
X364750D01*
Y183059D01*
D02*
G37*
G36*
X358500Y217500D02*
X351000D01*
X347000Y213500D01*
X342000D01*
Y208500D01*
X331017Y197517D01*
X329982Y197311D01*
X328907Y196593D01*
X328564Y196250D01*
X324750D01*
X320000Y191500D01*
X319800D01*
Y191300D01*
X319250Y190750D01*
Y155500D01*
X316750D01*
Y193000D01*
X323500Y199750D01*
Y307500D01*
X358500D01*
Y217500D01*
D02*
G37*
G36*
X302500Y199750D02*
X309250Y193000D01*
Y155500D01*
X306750D01*
Y190750D01*
X306200Y191300D01*
Y191500D01*
X306000D01*
X301250Y196250D01*
X298686D01*
X298343Y196593D01*
X297268Y197311D01*
X297058Y197353D01*
X296000Y197564D01*
X294936D01*
X284000Y208500D01*
Y209500D01*
X283000D01*
X275000Y217500D01*
X267500D01*
Y307500D01*
X302500D01*
Y199750D01*
D02*
G37*
G36*
X425000Y163000D02*
X435000Y153000D01*
Y138000D01*
X423000D01*
Y151000D01*
X417000Y157000D01*
X400000D01*
Y195000D01*
X425000D01*
Y163000D01*
D02*
G37*
G36*
X250303Y183730D02*
X249750Y182394D01*
Y180106D01*
X250625Y177993D01*
X252000Y176618D01*
Y135000D01*
X225000D01*
Y185000D01*
X249459D01*
X250303Y183730D01*
D02*
G37*
G36*
X372000Y144000D02*
X372000Y120000D01*
X360000Y120000D01*
X350000Y130000D01*
Y150000D01*
X366000D01*
X372000Y144000D01*
D02*
G37*
G36*
X1201000Y187500D02*
X1012500D01*
Y100000D01*
X950000D01*
Y230000D01*
X1201000D01*
Y187500D01*
D02*
G37*
G36*
X294641Y146827D02*
X292657Y144843D01*
X291939Y143768D01*
X291686Y142500D01*
X291939Y141232D01*
X292657Y140157D01*
X293732Y139439D01*
X295000Y139186D01*
X295487Y139283D01*
X296113Y138113D01*
X277000Y119000D01*
Y70000D01*
X230000D01*
Y132000D01*
X269000D01*
X285000Y148000D01*
X294154D01*
X294641Y146827D01*
D02*
G37*
G36*
X415000Y42500D02*
X377500D01*
X377500Y64500D01*
X380500Y67500D01*
X415000Y67500D01*
Y42500D01*
D02*
G37*
G36*
X1340000Y40000D02*
X1170000D01*
Y170000D01*
X1220000D01*
Y230000D01*
X1280000D01*
Y250000D01*
X1310000D01*
Y270000D01*
X1340000D01*
Y40000D01*
D02*
G37*
G36*
X324250Y165000D02*
X327250Y162000D01*
X332000D01*
Y161800D01*
X335200D01*
X340000Y157000D01*
X340000Y148000D01*
X340000Y135000D01*
X365000Y110000D01*
X425000Y110000D01*
Y85000D01*
X390000D01*
X365000Y60000D01*
Y27000D01*
X328000D01*
Y65000D01*
X346000D01*
X356000Y75000D01*
Y104000D01*
X345000Y115000D01*
X336000D01*
X321750Y129250D01*
Y189500D01*
X324250D01*
Y165000D01*
D02*
G37*
G36*
X318000Y218000D02*
X318000Y197134D01*
X315308Y194442D01*
X314866Y193780D01*
X314711Y193000D01*
Y155500D01*
X314800Y155052D01*
Y153500D01*
X315000D01*
Y125000D01*
X330000Y110000D01*
X345000D01*
X350000Y105000D01*
Y85000D01*
X343000Y78000D01*
X326000D01*
X319000Y71000D01*
Y46000D01*
X325000Y40000D01*
Y27000D01*
X315000D01*
X283000Y59000D01*
Y99000D01*
X293000Y109000D01*
Y129000D01*
X299500Y135500D01*
X302000D01*
Y144814D01*
X305343Y148157D01*
X305718Y148718D01*
X310500Y153500D01*
X311200D01*
Y155052D01*
X311289Y155500D01*
Y193000D01*
X311134Y193780D01*
X310692Y194442D01*
X310692Y194442D01*
X308000Y197134D01*
X308000Y217102D01*
X308898Y218000D01*
X318000Y218000D01*
D02*
G37*
G36*
X2075000Y25000D02*
X1875000D01*
Y175000D01*
X2075000D01*
Y25000D01*
D02*
G37*
%LPC*%
G36*
X2071500Y418915D02*
Y411500D01*
X2078916D01*
X2078387Y413474D01*
X2077202Y415526D01*
X2075526Y417202D01*
X2073474Y418387D01*
X2071500Y418915D01*
D02*
G37*
G36*
X2068500Y418915D02*
X2066526Y418387D01*
X2064474Y417202D01*
X2062798Y415526D01*
X2061613Y413474D01*
X2061084Y411500D01*
X2068500D01*
Y418915D01*
D02*
G37*
G36*
Y408500D02*
X2061084D01*
X2061613Y406526D01*
X2062798Y404474D01*
X2064474Y402798D01*
X2066526Y401613D01*
X2068500Y401085D01*
Y408500D01*
D02*
G37*
G36*
X2078916D02*
X2071500D01*
Y401084D01*
X2073474Y401613D01*
X2075526Y402798D01*
X2077202Y404474D01*
X2078387Y406526D01*
X2078916Y408500D01*
D02*
G37*
G36*
X2079000Y399000D02*
X2071500D01*
Y391500D01*
X2079000D01*
Y399000D01*
D02*
G37*
G36*
X2068500D02*
X2061000D01*
Y391500D01*
X2068500D01*
Y399000D01*
D02*
G37*
G36*
X2079000Y388500D02*
X2071500D01*
Y381000D01*
X2079000D01*
Y388500D01*
D02*
G37*
G36*
X2068500D02*
X2061000D01*
Y381000D01*
X2068500D01*
Y388500D01*
D02*
G37*
G36*
X82650Y259000D02*
X67400D01*
Y243750D01*
X67550D01*
X70786Y244394D01*
X73834Y245656D01*
X76577Y247489D01*
X78910Y249823D01*
X80744Y252566D01*
X82006Y255614D01*
X82650Y258850D01*
Y259000D01*
D02*
G37*
G36*
X64400D02*
X49150D01*
Y258850D01*
X49794Y255614D01*
X51056Y252566D01*
X52889Y249823D01*
X55222Y247489D01*
X57966Y245656D01*
X61014Y244394D01*
X64250Y243750D01*
X64400D01*
Y259000D01*
D02*
G37*
G36*
X42650Y259000D02*
X27400D01*
Y243750D01*
X27550D01*
X30786Y244394D01*
X33834Y245656D01*
X36577Y247489D01*
X38910Y249823D01*
X40743Y252566D01*
X42006Y255614D01*
X42650Y258850D01*
Y259000D01*
D02*
G37*
G36*
X24400D02*
X9150D01*
Y258850D01*
X9794Y255614D01*
X11056Y252566D01*
X12889Y249823D01*
X15222Y247489D01*
X17966Y245656D01*
X21014Y244394D01*
X24250Y243750D01*
X24400D01*
Y259000D01*
D02*
G37*
G36*
X1992300Y363616D02*
Y354000D01*
X2001916D01*
X2001167Y356794D01*
X1999702Y359331D01*
X1997631Y361402D01*
X1995094Y362867D01*
X1992300Y363616D01*
D02*
G37*
G36*
X1989300D02*
X1986506Y362867D01*
X1983969Y361402D01*
X1981898Y359331D01*
X1980433Y356794D01*
X1979684Y354000D01*
X1989300D01*
Y363616D01*
D02*
G37*
G36*
X1941399Y363125D02*
X1938601D01*
X1935899Y362401D01*
X1933476Y361002D01*
X1931498Y359024D01*
X1930099Y356601D01*
X1929375Y353899D01*
Y351101D01*
X1930099Y348399D01*
X1931498Y345976D01*
X1933476Y343998D01*
X1935899Y342599D01*
X1938601Y341875D01*
X1941399D01*
X1944101Y342599D01*
X1946524Y343998D01*
X1948502Y345976D01*
X1949901Y348399D01*
X1950625Y351101D01*
Y353899D01*
X1949901Y356601D01*
X1948502Y359024D01*
X1946524Y361002D01*
X1944101Y362401D01*
X1941399Y363125D01*
D02*
G37*
G36*
X2001916Y351000D02*
X1992300D01*
Y341385D01*
X1995094Y342133D01*
X1997631Y343598D01*
X1999702Y345669D01*
X2001167Y348206D01*
X2001916Y351000D01*
D02*
G37*
G36*
X1989300D02*
X1979684D01*
X1980433Y348206D01*
X1981898Y345669D01*
X1983969Y343598D01*
X1986506Y342133D01*
X1989300Y341385D01*
Y351000D01*
D02*
G37*
G36*
X1939000Y246115D02*
Y236500D01*
X1948616D01*
X1947867Y239294D01*
X1946402Y241831D01*
X1944331Y243902D01*
X1941794Y245367D01*
X1939000Y246115D01*
D02*
G37*
G36*
X1936000D02*
X1933206Y245367D01*
X1930669Y243902D01*
X1928598Y241831D01*
X1927133Y239294D01*
X1926384Y236500D01*
X1936000D01*
Y246115D01*
D02*
G37*
G36*
X1989699Y245625D02*
X1986901D01*
X1984199Y244901D01*
X1981776Y243502D01*
X1979798Y241524D01*
X1978399Y239101D01*
X1977675Y236399D01*
Y233601D01*
X1978399Y230899D01*
X1979798Y228476D01*
X1981776Y226498D01*
X1984199Y225099D01*
X1986901Y224375D01*
X1989699D01*
X1992401Y225099D01*
X1994824Y226498D01*
X1996802Y228476D01*
X1998201Y230899D01*
X1998925Y233601D01*
Y236399D01*
X1998201Y239101D01*
X1996802Y241524D01*
X1994824Y243502D01*
X1992401Y244901D01*
X1989699Y245625D01*
D02*
G37*
G36*
X1948616Y233500D02*
X1939000D01*
Y223885D01*
X1941794Y224633D01*
X1944331Y226098D01*
X1946402Y228169D01*
X1947867Y230706D01*
X1948616Y233500D01*
D02*
G37*
G36*
X1936000D02*
X1926384D01*
X1927133Y230706D01*
X1928598Y228169D01*
X1930669Y226098D01*
X1933206Y224633D01*
X1936000Y223885D01*
Y233500D01*
D02*
G37*
G36*
X976498Y146800D02*
X976300D01*
Y135400D01*
X987700D01*
Y135598D01*
X986821Y138879D01*
X985123Y141821D01*
X982721Y144222D01*
X979779Y145921D01*
X976498Y146800D01*
D02*
G37*
G36*
X973300D02*
X973102D01*
X969821Y145921D01*
X966879Y144222D01*
X964477Y141821D01*
X962779Y138879D01*
X961900Y135598D01*
Y135400D01*
X973300D01*
Y146800D01*
D02*
G37*
G36*
X987700Y132400D02*
X976300D01*
Y121000D01*
X976498D01*
X979779Y121879D01*
X982721Y123577D01*
X985123Y125979D01*
X986821Y128921D01*
X987700Y132202D01*
Y132400D01*
D02*
G37*
G36*
X973300D02*
X961900D01*
Y132202D01*
X962779Y128921D01*
X964477Y125979D01*
X966879Y123577D01*
X969821Y121879D01*
X973102Y121000D01*
X973300D01*
Y132400D01*
D02*
G37*
G36*
X1191563Y111875D02*
X1191500D01*
Y101500D01*
X1201875D01*
Y101563D01*
X1201066Y104584D01*
X1199502Y107291D01*
X1197291Y109502D01*
X1194584Y111066D01*
X1191563Y111875D01*
D02*
G37*
G36*
X1188500D02*
X1188437D01*
X1185416Y111066D01*
X1182709Y109502D01*
X1180498Y107291D01*
X1178934Y104584D01*
X1178125Y101563D01*
Y101500D01*
X1188500D01*
Y111875D01*
D02*
G37*
G36*
X1201875Y98500D02*
X1191500D01*
Y88125D01*
X1191563D01*
X1194584Y88934D01*
X1197291Y90498D01*
X1199502Y92709D01*
X1201066Y95416D01*
X1201875Y98437D01*
Y98500D01*
D02*
G37*
G36*
X1188500D02*
X1178125D01*
Y98437D01*
X1178934Y95416D01*
X1180498Y92709D01*
X1182709Y90498D01*
X1185416Y88934D01*
X1188437Y88125D01*
X1188500D01*
Y98500D01*
D02*
G37*
G36*
X2024563Y111875D02*
X2024500D01*
Y101500D01*
X2034875D01*
Y101563D01*
X2034066Y104584D01*
X2032502Y107291D01*
X2030291Y109502D01*
X2027584Y111066D01*
X2024563Y111875D01*
D02*
G37*
G36*
X2021500D02*
X2021437D01*
X2018416Y111066D01*
X2015709Y109502D01*
X2013498Y107291D01*
X2011934Y104584D01*
X2011125Y101563D01*
Y101500D01*
X2021500D01*
Y111875D01*
D02*
G37*
G36*
X2034875Y98500D02*
X2024500D01*
Y88125D01*
X2024563D01*
X2027584Y88934D01*
X2030291Y90498D01*
X2032502Y92709D01*
X2034066Y95416D01*
X2034875Y98437D01*
Y98500D01*
D02*
G37*
G36*
X2021500D02*
X2011125D01*
Y98437D01*
X2011934Y95416D01*
X2013498Y92709D01*
X2015709Y90498D01*
X2018416Y88934D01*
X2021437Y88125D01*
X2021500D01*
Y98500D01*
D02*
G37*
%LPD*%
D10*
X2072250Y633250D02*
Y729750D01*
X1166000Y758000D02*
X2044000D01*
X2072250Y729750D01*
X1143000Y762000D02*
X2047543D01*
X2076500Y608250D02*
Y733043D01*
X2047543Y762000D02*
X2076500Y733043D01*
X2081000Y603500D02*
Y735000D01*
X2050000Y766000D02*
X2081000Y735000D01*
X1122000Y766000D02*
X2050000D01*
X2085000Y600000D02*
Y737000D01*
X2052000Y770000D02*
X2085000Y737000D01*
X550000Y770000D02*
X2052000D01*
X1127000Y719000D02*
X1166000Y758000D01*
X499000Y719000D02*
X1127000D01*
X521672Y739000D02*
X1120000D01*
X1143000Y762000D01*
X542172Y759500D02*
X1115500D01*
X1122000Y766000D01*
X532672Y750000D02*
X542172Y759500D01*
X490000Y710000D02*
X499000Y719000D01*
X512672Y730000D02*
X521672Y739000D01*
X530000Y750000D02*
X532672D01*
X510000Y730000D02*
X512672D01*
X489000Y751000D02*
X510000Y730000D01*
X201500Y500250D02*
X202250D01*
X189000Y487750D02*
X201500Y500250D01*
X219000Y492345D02*
Y514657D01*
X192657Y541000D02*
X219000Y514657D01*
X2017350Y574000D02*
X2032500D01*
X2024850Y564000D02*
Y569000D01*
Y559000D02*
Y564000D01*
X2017350Y569000D02*
X2022000D01*
X2024850Y546500D02*
Y559000D01*
Y535000D02*
Y546500D01*
X2019850D02*
Y559000D01*
Y535144D02*
Y546500D01*
X2014850D02*
Y576500D01*
Y535125D02*
Y546500D01*
X373250Y182750D02*
Y190250D01*
X370500Y180000D02*
X373250Y182750D01*
X337000Y180000D02*
X370500D01*
X292500Y762500D02*
Y785000D01*
X276500Y801000D02*
X292500Y785000D01*
X287500Y761172D02*
Y783750D01*
X276250Y795000D02*
X287500Y783750D01*
X292500Y762500D02*
X300000Y755000D01*
X287500Y761172D02*
X297672Y751000D01*
X2032500Y594000D02*
X2062250D01*
X2076500Y608250D01*
X297672Y751000D02*
X489000D01*
X242000Y795000D02*
X276250D01*
X230350Y783350D02*
X242000Y795000D01*
X230350Y776750D02*
Y783350D01*
X228100Y774500D02*
X230350Y776750D01*
X253500Y774500D02*
X255750Y772250D01*
Y765450D02*
X280950Y740250D01*
X459750D01*
X255750Y765450D02*
Y772250D01*
X459750Y740250D02*
X490000Y710000D01*
X236172Y535000D02*
X248880D01*
X232750Y537750D02*
X233422D01*
X236172Y535000D01*
X189000Y470120D02*
Y487750D01*
X202000Y454000D02*
Y455218D01*
X199000Y458218D02*
Y470120D01*
Y458218D02*
X202000Y455218D01*
X522328Y755000D02*
X527328Y750000D01*
X300000Y755000D02*
X522328D01*
X363750Y765750D02*
X370050Y759450D01*
X451675D01*
X363050Y765750D02*
X363750D01*
X360800Y768000D02*
X363050Y765750D01*
X360800Y768000D02*
Y774500D01*
X451675Y759450D02*
X462225Y770000D01*
X550000D01*
X2032500Y584000D02*
X2069000D01*
X2085000Y600000D01*
X2032500Y589000D02*
X2066500D01*
X2081000Y603500D01*
X2031675Y621500D02*
X2060500D01*
X2072250Y633250D01*
X319000Y588000D02*
Y593017D01*
Y588000D02*
X326983Y580017D01*
X355956D01*
X319000Y593017D02*
X335534D01*
X309534D02*
X319000D01*
X347284Y604767D02*
X354706D01*
X335534Y593017D02*
X347284Y604767D01*
X354706D02*
X355956Y606017D01*
X331534Y586517D02*
X344000D01*
Y595483D02*
X347034Y598517D01*
X344000Y586517D02*
Y595483D01*
Y586517D02*
X355767D01*
X347034Y598517D02*
X354956D01*
X183000Y533000D02*
X195000D01*
X214464Y513535D01*
X192000Y541000D02*
X192657D01*
X183500Y461502D02*
Y469620D01*
X164000Y456000D02*
X177998D01*
X183500Y461502D01*
Y469620D02*
X184000Y470120D01*
X209000Y496000D02*
Y508536D01*
X204000Y513535D02*
X209000Y508536D01*
X194000Y481000D02*
X209000Y496000D01*
X194000Y470120D02*
Y481000D01*
X214464Y494464D02*
Y513535D01*
X209000Y482345D02*
X219000Y492345D01*
X204000Y470120D02*
Y484000D01*
X214464Y494464D01*
X209000Y470120D02*
Y482345D01*
X310000Y560000D02*
X310000Y560000D01*
X327000D01*
X2024850Y611500D02*
Y614675D01*
X2031675Y621500D01*
X215400Y774500D02*
X217650Y776750D01*
Y783900D01*
X234750Y801000D01*
X276500D01*
X1201000Y303500D02*
X1202000D01*
X1172000D02*
X1201000D01*
X888000Y587500D02*
X1172000Y303500D01*
X1973850Y599000D02*
Y611500D01*
X2049782Y599000D02*
X2053282Y602500D01*
X2032500Y599000D02*
X2049782D01*
X2053282Y602500D02*
X2054500D01*
X2032500Y604000D02*
X2045500D01*
X2051000Y609500D02*
Y609500D01*
X2045500Y604000D02*
X2051000Y609500D01*
Y609500D02*
X2054500Y613000D01*
X2055000D01*
X2017350Y579000D02*
X2022000D01*
X2024850Y569000D02*
X2032500D01*
X2044000D01*
X2022000Y579000D02*
X2032500D01*
X2024850Y564000D02*
X2032500D01*
X2022000Y559000D02*
X2024850D01*
X2032500Y564000D02*
X2044000D01*
X2032500Y559000D02*
X2044000D01*
X2014850Y576500D02*
X2017350Y579000D01*
X2019850Y559000D02*
X2022000D01*
X2017350Y569000D02*
Y574000D01*
X2019850Y611500D02*
Y619350D01*
X2017350Y574000D02*
Y579000D01*
X2024850Y559000D02*
X2032500D01*
X2022000Y569000D02*
X2024850D01*
X2032500Y579000D02*
X2044000D01*
X2032500Y574000D02*
X2044000D01*
X2019850Y619350D02*
X2022000Y621500D01*
X1934000Y589000D02*
X1945500D01*
X1934000Y569000D02*
X1945500D01*
X1983850Y533500D02*
Y546500D01*
X1978800Y533500D02*
Y546500D01*
X1978850D01*
X1934000Y564000D02*
X1945500D01*
X2019850Y627000D02*
Y642000D01*
X1973850Y533500D02*
Y546500D01*
X1983850D02*
Y559000D01*
Y611500D02*
Y618850D01*
X1989000Y624000D01*
X1973850Y546500D02*
Y559000D01*
X1978800Y546500D02*
Y579000D01*
X1973850Y611500D02*
Y621500D01*
X2014850Y611500D02*
Y622000D01*
X2019850Y627000D01*
X2032500Y554000D02*
X2044000D01*
X1934000D02*
X1945500D01*
X1978850Y611500D02*
Y621500D01*
X1934000Y559000D02*
X1945500D01*
X1934000Y604000D02*
X1945500D01*
X1934000Y599000D02*
X1945500D01*
X1934000Y584000D02*
X1945500D01*
X1934000Y594000D02*
X1945500D01*
X1934000Y579000D02*
X1945500D01*
X1934000Y574000D02*
X1945500D01*
X182806Y345646D02*
X189410Y352250D01*
X182806Y336078D02*
Y345646D01*
X1978850Y634000D02*
X1980000D01*
X354956Y598517D02*
X355956Y599517D01*
X331534Y586517D02*
X331534Y586517D01*
D11*
X1963000Y634000D02*
X1963500Y634500D01*
Y651500D01*
X1941500D02*
X1963500D01*
X1934000Y659000D02*
X1941500Y651500D01*
X1934000Y659000D02*
Y675000D01*
X1987200Y680000D02*
X1997300Y669900D01*
X1934000Y675000D02*
X1939000Y680000D01*
X1987200D01*
X1961100Y669900D02*
X1979500Y651500D01*
X1946500Y669900D02*
X1961100D01*
X130800Y660000D02*
X142844Y647957D01*
X130000Y660000D02*
X130800D01*
X142844Y647957D02*
X166043D01*
X166947Y647053D01*
X40000Y700000D02*
X100750Y639250D01*
X178546Y640000D02*
X255591D01*
X177796Y639250D02*
X178546Y640000D01*
X100750Y639250D02*
X177796D01*
X834500Y643000D02*
X835125Y643625D01*
Y660375D01*
X835750Y661000D01*
X814750Y643750D02*
Y660000D01*
Y643750D02*
X815500Y643000D01*
X814000Y660750D02*
X814750Y660000D01*
X329534Y617017D02*
X329767Y617250D01*
X341000D01*
X373500Y791500D02*
X383750Y801750D01*
X373500Y774500D02*
Y791500D01*
X348100Y781000D02*
X368100Y801000D01*
Y808100D01*
X368500Y808500D01*
X348650Y794250D02*
X349000D01*
X337400Y783000D02*
X348650Y794250D01*
X270000Y180500D02*
X275500Y175000D01*
X289000D01*
X263965Y173500D02*
X269500D01*
X262500Y174965D02*
Y187750D01*
Y174965D02*
X263965Y173500D01*
X269500D02*
X273000Y170000D01*
X289000D01*
X267500Y169000D02*
X271500Y165000D01*
X255500Y171500D02*
Y181250D01*
X258000Y169000D02*
X267500D01*
X255500Y171500D02*
X258000Y169000D01*
X262250Y188000D02*
X262500Y187750D01*
X244500Y195000D02*
X265500D01*
X280500Y180000D02*
X289000D01*
X265500Y195000D02*
X280500Y180000D01*
X271500Y165000D02*
X289000D01*
X292950Y187000D02*
X293000Y186950D01*
X283500Y187000D02*
X292950D01*
X283000Y187500D02*
X283500Y187000D01*
X293000Y186500D02*
Y186950D01*
X204000Y582647D02*
X208250Y586897D01*
X204000Y554880D02*
Y582647D01*
X208250Y586897D02*
Y588250D01*
X226500Y628000D02*
X251625Y602875D01*
X252000D01*
Y600500D02*
Y602875D01*
X167000Y647000D02*
X227000D01*
X252156Y672156D01*
X360250Y699750D02*
X373500Y686500D01*
Y680000D02*
Y686500D01*
X348175Y680075D02*
Y701175D01*
X348100Y680000D02*
X348175Y680075D01*
Y701175D02*
X348250Y701250D01*
X100000Y427500D02*
Y434000D01*
X97000Y424500D02*
X100000Y427500D01*
X214000Y452000D02*
Y470120D01*
X204000Y442000D02*
X214000Y452000D01*
X108000Y442000D02*
X204000D01*
X100000Y434000D02*
X108000Y442000D01*
X62500Y425000D02*
X96500D01*
X97000Y424500D01*
X50000Y412500D02*
X62500Y425000D01*
X248880Y485000D02*
X264500D01*
X272750Y476750D01*
X281500Y464500D02*
X282000Y464000D01*
X269000Y464500D02*
X281500D01*
X359500Y352500D02*
X385750D01*
X258341Y476750D02*
X272750D01*
X582500Y636000D02*
Y660500D01*
X547700Y601200D02*
X582500Y636000D01*
X357500Y519500D02*
X373250Y503750D01*
Y494250D02*
Y503750D01*
X234250Y463750D02*
Y469870D01*
X234000Y470120D02*
X234250Y469870D01*
Y463750D02*
X251000Y447000D01*
X256500Y396000D02*
X257000Y395500D01*
X243500Y396000D02*
X256500D01*
X328000Y786250D02*
Y797500D01*
X324750Y783000D02*
X328000Y786250D01*
X324700Y783000D02*
X324750D01*
X322700Y781000D02*
X324700Y783000D01*
X322700Y774500D02*
Y781000D01*
X312000Y783000D02*
Y797500D01*
X310000Y781000D02*
X312000Y783000D01*
X310000Y774500D02*
Y781000D01*
X328500Y798000D02*
Y809750D01*
X297500Y797500D02*
X312000D01*
X355956Y537044D02*
X357500Y535500D01*
X355956Y537044D02*
Y557483D01*
X340000Y535500D02*
X357500D01*
X229000Y577500D02*
X252000Y600500D01*
X229000Y554880D02*
Y577500D01*
X224000Y554880D02*
Y594118D01*
X229000Y599118D01*
Y602500D01*
X206000Y602750D02*
X206250Y602500D01*
X209000D01*
X219000Y554880D02*
Y592500D01*
X209000Y602500D02*
X219000Y592500D01*
X208235Y616235D02*
X209000Y617000D01*
X208235Y604985D02*
Y616235D01*
X206000Y602750D02*
X208235Y604985D01*
X239750Y476250D02*
X263000Y453000D01*
X269000D01*
X274000Y448000D01*
X239750Y476250D02*
Y479500D01*
X274000Y329000D02*
Y448000D01*
X176202Y339472D02*
Y357798D01*
X165000Y369000D02*
X176202Y357798D01*
X178000Y382000D02*
Y389000D01*
X165000Y369000D02*
X178000Y382000D01*
X226500Y368500D02*
Y385000D01*
Y368500D02*
X250000Y345000D01*
X273976Y712200D02*
X297500Y688676D01*
Y673456D02*
Y688676D01*
X215176Y680400D02*
Y712000D01*
X355956Y593017D02*
X368535D01*
X370000Y594482D02*
Y598509D01*
X368535Y593017D02*
X370000Y594482D01*
X360800Y622734D02*
Y664234D01*
X389000Y534000D02*
Y594534D01*
X360800Y622734D02*
X389000Y594534D01*
X330284Y636746D02*
Y637500D01*
Y636746D02*
X340250Y626780D01*
X348703D01*
X349000Y626483D01*
X398900Y774500D02*
X413000D01*
X278900Y755000D02*
Y774500D01*
X195000Y576418D02*
Y577500D01*
Y576418D02*
X199000Y572418D01*
Y554880D02*
Y572418D01*
X297500Y617017D02*
X313534D01*
X329534Y600267D02*
Y617017D01*
Y600267D02*
X330284Y599517D01*
X331534D01*
X316000Y549500D02*
X322750Y542750D01*
Y526750D02*
Y542750D01*
X305250Y549500D02*
X316000D01*
X289438Y517500D02*
X313500D01*
X322750Y526750D01*
X286938Y515000D02*
X289438Y517500D01*
X248880Y515000D02*
X286938D01*
X301500Y553250D02*
X305250Y549500D01*
X301500Y553250D02*
Y566500D01*
X276500Y527000D02*
X310000D01*
X294000Y543000D02*
X296250Y540750D01*
X313000D01*
X276500Y543000D02*
X294000D01*
X298500Y569500D02*
X301500Y566500D01*
X269000Y569500D02*
X298500D01*
X266250Y572250D02*
X269000Y569500D01*
X266250Y572250D02*
Y614656D01*
X245406Y635500D02*
X266250Y614656D01*
X215500Y635500D02*
X245406D01*
X192000Y612000D02*
X215500Y635500D01*
X180750Y612000D02*
X192000D01*
X255591Y640000D02*
X302574Y593017D01*
X276500Y578500D02*
X286517D01*
X294500Y586483D01*
X179000Y554880D02*
Y555786D01*
X178750Y556035D02*
X179000Y555786D01*
X175215Y556035D02*
X178750D01*
X166166Y565084D02*
X175215Y556035D01*
X166166Y565084D02*
Y572334D01*
X163500Y575000D02*
X166166Y572334D01*
X298000Y186500D02*
Y192250D01*
X296000Y194250D02*
X298000Y192250D01*
X285250Y194250D02*
X296000D01*
X277000Y202500D02*
X285250Y194250D01*
X244500Y228500D02*
X245500Y227500D01*
X257750D01*
X234828Y484422D02*
X239750Y479500D01*
X234828Y484422D02*
Y525828D01*
X194000Y263000D02*
X265500Y334500D01*
Y444706D01*
X256029Y474438D02*
X258341Y476750D01*
X254000Y474438D02*
X256029D01*
X202500Y257500D02*
X274000Y329000D01*
X194000Y227500D02*
Y263000D01*
X209500Y211500D02*
Y212000D01*
X194000Y227500D02*
X209500Y212000D01*
X202500Y233500D02*
X218000Y218000D01*
X202500Y233500D02*
Y257500D01*
X209500Y158500D02*
Y175000D01*
X209500D02*
X218000Y183500D01*
X209500Y175000D02*
X209500D01*
X218000Y183500D02*
Y218000D01*
X239000Y530000D02*
X248880D01*
X234828Y525828D02*
X239000Y530000D01*
X392000Y438000D02*
X418000Y464000D01*
X299837Y438000D02*
X392000D01*
X395000Y431000D02*
X429000Y465000D01*
X281000Y431000D02*
X395000D01*
X418000Y464000D02*
Y505000D01*
X389000Y534000D02*
X418000Y505000D01*
X360800Y664234D02*
Y680000D01*
X215176Y680400D02*
X215400Y680176D01*
X215000Y712000D02*
X215200Y712200D01*
X273976D01*
X216500Y615000D02*
Y624000D01*
Y615000D02*
X229000Y602500D01*
X335000Y680400D02*
Y699000D01*
Y680400D02*
X335400Y680000D01*
X227550Y680550D02*
X228100Y680000D01*
X227000Y705000D02*
X227550Y704450D01*
Y680550D02*
Y704450D01*
X310000Y659500D02*
X312000Y657500D01*
X310000Y659500D02*
Y680000D01*
X322700Y662800D02*
Y680000D01*
Y662800D02*
X328000Y657500D01*
X377534Y647500D02*
X402500D01*
X360800Y664234D02*
X377534Y647500D01*
X348100Y774500D02*
Y781000D01*
X335400Y774500D02*
X337400Y776500D01*
Y783000D01*
X398900Y657500D02*
Y680000D01*
X402500Y647500D02*
X424545Y669545D01*
Y676045D01*
X426750Y678250D01*
X302574Y593017D02*
X309534D01*
X401065Y634014D02*
Y637514D01*
X393534Y626483D02*
X401065Y634014D01*
Y637514D02*
X402500Y638949D01*
X151000Y604000D02*
X152000D01*
X163500Y592500D01*
X429000Y465000D02*
Y600350D01*
X424333Y605017D02*
X429000Y600350D01*
X414716Y606017D02*
X415716Y605017D01*
X424333D01*
X355956Y573517D02*
X366517D01*
X378000Y585000D01*
X399000Y580000D02*
X399008Y580009D01*
X414707D02*
X414716Y580017D01*
X399008Y580009D02*
X414707D01*
X414474Y599758D02*
X414716Y599517D01*
X399241Y599758D02*
X414474D01*
X399000Y600000D02*
X399241Y599758D01*
X377534Y626483D02*
X390000Y638949D01*
Y639000D01*
X149000Y515000D02*
X149000Y515000D01*
X164120D01*
Y470120D02*
X179000D01*
X126000Y535000D02*
X164120D01*
X103000Y512000D02*
X126000Y535000D01*
X103000Y465000D02*
Y512000D01*
Y465000D02*
X109000Y459000D01*
X136500D01*
X144500Y451000D01*
X145000D01*
X97000Y457000D02*
X103000Y451000D01*
X97000Y514000D02*
X123000Y540000D01*
X97000Y457000D02*
Y514000D01*
X123000Y540000D02*
X164120D01*
X103000Y451000D02*
X121000D01*
X518500Y685500D02*
X521750Y688750D01*
X528500Y695000D02*
X1000000D01*
X518500Y685000D02*
Y685500D01*
X521750Y688750D02*
X522250D01*
X528500Y695000D01*
X190000Y659500D02*
X192000Y657500D01*
X208000D02*
X222500D01*
X190000Y659500D02*
Y680000D01*
X202700Y662800D02*
Y680000D01*
Y662800D02*
X208000Y657500D01*
X202700Y774500D02*
Y781000D01*
X190000D02*
X192000Y783000D01*
X202700Y781000D02*
X208000Y786300D01*
X190000Y774500D02*
Y781000D01*
X192000Y783000D02*
Y797500D01*
X208000D02*
X213815Y803315D01*
X218315D01*
X208000Y786300D02*
Y797500D01*
X278900Y657500D02*
Y680000D01*
X218315Y803315D02*
X219750Y804750D01*
X297500Y657500D02*
X312000D01*
X487524Y682033D02*
X498533D01*
X501500Y685000D01*
X41060Y495000D02*
Y540500D01*
Y449500D02*
Y495000D01*
X1272300Y370000D02*
Y390000D01*
Y342500D02*
Y370000D01*
X303000Y150500D02*
Y172500D01*
X295000Y142500D02*
X303000Y150500D01*
X373500Y165000D02*
X389500D01*
X379500Y145000D02*
X379500Y145000D01*
X379500Y129750D02*
Y145000D01*
X373250Y190250D02*
Y206125D01*
X825000Y643000D02*
Y661000D01*
X2054500Y630500D02*
Y642000D01*
Y630500D02*
X2055000Y630000D01*
X2027850Y634000D02*
X2040000D01*
X679500Y578500D02*
Y604500D01*
X2024100Y623600D02*
Y630250D01*
X547000Y641000D02*
X547000Y641000D01*
X822000Y583500D02*
X822000Y583500D01*
Y600500D01*
X705000Y667500D02*
X757500D01*
X850000Y579000D02*
Y591000D01*
X679500Y604500D02*
X682000D01*
X679500Y561000D02*
Y578500D01*
X547000Y641000D02*
X565000D01*
X857000Y572000D02*
X857000Y572000D01*
Y555000D02*
Y572000D01*
X2022000Y621500D02*
X2024100Y623600D01*
X757500Y667500D02*
Y667500D01*
X822000Y572000D02*
Y583500D01*
X825000Y615000D02*
Y618000D01*
X547700Y600350D02*
Y601200D01*
X850000Y579000D02*
X857000Y572000D01*
X857000Y572000D01*
X850000Y591000D02*
X852000Y593000D01*
X858500D01*
X2024100Y630250D02*
X2027850Y634000D01*
X822000Y600500D02*
Y612000D01*
X598500Y600350D02*
Y636000D01*
X857000Y572000D02*
X868000D01*
X822000Y612000D02*
X825000Y615000D01*
X858500Y593000D02*
X859500Y594000D01*
X288900Y635000D02*
X292500D01*
X292608Y635108D01*
X300108D01*
X302500Y637500D01*
X278900Y645000D02*
X288900Y635000D01*
X349000Y626483D02*
X349831Y625652D01*
X1858000Y454000D02*
Y560000D01*
X1857500Y453500D02*
X1858000Y454000D01*
X1817000D02*
X1817500Y453500D01*
X1817000Y454000D02*
Y548000D01*
X349831Y613517D02*
X350831Y612517D01*
X349831Y613517D02*
Y625652D01*
X350831Y612517D02*
X355956D01*
X209000Y554880D02*
Y574417D01*
X211000Y576418D02*
Y577500D01*
X209000Y574417D02*
X211000Y576418D01*
X1297700Y342500D02*
Y397300D01*
X1000000Y695000D02*
X1297700Y397300D01*
X340750Y194250D02*
X345250Y198750D01*
Y202750D01*
X349000Y206500D01*
X331250Y194250D02*
X340750D01*
X328050Y191050D02*
X331250Y194250D01*
X328050Y186550D02*
Y191050D01*
X328000Y186500D02*
X328050Y186550D01*
X1963000Y633500D02*
X1973850Y622650D01*
Y621500D02*
Y622650D01*
X1978850Y621500D02*
Y632850D01*
X1989000Y624000D02*
Y642000D01*
X1978850Y632850D02*
X1980000Y634000D01*
X1963000Y633500D02*
Y634000D01*
X1979500Y651500D02*
X1989000Y642000D01*
X2019850Y642500D02*
X2028350Y651000D01*
Y651500D01*
X2019850Y642000D02*
Y642500D01*
X841000Y572000D02*
X841000Y572000D01*
X841000Y572000D02*
Y587000D01*
X841000Y555000D02*
Y572000D01*
X806000Y583500D02*
X806000Y583500D01*
X840500Y600500D02*
X859500D01*
X840500Y587500D02*
X841000Y587000D01*
X834500Y615000D02*
X840500Y609000D01*
X834500Y615000D02*
Y618000D01*
X813750Y608250D02*
Y616250D01*
X815500Y618000D01*
X806000Y600500D02*
X813750Y608250D01*
X806000Y583500D02*
Y600500D01*
X840500D02*
Y609000D01*
X859500Y587500D02*
X888000D01*
X841000Y555000D02*
X841000Y555000D01*
X731500Y612500D02*
X757000Y638000D01*
X728000Y604500D02*
X731500Y608000D01*
Y612500D01*
X728000Y578500D02*
Y604500D01*
X179500Y592500D02*
X194000D01*
X229000Y453000D02*
X235000Y447000D01*
X251000Y434000D02*
Y447000D01*
X235000Y434000D02*
Y447000D01*
X243500Y421000D02*
X244500Y420000D01*
X257000D01*
X226500Y420500D02*
Y421000D01*
Y410000D02*
Y420500D01*
X224000Y423500D02*
Y470120D01*
Y423500D02*
X226500Y421000D01*
X235000Y385000D02*
X250000Y370000D01*
X226500Y420500D02*
X235000Y412000D01*
Y385000D02*
Y412000D01*
X139000Y340000D02*
Y354000D01*
X347000Y489000D02*
X357258Y499258D01*
Y501068D01*
X294517Y586500D02*
X309517D01*
X294500Y586483D02*
X294517Y586500D01*
X328000Y657500D02*
X342500D01*
X177500D02*
X192000D01*
X177500Y797500D02*
X192000D01*
X1787500Y283400D02*
Y406500D01*
Y283400D02*
X1835900Y235000D01*
X1813750Y433250D02*
X1817000Y436500D01*
X1787500Y406500D02*
X1813750Y432750D01*
X1817000Y436500D02*
X1817500D01*
X1813750Y432750D02*
Y433250D01*
X1838400Y352500D02*
X1857500Y371600D01*
Y436500D01*
X806000Y572000D02*
Y583500D01*
X830000Y555000D02*
X841000D01*
X104000Y180000D02*
X104000Y180000D01*
X121000D02*
X139000D01*
X104000Y166250D02*
Y180000D01*
X156000Y166250D02*
Y180000D01*
X156000Y180000D02*
X156000Y180000D01*
X271000Y152000D02*
X296000D01*
X269750Y209750D02*
X277000Y202500D01*
X261500Y209500D02*
X261750Y209750D01*
X269750D01*
X261500Y142500D02*
Y143000D01*
X264750Y146250D01*
X265250D01*
X271000Y152000D01*
X263250Y158500D02*
X293000D01*
X261000Y160750D02*
X263250Y158500D01*
X226500Y211500D02*
Y227000D01*
X215500Y238000D02*
X226500Y227000D01*
X333500Y361500D02*
Y362500D01*
Y386000D01*
X310464Y445000D02*
X320000D01*
X296000Y152000D02*
X298000Y154000D01*
Y158500D01*
X298000Y158500D01*
X396500Y145000D02*
X412000D01*
X396500D02*
Y145500D01*
X378375Y175000D02*
X389500Y186125D01*
X387000Y155000D02*
X396500Y145500D01*
X348700Y155000D02*
X387000D01*
X338700Y165000D02*
X348700Y155000D01*
X389500Y186125D02*
Y186625D01*
X337000Y175000D02*
X378375D01*
X471500Y600350D02*
Y636000D01*
X503000Y641000D02*
X518000D01*
X487500Y609750D02*
Y636000D01*
Y609750D02*
X496900Y600350D01*
X518000Y641000D02*
X518000Y641000D01*
X728000Y561000D02*
Y578500D01*
X337000Y165000D02*
X338700D01*
X352500Y170000D02*
X357500Y165000D01*
X337000Y170000D02*
X352500D01*
X308100Y352900D02*
X308500Y352500D01*
X358900Y353100D02*
X359500Y352500D01*
X80000Y180000D02*
X104000D01*
X308100Y352900D02*
Y386000D01*
X324500Y352500D02*
X333500Y361500D01*
Y362500D02*
X343500Y352500D01*
X358900Y353100D02*
Y386000D01*
X71100Y297000D02*
X100010D01*
X108760Y288250D01*
X71100Y316500D02*
X71350D01*
X74350D01*
X124910D01*
X138410Y303000D01*
Y302500D02*
Y303000D01*
X71100Y310000D02*
X71350D01*
X74350D01*
X113910D01*
X138410Y285500D01*
Y285000D02*
Y285500D01*
X71100Y323000D02*
X71350D01*
X135410D02*
X138410Y320000D01*
X71350Y323000D02*
X74350D01*
X135410D01*
X138410Y320000D01*
X135410Y323000D02*
X138410Y320000D01*
X135410Y323000D02*
X138410Y320000D01*
X135410Y323000D02*
X138410Y320000D01*
X135410Y323000D02*
X138410Y320000D01*
X135410Y323000D02*
X138410Y320000D01*
X135410Y323000D02*
X138410Y320000D01*
X135410Y323000D02*
X138410Y320000D01*
X135410Y323000D02*
X138410Y320000D01*
X135410Y323000D02*
X138410Y320000D01*
X135410Y323000D02*
X138410Y320000D01*
X135410Y323000D02*
X138410Y320000D01*
X135410Y323000D02*
X138410Y320000D01*
X120000Y470500D02*
Y485000D01*
Y499500D02*
Y515000D01*
Y470500D02*
X141500D01*
X142500Y469500D01*
X133750Y494250D02*
X142500Y485500D01*
X125250Y494250D02*
X133750D01*
X120000Y499500D02*
X125250Y494250D01*
X309517Y586500D02*
X309534Y586517D01*
X393534Y626483D02*
X406500Y613517D01*
X414716Y593017D02*
Y599517D01*
X406500Y613517D02*
X413716D01*
X414716Y612517D01*
Y573517D02*
Y580017D01*
X355956Y557483D02*
Y567017D01*
X393500Y489000D02*
X399250Y494750D01*
X368000Y489000D02*
X393500D01*
X359000Y460000D02*
X390000D01*
X352500Y466500D02*
X359000Y460000D01*
X390000D02*
X395000Y465000D01*
Y465500D02*
X399250Y469750D01*
X395000Y465000D02*
Y465500D01*
X399250Y469750D02*
X403250D01*
X399250Y494750D02*
X403250D01*
X347000Y472000D02*
X352500Y466500D01*
X329438Y491438D02*
X357500Y519500D01*
X368000Y472000D02*
X382000D01*
X309000Y446465D02*
X310464Y445000D01*
X309000Y446465D02*
Y465438D01*
X320000Y445000D02*
X347000Y472000D01*
X317000Y473438D02*
Y473938D01*
X309000Y465438D02*
X317000Y473438D01*
X368000Y489000D02*
X373250Y494250D01*
X317000Y473938D02*
Y474438D01*
X309000Y482438D02*
X317000Y474438D01*
X309000Y482438D02*
Y500438D01*
X317000Y508438D02*
Y508938D01*
X309000Y500438D02*
X317000Y508438D01*
Y456938D02*
X329438Y469377D01*
X317000Y456438D02*
Y456938D01*
Y490938D02*
Y491438D01*
Y490938D02*
X329438Y478500D01*
Y469377D02*
Y478500D01*
X317000Y491438D02*
X329438D01*
X329438Y508938D02*
X340000Y519500D01*
X317000Y508938D02*
X329438D01*
X290000Y466938D02*
X300000Y456938D01*
Y456438D02*
Y456938D01*
X290000Y466938D02*
Y477438D01*
X272438Y495000D02*
X290000Y477438D01*
X248880Y495000D02*
X272438D01*
X300000Y473938D02*
Y474438D01*
X248880Y500000D02*
X274438D01*
X300000Y474438D01*
X286938Y505000D02*
X300000Y491938D01*
Y491438D02*
Y491938D01*
X248880Y505000D02*
X286938D01*
X298938Y510000D02*
X300000Y508938D01*
X248880Y510000D02*
X298938D01*
X214000Y409000D02*
X226500Y396500D01*
Y396000D02*
Y396500D01*
X214000Y409000D02*
Y442000D01*
X219000Y447000D01*
X226500Y385000D02*
Y396000D01*
X219000Y447000D02*
Y470120D01*
X229000Y453000D02*
Y470120D01*
X179500Y575000D02*
Y592500D01*
X163500Y575000D02*
Y592500D01*
X184000Y554880D02*
Y570500D01*
X179500Y575000D02*
X184000Y570500D01*
X162750Y628500D02*
X163250D01*
Y611500D02*
X180250D01*
X180750Y612000D01*
Y628000D02*
X180750Y628000D01*
X158245Y485000D02*
X164120D01*
X142500Y469500D02*
X146250Y473250D01*
X146495D01*
X158245Y485000D01*
X142500Y485500D02*
X147000Y490000D01*
X164120D01*
X86060Y540500D02*
X91810Y546250D01*
X86060Y449500D02*
Y540500D01*
X276000Y561500D02*
X276500D01*
X276000Y543000D02*
X276500D01*
X272750Y557995D02*
Y558250D01*
X276000Y561500D01*
X276500D02*
X291500D01*
X293000Y560000D01*
X249130Y525250D02*
X258250D01*
X248880Y525000D02*
X249130Y525250D01*
X258250D02*
X276000Y543000D01*
X248880Y540000D02*
X254755D01*
X272750Y557995D01*
X248880Y520000D02*
X269500D01*
X276500Y527000D01*
X121000Y416000D02*
Y434000D01*
X145000Y416000D02*
Y434000D01*
X180750Y628000D02*
X195000D01*
X91810Y546250D02*
Y557560D01*
X162750Y628500D01*
X176202Y336078D02*
Y339472D01*
X155410Y339410D02*
X156000Y340000D01*
X155410Y320000D02*
Y339410D01*
X175674Y340000D02*
X176202Y339472D01*
X156000Y340000D02*
X175674D01*
X62500Y206500D02*
X80000D01*
X61000Y205000D02*
X62500Y206500D01*
X42500Y205000D02*
X61000D01*
X61000Y225000D02*
X62500Y223500D01*
D15*
X213500Y369000D02*
X215000D01*
X206000Y361500D02*
X213500Y369000D01*
X206000Y314298D02*
Y361500D01*
X200000Y379590D02*
Y385999D01*
X189410Y369000D02*
X200000Y379590D01*
X178750Y508326D02*
X190032D01*
X193358Y505000D01*
X194000D01*
X164120D02*
X175424D01*
X178750Y508326D01*
X164120Y505000D02*
X164120Y505000D01*
X215000Y369000D02*
Y380923D01*
X202906Y393017D02*
X215000Y380923D01*
X197093Y393017D02*
X202906D01*
X191076Y387000D02*
X197093Y393017D01*
X192000Y300298D02*
X206000Y314298D01*
X176202Y300298D02*
X192000D01*
X189410Y369000D02*
X189410Y369000D01*
X191500D01*
X201000Y359500D01*
Y330904D02*
Y359500D01*
X189410Y319314D02*
X201000Y330904D01*
X164120Y500000D02*
X184000D01*
X176202Y300298D02*
Y315250D01*
X182724Y326000D02*
X189410Y319314D01*
X174000Y326000D02*
X182724D01*
X169000Y321000D02*
X174000Y326000D01*
X169000Y316090D02*
Y321000D01*
X189410Y315250D02*
Y319314D01*
X159140Y306230D02*
X169000Y316090D01*
X158640Y306230D02*
X159140D01*
X155410Y303000D02*
X158640Y306230D01*
X155410Y302500D02*
Y303000D01*
X162232Y286328D02*
X176202Y300298D01*
X156738Y286328D02*
X162232D01*
X155410Y285000D02*
X156738Y286328D01*
D16*
X21500Y798500D02*
Y795168D01*
Y796834D01*
X31497D01*
X29831Y798500D01*
D32*
X2032500Y579000D02*
D03*
Y599000D02*
D03*
Y574000D02*
D03*
Y569000D02*
D03*
Y564000D02*
D03*
Y559000D02*
D03*
Y604000D02*
D03*
Y594000D02*
D03*
Y589000D02*
D03*
Y584000D02*
D03*
Y554000D02*
D03*
X1945500D02*
D03*
Y559000D02*
D03*
Y564000D02*
D03*
Y569000D02*
D03*
Y574000D02*
D03*
Y579000D02*
D03*
Y584000D02*
D03*
Y589000D02*
D03*
Y594000D02*
D03*
Y599000D02*
D03*
Y604000D02*
D03*
D34*
X2019850Y546500D02*
D03*
Y611500D02*
D03*
X2024850Y546500D02*
D03*
X2014850D02*
D03*
X2024850Y611500D02*
D03*
X2014850D02*
D03*
X2009850Y546500D02*
D03*
Y611500D02*
D03*
X1973850D02*
D03*
X1978850D02*
D03*
X1983850D02*
D03*
Y546500D02*
D03*
X1978850D02*
D03*
X1973850D02*
D03*
D36*
X2017350Y579000D02*
D03*
D38*
X1978800D02*
D03*
D44*
X293000Y186500D02*
D03*
X298000D02*
D03*
X328000D02*
D03*
X333000D02*
D03*
Y158500D02*
D03*
X328000D02*
D03*
X298000D02*
D03*
X293000D02*
D03*
D45*
X337000Y180000D02*
D03*
Y175000D02*
D03*
Y170000D02*
D03*
Y165000D02*
D03*
X289000D02*
D03*
Y170000D02*
D03*
Y175000D02*
D03*
Y180000D02*
D03*
D59*
X323000Y172500D02*
D03*
X318000D02*
D03*
X308000D02*
D03*
X303000D02*
D03*
D60*
X313000D02*
D03*
D81*
X1555300Y590000D02*
D03*
X1604700D02*
D03*
X1555300Y520000D02*
D03*
X1604700D02*
D03*
X1555300Y450000D02*
D03*
X1604700D02*
D03*
X1555300Y380000D02*
D03*
X1604700D02*
D03*
X1555300Y310000D02*
D03*
X1604700D02*
D03*
X1474700D02*
D03*
X1425300D02*
D03*
X1474700Y380000D02*
D03*
X1425300D02*
D03*
X1474700Y450000D02*
D03*
X1425300D02*
D03*
X1474700Y520000D02*
D03*
X1425300D02*
D03*
X1474700Y590000D02*
D03*
X1425300D02*
D03*
D82*
X248880Y485000D02*
D03*
Y490000D02*
D03*
Y495000D02*
D03*
Y500000D02*
D03*
Y505000D02*
D03*
Y510000D02*
D03*
Y515000D02*
D03*
Y520000D02*
D03*
Y525000D02*
D03*
Y530000D02*
D03*
Y535000D02*
D03*
Y540000D02*
D03*
X164120D02*
D03*
Y535000D02*
D03*
Y530000D02*
D03*
Y525000D02*
D03*
Y520000D02*
D03*
Y515000D02*
D03*
Y510000D02*
D03*
Y505000D02*
D03*
Y500000D02*
D03*
Y495000D02*
D03*
Y490000D02*
D03*
Y485000D02*
D03*
D83*
X234000Y554880D02*
D03*
Y470120D02*
D03*
X229000Y554880D02*
D03*
Y470120D02*
D03*
X224000Y554880D02*
D03*
X219000D02*
D03*
X214000D02*
D03*
X209000D02*
D03*
X204000D02*
D03*
X179000D02*
D03*
X184000D02*
D03*
X189000D02*
D03*
X194000D02*
D03*
X199000D02*
D03*
X224000Y470120D02*
D03*
X219000D02*
D03*
X214000D02*
D03*
X209000D02*
D03*
X204000D02*
D03*
X179000D02*
D03*
X184000D02*
D03*
X189000D02*
D03*
X194000D02*
D03*
X199000D02*
D03*
D84*
X859500Y587500D02*
D03*
Y594000D02*
D03*
Y600500D02*
D03*
X840500D02*
D03*
Y587500D02*
D03*
D85*
X822000Y600500D02*
D03*
X806000D02*
D03*
X806000Y583500D02*
D03*
X822000D02*
D03*
X841000Y572000D02*
D03*
X857000D02*
D03*
X857000Y555000D02*
D03*
X841000D02*
D03*
X312000Y797500D02*
D03*
X328000D02*
D03*
X313534Y617017D02*
D03*
X329534D02*
D03*
X328000Y657500D02*
D03*
X312000D02*
D03*
X192000Y797500D02*
D03*
X208000D02*
D03*
X208000Y657500D02*
D03*
X192000D02*
D03*
X357250Y190250D02*
D03*
X373250D02*
D03*
X2011850Y634000D02*
D03*
X2027850D02*
D03*
X598500Y636000D02*
D03*
X695500Y578500D02*
D03*
X679500Y561000D02*
D03*
X712000Y578500D02*
D03*
X695500Y561000D02*
D03*
X582500Y636000D02*
D03*
X679500Y578500D02*
D03*
X712000Y561000D02*
D03*
X1963500Y651500D02*
D03*
X1979500D02*
D03*
X320000Y35000D02*
D03*
X336000D02*
D03*
X373500Y165000D02*
D03*
X357500D02*
D03*
X261000Y160750D02*
D03*
X245000D02*
D03*
X311000Y142500D02*
D03*
X295000D02*
D03*
X349000Y206500D02*
D03*
X333000D02*
D03*
X277000Y202500D02*
D03*
X293000D02*
D03*
X728000Y578500D02*
D03*
Y561000D02*
D03*
X343500Y352500D02*
D03*
X359500D02*
D03*
X324500D02*
D03*
X308500D02*
D03*
X471500Y636000D02*
D03*
X487500D02*
D03*
X251000Y447000D02*
D03*
X235000D02*
D03*
X393534Y626483D02*
D03*
X377534D02*
D03*
X163500Y575000D02*
D03*
X179500D02*
D03*
X163500Y592500D02*
D03*
X179500D02*
D03*
D86*
X815500Y643000D02*
D03*
X825000D02*
D03*
X834500D02*
D03*
Y618000D02*
D03*
X825000D02*
D03*
X815500D02*
D03*
D87*
X501500Y685000D02*
D03*
X518500D02*
D03*
X2048500Y390000D02*
D03*
X2031500D02*
D03*
X2011350Y651500D02*
D03*
X2028350D02*
D03*
X1963000Y634000D02*
D03*
X1980000D02*
D03*
X226500Y421000D02*
D03*
X243500D02*
D03*
X156000Y180000D02*
D03*
X139000D02*
D03*
X406500Y165000D02*
D03*
X389500D02*
D03*
X406500Y186625D02*
D03*
X389500D02*
D03*
X261500Y142500D02*
D03*
X244500D02*
D03*
X209500Y211500D02*
D03*
X226500D02*
D03*
X412000Y145000D02*
D03*
X429000D02*
D03*
X379500D02*
D03*
X396500D02*
D03*
X121000Y180000D02*
D03*
X104000D02*
D03*
X156000Y340000D02*
D03*
X139000D02*
D03*
X155410Y320000D02*
D03*
X138410D02*
D03*
X138410Y302500D02*
D03*
X155410D02*
D03*
X138410Y285000D02*
D03*
X155410D02*
D03*
X243500Y396000D02*
D03*
X226500D02*
D03*
X317000Y491438D02*
D03*
X300000D02*
D03*
X317000Y473938D02*
D03*
X300000D02*
D03*
X317000Y456438D02*
D03*
X300000D02*
D03*
X317000Y508938D02*
D03*
X300000D02*
D03*
X310000Y560000D02*
D03*
X293000D02*
D03*
D88*
X42500Y205000D02*
D03*
Y225000D02*
D03*
D89*
X165000Y369000D02*
D03*
X330284Y637500D02*
D03*
X550000Y770000D02*
D03*
X510000Y730000D02*
D03*
X530000Y750000D02*
D03*
X490000Y710000D02*
D03*
X130000Y660000D02*
D03*
X426750Y678250D02*
D03*
X757500Y667500D02*
D03*
X582500Y660500D02*
D03*
X888000Y587500D02*
D03*
X1272300Y390000D02*
D03*
X302500Y637500D02*
D03*
X80000Y180000D02*
D03*
X412000Y97500D02*
D03*
X209500Y175000D02*
D03*
X215500Y238000D02*
D03*
X757000Y638000D02*
D03*
X385750Y352000D02*
D03*
X206000Y602750D02*
D03*
X252000Y602500D02*
D03*
X229000D02*
D03*
X250000Y345000D02*
D03*
X215000Y369000D02*
D03*
X189410D02*
D03*
X250000Y370000D02*
D03*
D90*
X310000Y680000D02*
D03*
X322700D02*
D03*
X335400D02*
D03*
X348100D02*
D03*
X360800D02*
D03*
X373500D02*
D03*
X386200D02*
D03*
X398900D02*
D03*
Y774500D02*
D03*
X386200D02*
D03*
X373500D02*
D03*
X360800D02*
D03*
X348100D02*
D03*
X335400D02*
D03*
X322700D02*
D03*
X310000D02*
D03*
X190000Y680000D02*
D03*
X202700D02*
D03*
X215400D02*
D03*
X228100D02*
D03*
X240800D02*
D03*
X253500D02*
D03*
X266200D02*
D03*
X278900D02*
D03*
Y774500D02*
D03*
X266200D02*
D03*
X253500D02*
D03*
X240800D02*
D03*
X228100D02*
D03*
X215400D02*
D03*
X202700D02*
D03*
X190000D02*
D03*
D91*
X682000Y604500D02*
D03*
X705000D02*
D03*
X728000D02*
D03*
D92*
X547000Y641000D02*
D03*
X360000Y140000D02*
D03*
X331000D02*
D03*
X306000Y55000D02*
D03*
X335000D02*
D03*
X385000Y55000D02*
D03*
X356000D02*
D03*
X299500Y120000D02*
D03*
X270500D02*
D03*
X518000Y641000D02*
D03*
D93*
X705000Y667500D02*
D03*
D94*
X1201000Y249500D02*
D03*
Y278500D02*
D03*
X1202000Y332500D02*
D03*
Y303500D02*
D03*
D95*
X2032500Y610250D02*
D03*
Y547750D02*
D03*
X1945500D02*
D03*
Y610250D02*
D03*
D96*
X2055000Y630000D02*
D03*
Y613000D02*
D03*
X1817500Y436500D02*
D03*
Y453500D02*
D03*
X1857500Y436500D02*
D03*
Y453500D02*
D03*
X244500Y178000D02*
D03*
Y195000D02*
D03*
Y211500D02*
D03*
Y228500D02*
D03*
X145000Y451000D02*
D03*
Y434000D02*
D03*
X121000Y451000D02*
D03*
Y434000D02*
D03*
Y416000D02*
D03*
Y399000D02*
D03*
X97000Y424500D02*
D03*
Y407500D02*
D03*
X145000Y416000D02*
D03*
Y399000D02*
D03*
X276500Y561500D02*
D03*
Y578500D02*
D03*
X163250Y628500D02*
D03*
Y611500D02*
D03*
X62500Y223500D02*
D03*
Y206500D02*
D03*
D97*
X1323100Y342500D02*
D03*
X1297700D02*
D03*
X1272300D02*
D03*
X1246900D02*
D03*
Y255500D02*
D03*
X1323100D02*
D03*
D98*
X2025000Y490000D02*
D03*
D99*
X1190000Y214000D02*
D03*
X1234000D02*
D03*
D100*
X341000Y262500D02*
D03*
X285000D02*
D03*
D101*
X375000Y97500D02*
D03*
X331000D02*
D03*
D102*
X420000Y248000D02*
D03*
Y292000D02*
D03*
D103*
X245500Y87500D02*
D03*
X295500D02*
D03*
D104*
X355956Y612517D02*
D03*
Y606017D02*
D03*
Y599517D02*
D03*
Y593017D02*
D03*
Y586517D02*
D03*
Y580017D02*
D03*
Y573517D02*
D03*
Y567017D02*
D03*
X414716D02*
D03*
Y573517D02*
D03*
Y580017D02*
D03*
Y586517D02*
D03*
Y593017D02*
D03*
Y599517D02*
D03*
Y606017D02*
D03*
Y612517D02*
D03*
D105*
X189410Y315250D02*
D03*
X176202D02*
D03*
Y336078D02*
D03*
X182806D02*
D03*
X189410D02*
D03*
D106*
X120000Y470500D02*
D03*
Y499500D02*
D03*
D107*
X142500Y469500D02*
D03*
Y485500D02*
D03*
X269000Y480500D02*
D03*
Y464500D02*
D03*
X357500Y535500D02*
D03*
Y519500D02*
D03*
X340000Y535500D02*
D03*
Y519500D02*
D03*
X276500Y543000D02*
D03*
Y527000D02*
D03*
X294000Y543000D02*
D03*
Y527000D02*
D03*
X180750Y612000D02*
D03*
Y628000D02*
D03*
D108*
X347000Y472000D02*
D03*
X368000D02*
D03*
Y489000D02*
D03*
X347000D02*
D03*
X70000Y412500D02*
D03*
D109*
X403250Y469750D02*
D03*
Y494750D02*
D03*
D110*
X331534Y599517D02*
D03*
Y586517D02*
D03*
X309534D02*
D03*
Y593017D02*
D03*
Y599517D02*
D03*
D111*
X86060Y540500D02*
D03*
Y449500D02*
D03*
X41060Y540500D02*
D03*
Y449500D02*
D03*
D112*
X71100Y323000D02*
D03*
Y316500D02*
D03*
Y310000D02*
D03*
Y303500D02*
D03*
Y297000D02*
D03*
D113*
X1201000Y278500D02*
Y303500D01*
X1180000Y249500D02*
X1201000D01*
X2011350Y634500D02*
Y642500D01*
Y634500D02*
X2011850Y634000D01*
X2011350Y642500D02*
Y651500D01*
X1180000Y332500D02*
X1202000D01*
D114*
X1997300Y669900D02*
D03*
X1946500D02*
D03*
Y746100D02*
D03*
D115*
X2022700D02*
D03*
D116*
X1623000Y715000D02*
D03*
Y190000D02*
D03*
X1420000D02*
D03*
Y715000D02*
D03*
D117*
X100000Y700000D02*
D03*
X1250000D02*
D03*
X1750000Y200000D02*
D03*
Y700000D02*
D03*
D118*
X100000Y110800D02*
D03*
D119*
Y60000D02*
D03*
D120*
X2023000Y100000D02*
D03*
X1190000D02*
D03*
D121*
X1990800Y352500D02*
D03*
X1940000D02*
D03*
X1838400D02*
D03*
X1988300Y235000D02*
D03*
X1937500D02*
D03*
X1835900D02*
D03*
D122*
X1813000Y352500D02*
D03*
X1810500Y235000D02*
D03*
D123*
X2070000Y390000D02*
D03*
X40000Y680000D02*
D03*
Y600000D02*
D03*
Y650000D02*
D03*
D124*
X2070000Y410000D02*
D03*
X40000Y700000D02*
D03*
X50000Y412500D02*
D03*
X40000Y580000D02*
D03*
Y630000D02*
D03*
D125*
X547700Y600350D02*
D03*
X598500D02*
D03*
X496900D02*
D03*
D126*
X974800Y387900D02*
D03*
X670000Y159300D02*
D03*
Y362500D02*
D03*
X974800Y133900D02*
D03*
D127*
X358900Y386000D02*
D03*
X333500D02*
D03*
D128*
X308100D02*
D03*
D129*
X471500Y600350D02*
D03*
D130*
X65900Y359500D02*
D03*
X25900D02*
D03*
Y260500D02*
D03*
X65900D02*
D03*
D131*
X1930000Y610250D02*
D03*
Y600250D02*
D03*
X835750Y661000D02*
D03*
X814000Y660750D02*
D03*
X341000Y617250D02*
D03*
X368500Y808500D02*
D03*
X383750Y801750D02*
D03*
X349000Y794250D02*
D03*
X270000Y180500D02*
D03*
X262250Y188000D02*
D03*
X255500Y181250D02*
D03*
X283000Y187500D02*
D03*
X202250Y500250D02*
D03*
X208250Y588250D02*
D03*
X226500Y628000D02*
D03*
X167000Y647000D02*
D03*
X360250Y699750D02*
D03*
X348250Y701250D02*
D03*
X200000Y383749D02*
D03*
X297500Y673456D02*
D03*
X370000Y598509D02*
D03*
X232750Y537750D02*
D03*
X265500Y445500D02*
D03*
X300106Y438106D02*
D03*
X202000Y454000D02*
D03*
X281000Y431000D02*
D03*
X216500Y624000D02*
D03*
X209000Y617000D02*
D03*
X335000Y699000D02*
D03*
X227000Y705000D02*
D03*
X215000Y712000D02*
D03*
X183000Y533000D02*
D03*
X192000Y541000D02*
D03*
X164000Y456000D02*
D03*
X204000Y513535D02*
D03*
X399000Y580000D02*
D03*
Y600000D02*
D03*
X378000Y585000D02*
D03*
X164000Y470000D02*
D03*
X178000Y389000D02*
D03*
X149000Y515000D02*
D03*
X327000Y560000D02*
D03*
X195000Y577500D02*
D03*
X379500Y129750D02*
D03*
X373250Y206125D02*
D03*
X825000Y661000D02*
D03*
X2054500Y642000D02*
D03*
Y602500D02*
D03*
X2022000Y569000D02*
D03*
X2012000Y579000D02*
D03*
X565000Y641000D02*
D03*
X2031000Y530000D02*
D03*
X2012000Y599000D02*
D03*
X2013000Y512000D02*
D03*
X2012000Y589000D02*
D03*
X2022000Y579000D02*
D03*
X822000Y572000D02*
D03*
X2022000Y530000D02*
D03*
X2012000Y559000D02*
D03*
X2022000D02*
D03*
X2012000Y569000D02*
D03*
X868000Y572000D02*
D03*
X2022000Y512000D02*
D03*
Y589000D02*
D03*
X2013000Y530000D02*
D03*
X2040000D02*
D03*
X2031000Y512000D02*
D03*
X2040000Y521000D02*
D03*
Y634000D02*
D03*
X2022000Y599000D02*
D03*
X2031000Y521000D02*
D03*
X2013000D02*
D03*
X2011350Y642500D02*
D03*
X1180000Y249500D02*
D03*
X2022000Y521000D02*
D03*
X2040000Y512000D02*
D03*
X1930000Y560250D02*
D03*
Y550250D02*
D03*
X1973850Y599000D02*
D03*
X1983850D02*
D03*
X1973850Y589000D02*
D03*
Y579000D02*
D03*
X1983850Y569000D02*
D03*
X1973850D02*
D03*
X1983850Y559000D02*
D03*
X1973850D02*
D03*
X211000Y577500D02*
D03*
X343000Y187000D02*
D03*
X1983850Y589000D02*
D03*
Y579000D02*
D03*
X1180000Y332500D02*
D03*
X226500Y410000D02*
D03*
X350000Y40000D02*
D03*
Y30000D02*
D03*
X360000D02*
D03*
Y40000D02*
D03*
X1920000Y560250D02*
D03*
Y550250D02*
D03*
Y570250D02*
D03*
Y590250D02*
D03*
X1930000Y570250D02*
D03*
Y590250D02*
D03*
X1920000Y580250D02*
D03*
X1930000D02*
D03*
X1920000Y600250D02*
D03*
Y610250D02*
D03*
X806000Y572000D02*
D03*
X830000Y555000D02*
D03*
X312000Y96000D02*
D03*
Y80000D02*
D03*
Y128000D02*
D03*
Y120000D02*
D03*
Y112000D02*
D03*
Y104000D02*
D03*
Y72000D02*
D03*
Y88000D02*
D03*
X360000Y125000D02*
D03*
X368000D02*
D03*
X406500Y176000D02*
D03*
X420000Y165000D02*
D03*
Y176000D02*
D03*
Y186625D02*
D03*
X104000Y166250D02*
D03*
X156000Y166250D02*
D03*
X209500Y158500D02*
D03*
X503000Y641000D02*
D03*
X184000Y500000D02*
D03*
X226500Y385000D02*
D03*
X194000Y505000D02*
D03*
X189076Y387000D02*
D03*
X108760Y288250D02*
D03*
X80000Y206500D02*
D03*
D132*
X1400000Y610000D02*
D03*
Y590000D02*
D03*
Y570000D02*
D03*
Y490000D02*
D03*
Y470000D02*
D03*
Y450000D02*
D03*
Y430000D02*
D03*
Y410000D02*
D03*
Y390000D02*
D03*
Y370000D02*
D03*
Y350000D02*
D03*
Y330000D02*
D03*
Y310000D02*
D03*
Y290000D02*
D03*
Y270000D02*
D03*
Y650000D02*
D03*
Y630000D02*
D03*
X1630000Y610000D02*
D03*
Y590000D02*
D03*
Y570000D02*
D03*
Y490000D02*
D03*
Y470000D02*
D03*
Y450000D02*
D03*
Y430000D02*
D03*
Y410000D02*
D03*
Y390000D02*
D03*
Y370000D02*
D03*
Y350000D02*
D03*
Y330000D02*
D03*
Y310000D02*
D03*
Y290000D02*
D03*
Y270000D02*
D03*
Y650000D02*
D03*
Y630000D02*
D03*
X1530000D02*
D03*
X1500000D02*
D03*
X1530000Y650000D02*
D03*
X1500000D02*
D03*
X1530000Y270000D02*
D03*
X1500000D02*
D03*
X1530000Y290000D02*
D03*
X1500000D02*
D03*
X1530000Y310000D02*
D03*
X1500000D02*
D03*
X1530000Y330000D02*
D03*
X1500000D02*
D03*
X1530000Y350000D02*
D03*
X1500000D02*
D03*
X1530000Y370000D02*
D03*
X1500000D02*
D03*
X1530000Y390000D02*
D03*
X1500000D02*
D03*
X1530000Y410000D02*
D03*
X1500000D02*
D03*
X1530000Y430000D02*
D03*
X1500000D02*
D03*
X1530000Y450000D02*
D03*
X1500000D02*
D03*
X1530000Y470000D02*
D03*
X1500000D02*
D03*
X1530000Y490000D02*
D03*
X1500000D02*
D03*
Y570000D02*
D03*
X1530000D02*
D03*
Y590000D02*
D03*
X1500000D02*
D03*
X1530000Y610000D02*
D03*
X1500000D02*
D03*
X313000Y213000D02*
D03*
X328500Y809750D02*
D03*
X297500Y797500D02*
D03*
X413000Y774500D02*
D03*
X278900Y755000D02*
D03*
X297500Y617017D02*
D03*
X310000Y527000D02*
D03*
X313000Y540750D02*
D03*
X257750Y227500D02*
D03*
X254000Y474438D02*
D03*
X402500Y638949D02*
D03*
X151000Y604000D02*
D03*
X390000Y639000D02*
D03*
X297500Y657500D02*
D03*
X222500D02*
D03*
X278900D02*
D03*
X219750Y804750D02*
D03*
X487524Y682033D02*
D03*
X1272300Y370000D02*
D03*
X398900Y657500D02*
D03*
X1890000Y140000D02*
D03*
Y100000D02*
D03*
X1930000Y160000D02*
D03*
Y100000D02*
D03*
X1990000Y120000D02*
D03*
X1930000Y140000D02*
D03*
X695000Y627000D02*
D03*
X705000Y637000D02*
D03*
X715000Y627000D02*
D03*
X1990000Y80000D02*
D03*
X2030000Y60000D02*
D03*
X1970000Y80000D02*
D03*
X1890000Y60000D02*
D03*
X2010000Y160000D02*
D03*
X1970000D02*
D03*
X1950000Y120000D02*
D03*
X705000Y647000D02*
D03*
X1930000Y40000D02*
D03*
X1990000D02*
D03*
X1890000Y80000D02*
D03*
X655000Y599000D02*
D03*
X667000Y611000D02*
D03*
X1990000Y160000D02*
D03*
X1910000Y120000D02*
D03*
X1890000Y160000D02*
D03*
X1990000Y100000D02*
D03*
X2010000Y40000D02*
D03*
X1950000Y80000D02*
D03*
X655000Y611000D02*
D03*
X2010000Y140000D02*
D03*
X1970000Y100000D02*
D03*
X1990000Y140000D02*
D03*
X695000Y637000D02*
D03*
X2010000Y60000D02*
D03*
X1910000Y80000D02*
D03*
X1930000Y60000D02*
D03*
X2030000Y160000D02*
D03*
X1950000D02*
D03*
X1910000Y100000D02*
D03*
X1970000Y120000D02*
D03*
X715000Y637000D02*
D03*
X1910000Y60000D02*
D03*
X1950000D02*
D03*
X1970000D02*
D03*
X1910000Y140000D02*
D03*
X705000Y627000D02*
D03*
X1950000Y40000D02*
D03*
X1930000Y80000D02*
D03*
X667000Y599000D02*
D03*
X1890000Y120000D02*
D03*
X1910000Y160000D02*
D03*
X1950000Y140000D02*
D03*
Y100000D02*
D03*
X1930000Y120000D02*
D03*
X715000Y647000D02*
D03*
X695000D02*
D03*
X1970000Y40000D02*
D03*
X1910000D02*
D03*
X2030000D02*
D03*
X2030000Y140000D02*
D03*
X1970000D02*
D03*
X1890000Y40000D02*
D03*
X1990000Y60000D02*
D03*
X278900Y645000D02*
D03*
X349000Y626483D02*
D03*
X1858000Y560000D02*
D03*
X1817000Y548000D02*
D03*
X189410Y352250D02*
D03*
X1267500Y277500D02*
D03*
X1247500D02*
D03*
Y297500D02*
D03*
X1267500D02*
D03*
X1240000Y190000D02*
D03*
X1260000D02*
D03*
X1240000Y150000D02*
D03*
X1220000Y130000D02*
D03*
X1260000Y170000D02*
D03*
X1240000D02*
D03*
X1260000Y150000D02*
D03*
X1240000Y130000D02*
D03*
X1260000Y210000D02*
D03*
X1280000D02*
D03*
X1320000Y230000D02*
D03*
X1300000Y210000D02*
D03*
Y230000D02*
D03*
X1320000Y210000D02*
D03*
X1260000Y130000D02*
D03*
X1320000Y190000D02*
D03*
X1300000Y130000D02*
D03*
X1280000D02*
D03*
X1320000D02*
D03*
X1280000Y170000D02*
D03*
X1320000D02*
D03*
X1280000Y150000D02*
D03*
X1300000D02*
D03*
X1320000D02*
D03*
X1300000Y170000D02*
D03*
X1280000Y190000D02*
D03*
X1300000D02*
D03*
X1280000Y110000D02*
D03*
Y90000D02*
D03*
X1240000Y110000D02*
D03*
X1220000Y90000D02*
D03*
X1260000Y110000D02*
D03*
X1240000Y90000D02*
D03*
X1260000D02*
D03*
X1300000Y110000D02*
D03*
X1220000D02*
D03*
X1300000Y90000D02*
D03*
X1260000Y70000D02*
D03*
X1240000D02*
D03*
X1280000D02*
D03*
X1300000D02*
D03*
X1220000Y50000D02*
D03*
X1240000D02*
D03*
X1300000D02*
D03*
X1280000D02*
D03*
X1260000D02*
D03*
X1220000Y70000D02*
D03*
X1320000Y50000D02*
D03*
X1180000Y70000D02*
D03*
X1200000D02*
D03*
X1180000Y50000D02*
D03*
X1200000D02*
D03*
X1320000Y110000D02*
D03*
X1320000Y70000D02*
D03*
Y90000D02*
D03*
X755000Y599000D02*
D03*
X743000D02*
D03*
X485000Y517500D02*
D03*
X755000Y611000D02*
D03*
X743000D02*
D03*
X472500Y517500D02*
D03*
Y530000D02*
D03*
X294500Y586483D02*
D03*
X342500Y657500D02*
D03*
X357258Y501068D02*
D03*
X120000Y485000D02*
D03*
Y515000D02*
D03*
X240000Y115000D02*
D03*
Y125000D02*
D03*
X231000Y178000D02*
D03*
X250000Y115000D02*
D03*
X430000Y315000D02*
D03*
Y225000D02*
D03*
X420000Y315000D02*
D03*
Y225000D02*
D03*
X410000D02*
D03*
X405000Y60000D02*
D03*
Y50000D02*
D03*
X410000Y315000D02*
D03*
X261500Y209500D02*
D03*
X250000Y125000D02*
D03*
X195000Y628000D02*
D03*
X158000Y397000D02*
D03*
X41060Y495000D02*
D03*
X194000Y592500D02*
D03*
X282000Y464000D02*
D03*
X382000Y472000D02*
D03*
X355956Y557483D02*
D03*
X485000Y530000D02*
D03*
X251000Y434000D02*
D03*
X257000Y395500D02*
D03*
X235000Y434000D02*
D03*
X257000Y420000D02*
D03*
X177500Y797500D02*
D03*
X139000Y354000D02*
D03*
X313000Y201750D02*
D03*
X177500Y657500D02*
D03*
M02*
